<?xml version="1.0" standalone="no"?>
<!DOCTYPE svg PUBLIC "-//W3C//DTD SVG 1.1//EN" "http://www.w3.org/Graphics/SVG/1.1/DTD/svg11.dtd" >
<svg xmlns="http://www.w3.org/2000/svg" xmlns:xlink="http://www.w3.org/1999/xlink" version="1.1">
<metadata>
Created by FontForge 20170731 at Fri Aug  6 16:33:17 2021
 By Aleksey,,,
Copyright (c) 2020 by Artegra. All rights reserved.
</metadata>
<defs>
<font id="DexaProExpanded-Bold" horiz-adv-x="1519" >
  <font-face 
    font-family="Dexa Pro Ex"
    font-weight="700"
    font-stretch="expanded"
    units-per-em="2048"
    panose-1="2 0 5 6 4 0 0 2 0 4"
    ascent="1556"
    descent="-492"
    x-height="1044"
    cap-height="1475"
    bbox="-258 -506 3863 1966"
    underline-thickness="102"
    underline-position="-307"
    unicode-range="U+000D-FB05"
  />
<missing-glyph horiz-adv-x="1650" 
d="M147 0v1475h1356v-1475h-1356zM827 840l392 460h-783zM1333 258v959l-411 -480zM324 258l409 479l-409 480v-959zM434 174h785l-392 465z" />
    <glyph glyph-name="f_f" unicode="ff" horiz-adv-x="1968" 
d="M291 0v766h-223v278h223v37q0 234 113.5 354.5t365.5 120.5q90 0 166 -16t106 -32l31 -15l-88 -229q-53 14 -131 14q-101 0 -142.5 -50t-41.5 -147v-37h491v46q0 236 113.5 357.5t365.5 121.5q90 0 165.5 -15.5t106.5 -31.5l30 -15l-87 -231q-55 14 -131 14
q-101 0 -142.5 -51t-41.5 -149v-46h322v-278h-322v-766h-379v766h-491v-766h-379z" />
    <glyph glyph-name="fi" unicode="fi" horiz-adv-x="1681" 
d="M291 0v766h-223v278h223v39q0 232 168 367t481 135q89 0 169 -11.5t137 -30t105 -41t78.5 -44.5t51.5 -40.5t30 -29.5l9 -12l-314 -127q-7 6 -22 16t-77.5 26t-145.5 16q-86 0 -146 -18t-90 -51.5t-42.5 -70.5t-12.5 -84v-39h870v-1044h-379v766h-491v-766h-379z" />
    <glyph glyph-name="fl" unicode="fl" horiz-adv-x="1671" 
d="M291 0v766h-223v278h223v37q0 241 162 371.5t497 130.5q105 0 204.5 -9.5t166.5 -22.5t118.5 -26t76.5 -23l24 -9v-1493h-379v766h-491v-766h-379zM670 1044h491v256q-94 17 -205 17q-157 0 -221.5 -58.5t-64.5 -177.5v-37z" />
    <glyph glyph-name="f_f_i" unicode="ffi" horiz-adv-x="2551" 
d="M291 0v766h-223v278h223v37q0 234 113.5 354.5t365.5 120.5q57 0 109 -6.5t86 -15t59.5 -17.5t37.5 -15l11 -7l-88 -231q-53 14 -131 14q-101 0 -142.5 -50t-41.5 -147v-37h491v37q0 234 167.5 369t481.5 135q122 0 226.5 -21.5t167 -52.5t107 -62.5t61.5 -52.5l18 -22
l-313 -127q-2 2 -7.5 6.5t-26 14.5t-45.5 18t-70 14.5t-97 6.5q-86 0 -146 -18t-90 -51.5t-42.5 -71t-12.5 -85.5v-37h870v-1044h-378v766h-492v-766h-379v766h-491v-766h-379z" />
    <glyph glyph-name="f_f_l" unicode="ffl" horiz-adv-x="2541" 
d="M291 0v766h-223v278h223v37q0 234 113.5 354.5t365.5 120.5q57 0 109 -6.5t86 -15t59.5 -17.5t37.5 -15l11 -7l-88 -231q-53 14 -131 14q-101 0 -142.5 -50t-41.5 -147v-37h491v37q0 241 162.5 371.5t497.5 130.5q105 0 204.5 -9.5t166 -22.5t118 -26t76.5 -23l24 -9
v-1493h-378v766h-492v-766h-379v766h-491v-766h-379zM1540 1044h492v256q-93 17 -205 17q-158 0 -222.5 -58.5t-64.5 -177.5v-37z" />
    <glyph glyph-name="longs_t" unicode="&#x17f;t" horiz-adv-x="1763" 
d="M129 0v1090q0 236 114 357.5t367 121.5q89 0 164.5 -15.5t105.5 -31.5l31 -15l-86 -231q-55 14 -131 14q-101 0 -143.5 -51t-42.5 -149v-1090h-379zM1399 -25q-130 0 -220 33t-142 98.5t-74.5 152t-22.5 204.5v303h-221v278h221v291h381v-291h332v-278h-332v-303
q0 -106 33.5 -157.5t132.5 -51.5q33 0 64.5 4t46.5 8l16 4l84 -227q-4 -3 -12 -7.5t-35.5 -16t-59.5 -20.5t-84 -16.5t-108 -7.5z" />
    <glyph glyph-name=".notdef" horiz-adv-x="1650" 
d="M147 0v1475h1356v-1475h-1356zM827 840l392 460h-783zM1333 258v959l-411 -480zM324 258l409 479l-409 480v-959zM434 174h785l-392 465z" />
    <glyph glyph-name="uni0000" horiz-adv-x="0" 
 />
    <glyph glyph-name="uni0000" horiz-adv-x="0" 
 />
    <glyph glyph-name="uni000D" unicode="&#xd;" horiz-adv-x="512" 
 />
    <glyph glyph-name="space" unicode=" " horiz-adv-x="573" 
 />
    <glyph glyph-name="exclam" unicode="!" horiz-adv-x="729" 
d="M209 467l-35 1008h381l-33 -1008h-313zM371 -16q-84 0 -136.5 51t-52.5 131t52.5 131t136.5 51q81 0 132.5 -51t51.5 -131t-51.5 -131t-132.5 -51z" />
    <glyph glyph-name="quotedbl" unicode="&#x22;" horiz-adv-x="849" 
d="M92 985l-24 490h299l-23 -490h-252zM508 985l-23 490h297l-20 -490h-254z" />
    <glyph glyph-name="numbersign" unicode="#" horiz-adv-x="1869" 
d="M1032 0l47 350h-389l-45 -350h-334l47 350h-260v240h291l37 276h-262v240h295l49 369h330l-47 -369h389l49 369h334l-50 -369h261v-240h-293l-37 -276h262v-240h-293l-47 -350h-334zM723 590h387l37 276h-389z" />
    <glyph glyph-name="dollar" unicode="$" horiz-adv-x="1636" 
d="M662 -248v225q-121 14 -221 48.5t-167.5 82t-112 98.5t-69.5 107l334 103q15 -21 38.5 -41t70 -47.5t123.5 -44.5t173 -17q161 0 238.5 44t77.5 120q0 68 -80.5 107t-286.5 71q-182 28 -309.5 73t-198.5 106t-102 130t-31 154q0 171 138 284t385 142v225h305v-223
q201 -22 336.5 -104.5t197.5 -202.5l-336 -100q-26 31 -56 53t-101.5 42.5t-169.5 20.5q-137 0 -218 -37t-81 -104q0 -42 28.5 -71.5t112.5 -56.5t233 -48q315 -40 473 -147.5t158 -315.5q0 -187 -149.5 -309t-427.5 -146v-221h-305z" />
    <glyph glyph-name="percent" unicode="%" horiz-adv-x="2213" 
d="M520 750q-191 0 -306.5 105t-115.5 267t115.5 267.5t306.5 105.5q189 0 304.5 -105.5t115.5 -267.5t-115.5 -267t-304.5 -105zM426 0l1053 1475h301l-1055 -1475h-299zM332 1122q0 -70 48.5 -111.5t139.5 -41.5q90 0 138.5 42t48.5 111q0 70 -48.5 112t-138.5 42
q-91 0 -139.5 -42t-48.5 -112zM1696 -20q-191 0 -306.5 105t-115.5 267t115.5 267.5t306.5 105.5t306.5 -105.5t115.5 -267.5t-115.5 -267t-306.5 -105zM1507 352q0 -70 49 -111.5t140 -41.5t139.5 41.5t48.5 111.5t-48.5 112t-139.5 42t-140 -42t-49 -112z" />
    <glyph glyph-name="ampersand" unicode="&#x26;" horiz-adv-x="1873" 
d="M666 -20q-262 0 -415 97.5t-153 280.5q0 73 25 135t74.5 111.5t111.5 89t148 78.5q-62 75 -95.5 151t-33.5 167q0 127 74 221.5t193.5 141t266.5 46.5q249 0 391 -105.5t142 -269.5q0 -260 -414 -432q112 -115 256 -231q45 39 90 92.5t67 86.5l23 34l295 -60
q-14 -23 -38 -60t-92.5 -123.5t-131.5 -141.5q49 -40 146.5 -112t169.5 -125l73 -52h-536q-66 43 -136 92q-239 -112 -501 -112zM799 907q213 75 213 195q0 61 -41 96t-109 35t-109.5 -38t-41.5 -105q0 -44 24.5 -93.5t63.5 -89.5zM713 233q130 0 217 56q-132 111 -277 256
q-92 -39 -138 -81.5t-46 -98.5q0 -63 68 -97.5t176 -34.5z" />
    <glyph glyph-name="quotesingle" unicode="'" horiz-adv-x="532" 
d="M129 985l-27 490h328l-20 -490h-281z" />
    <glyph glyph-name="parenleft" unicode="(" horiz-adv-x="968" 
d="M690 -344q-11 6 -30.5 17t-76 53t-108 93t-114 138t-107.5 185.5t-76 238t-31 293.5q0 153 30 292t78 238.5t105.5 184.5t115.5 138.5t106 92t78 54.5l30 16l182 -187q-8 -5 -23 -15.5t-57 -49t-80 -82t-85 -116.5t-80.5 -152t-56.5 -188t-23 -226t22.5 -225.5t58 -189.5
t79 -151.5t86.5 -118t78.5 -82t58.5 -49.5l22 -16z" />
    <glyph glyph-name="parenright" unicode=")" horiz-adv-x="968" 
d="M98 -158q8 5 23 16t57 49t80.5 82.5t85 117.5t80.5 152.5t57 188.5t23 226t-22.5 225.5t-58 189t-79 151t-87 117.5t-79 81t-58.5 50l-22 15l183 187q11 -6 30.5 -17t76 -53t107.5 -93t113.5 -137.5t107.5 -185t76 -238t31 -292.5q0 -121 -18.5 -233t-50 -199.5t-72 -166
t-85.5 -136.5t-90 -106.5t-85.5 -80.5t-72 -54t-49.5 -32l-19 -10z" />
    <glyph glyph-name="asterisk" unicode="*" horiz-adv-x="907" 
d="M147 846l156 190l-235 72l59 203l231 -80l-12 248h215l-10 -248l231 80l58 -203l-236 -72l160 -190l-166 -121l-145 203l-140 -203z" />
    <glyph glyph-name="plus" unicode="+" horiz-adv-x="1376" 
d="M535 129v416h-431v278h431v416h309v-416h432v-278h-432v-416h-309z" />
    <glyph glyph-name="comma" unicode="," horiz-adv-x="735" 
d="M88 -213l188 508h342l-266 -508h-264z" />
    <glyph glyph-name="hyphen" unicode="-" horiz-adv-x="1198" 
d="M102 518v279h994v-279h-994z" />
    <glyph glyph-name="period" unicode="." horiz-adv-x="606" 
d="M305 -16q-83 0 -134.5 51t-51.5 131t51.5 131t134.5 51t135 -51t52 -131t-52 -131t-135 -51z" />
    <glyph glyph-name="slash" unicode="/" horiz-adv-x="1136" 
d="M387 0h-350l711 1475h352z" />
    <glyph glyph-name="zero" unicode="0" horiz-adv-x="1742" 
d="M872 -33q-165 0 -304 48t-244.5 140.5t-165.5 241.5t-60 340t60 340t165.5 241.5t244.5 140.5t304 48q130 0 245 -29.5t212 -91.5t167 -152t109.5 -217t39.5 -280t-39.5 -280t-109.5 -217t-167 -152t-212 -91.5t-245 -29.5zM872 266q99 0 173.5 37.5t117.5 103.5
t63.5 148.5t20.5 181.5t-20.5 181.5t-63.5 148.5t-117.5 103.5t-173.5 37.5q-81 0 -145 -25t-107 -67.5t-71 -103t-40.5 -128.5t-12.5 -147t12.5 -147t40.5 -128.5t71 -103t107 -67.5t145 -25z" />
    <glyph glyph-name="one" unicode="1" horiz-adv-x="1081" 
d="M535 0v1051l-261 -185l-233 215l553 394h340v-1475h-399z" />
    <glyph glyph-name="two" unicode="2" horiz-adv-x="1589" 
d="M100 0v246l686 459q70 48 107.5 75.5t80 63.5t62.5 62.5t33.5 58.5t13.5 67q0 79 -72.5 127.5t-203.5 48.5q-82 0 -146 -20.5t-103 -55.5t-61 -68t-36 -71l-359 49q12 54 37 109t79.5 121.5t127.5 116.5t189.5 84t257.5 34q331 0 509.5 -125.5t178.5 -337.5
q0 -91 -33.5 -170.5t-98.5 -145t-139.5 -116.5t-175.5 -104l-336 -209h793v-299h-1391z" />
    <glyph glyph-name="three" unicode="3" horiz-adv-x="1646" 
d="M98 387l367 25q2 -6 7 -16t30 -35t61 -44t106 -35t158 -16q159 0 254 46.5t95 131.5q0 100 -126.5 136t-406.5 36v267q124 0 210.5 8t151.5 27t96.5 53t31.5 84q0 72 -81.5 112.5t-230.5 40.5q-81 0 -145 -17t-98 -41t-56 -48t-28 -41l-7 -17l-366 25q1 6 3 15.5
t12.5 39.5t25 59t42.5 68.5t63 73.5t89.5 68.5t118 58.5t152.5 39.5t190 15.5q319 0 503.5 -112.5t184.5 -304.5q0 -68 -22.5 -123.5t-63 -94t-89.5 -64t-109 -40.5q60 -11 114 -34t104 -62t79.5 -102.5t29.5 -143.5q0 -211 -196 -335t-535 -124q-109 0 -203 14.5
t-161.5 38.5t-123 55.5t-91.5 66.5t-63 70t-41 66.5t-23 55.5t-11 38z" />
    <glyph glyph-name="four" unicode="4" horiz-adv-x="1828" 
d="M98 299v279l930 897h430v-877h275v-299h-275v-299h-397v299h-963zM520 598h541v528z" />
    <glyph glyph-name="five" unicode="5" horiz-adv-x="1697" 
d="M147 330l373 59q28 -45 118.5 -84t231.5 -39q163 0 248.5 53t85.5 146q0 197 -346 197q-128 0 -295.5 -22t-270.5 -44l-104 -23l52 902h1245v-299h-883l-18 -275q208 47 383 47q314 0 474.5 -128.5t160.5 -354.5q0 -223 -189 -360.5t-541 -137.5q-145 0 -265 24
t-198.5 61t-136 87t-86 96.5t-39.5 94.5z" />
    <glyph glyph-name="six" unicode="6" horiz-adv-x="1677" 
d="M1485 1290l-301 -133q-3 2 -18.5 10t-25 12t-27.5 11.5t-35.5 12t-41 9t-51.5 7t-59 2.5q-201 0 -313.5 -97.5t-139.5 -281.5q67 65 179.5 111t262.5 46q135 0 246 -26.5t187.5 -72t129 -109.5t77 -137.5t24.5 -155.5q0 -88 -25.5 -165t-83 -145t-142 -116.5
t-209.5 -76.5t-279 -28q-380 0 -561 184t-181 519q0 213 56 374.5t160 262t244 150.5t314 50q107 0 202 -16t159 -39t118 -54.5t83 -56.5t51 -51zM504 506q0 -101 88 -170.5t250 -69.5q165 0 252.5 66t87.5 166t-87.5 165.5t-252.5 65.5q-158 0 -248 -63t-90 -160z" />
    <glyph glyph-name="seven" unicode="7" horiz-adv-x="1480" 
d="M279 0l706 1176h-948v299h1405v-265l-727 -1210h-436z" />
    <glyph glyph-name="eight" unicode="8" horiz-adv-x="1716" 
d="M389 774q-42 9 -84 31.5t-79.5 58t-61 89t-23.5 116.5q0 200 195 319t524 119q328 0 522.5 -119t194.5 -319q0 -83 -40.5 -148.5t-94.5 -99.5t-113 -47q49 -14 96 -40t92.5 -67t73 -103t27.5 -136q0 -151 -96 -256t-264 -155t-398 -50q-232 0 -401 50t-265 155t-96 256
q0 74 27.5 136t73 103t93 67t97.5 40zM537 1044q0 -79 84 -120t239 -41q154 0 238 41t84 120t-84.5 121.5t-237.5 42.5q-154 0 -238.5 -42.5t-84.5 -121.5zM494 453q0 -90 94 -138.5t272 -48.5q175 0 270 49t95 138q0 90 -94.5 138t-270.5 48q-179 0 -272.5 -47.5
t-93.5 -138.5z" />
    <glyph glyph-name="nine" unicode="9" horiz-adv-x="1677" 
d="M193 184l301 133q2 -1 18.5 -9.5t25 -12t27.5 -11.5t36 -12t40.5 -9t51.5 -7t59 -2q397 0 452 379q-67 -66 -179.5 -112t-262.5 -46q-168 0 -297.5 40t-208 110t-118.5 159t-40 193q0 88 26 165t83 144.5t142 116t210 76.5t279 28q193 0 336 -48.5t231.5 -141.5
t131 -220.5t42.5 -291.5q0 -213 -56 -375t-159.5 -262.5t-243.5 -150.5t-315 -50q-107 0 -202 16t-159 39t-117.5 54.5t-82.5 56.5t-51 51zM1174 969q0 102 -87.5 170.5t-250.5 68.5q-166 0 -253 -65t-87 -166q0 -100 87.5 -166t252.5 -66q158 0 248 63.5t90 160.5z" />
    <glyph glyph-name="colon" unicode=":" horiz-adv-x="606" 
d="M305 694q-83 0 -134.5 51.5t-51.5 131.5t51.5 131t134.5 51t135 -51t52 -131t-52 -131.5t-135 -51.5zM305 -16q-83 0 -134.5 51t-51.5 131t51.5 131t134.5 51t135 -51t52 -131t-52 -131t-135 -51z" />
    <glyph glyph-name="semicolon" unicode=";" horiz-adv-x="745" 
d="M436 694q-83 0 -134.5 50.5t-51.5 129.5q0 82 51.5 133.5t134.5 51.5t135 -51.5t52 -133.5q0 -79 -52 -129.5t-135 -50.5zM88 -213l191 506h342l-267 -506h-266z" />
    <glyph glyph-name="less" unicode="&#x3c;" horiz-adv-x="1339" 
d="M109 504v229l1118 451v-330l-639 -236l639 -235v-330z" />
    <glyph glyph-name="equal" unicode="=" horiz-adv-x="1193" 
d="M102 737v262h990v-262h-990zM102 354v264h990v-264h-990z" />
    <glyph glyph-name="greater" unicode="&#x3e;" horiz-adv-x="1339" 
d="M129 53v330l637 235l-637 236v330l1118 -451v-229z" />
    <glyph glyph-name="question" unicode="?" horiz-adv-x="1638" 
d="M625 451v342q278 10 407 68.5t129 172.5q0 82 -88.5 132.5t-251.5 50.5q-73 0 -135 -14t-99.5 -33t-66.5 -43.5t-41 -40.5t-18 -29l-363 43q15 40 42 84t86 102t135 102.5t197.5 75.5t264.5 31q347 0 532 -121.5t185 -316.5q0 -97 -46.5 -174t-130 -128t-189 -82
t-234.5 -44v-178h-315zM784 -16q-83 0 -134.5 51t-51.5 131t51.5 131t134.5 51t135 -51t52 -131t-52 -131t-135 -51z" />
    <glyph glyph-name="at" unicode="@" horiz-adv-x="2273" 
d="M1622 33l254 -88q-22 -25 -55 -53.5t-100 -69.5t-145.5 -72.5t-195 -54.5t-243.5 -23q-168 0 -315.5 31.5t-260 89.5t-201.5 137.5t-146 176t-86.5 205t-29.5 225.5q0 141 41.5 268.5t127 236.5t207 189t292 125t371.5 45q236 0 434 -69.5t328.5 -188t203 -275
t72.5 -331.5q0 -84 -27 -156.5t-79.5 -129.5t-138.5 -89.5t-195 -32.5q-122 0 -206 66.5t-104 142.5q-34 -119 -130.5 -183.5t-225.5 -64.5q-196 0 -309 113t-113 301q0 117 40 210.5t110 151.5t160.5 88.5t195.5 30.5q92 0 187 -18.5t144 -36.5l48 -19q-16 -234 -16 -381
q2 -93 50 -147.5t148 -54.5q97 0 147 55t50 154q0 136 -51.5 252t-147.5 202.5t-244 135.5t-331 49q-184 0 -332 -49t-244.5 -135.5t-147.5 -202.5t-51 -252t51 -252t147.5 -202.5t244.5 -135.5t332 -49q105 0 195 15.5t148 40.5t89.5 43t52.5 36zM1309 766q-82 16 -160 16
q-53 0 -101 -15.5t-89 -47t-65 -87.5t-24 -130q0 -98 54 -153.5t153 -55.5q43 0 78.5 12.5t65 39t48.5 74.5t23 113z" />
    <glyph glyph-name="A" unicode="A" horiz-adv-x="1939" 
d="M37 0l688 1475h489l689 -1475h-420l-137 305h-752l-137 -305h-420zM721 588h498l-250 555z" />
    <glyph glyph-name="B" unicode="B" horiz-adv-x="1781" 
d="M147 0v1475h836q647 0 647 -402q0 -114 -65.5 -196.5t-149.5 -110.5q115 -29 193 -113t78 -215q0 -204 -166 -321t-506 -117h-867zM545 874h469q109 0 164 43t55 111q0 67 -59.5 107.5t-190.5 40.5h-438v-302zM545 299h477q134 0 200 46.5t66 121.5t-65 121.5t-181 46.5
h-497v-336z" />
    <glyph glyph-name="C" unicode="C" horiz-adv-x="1845" 
d="M993 -33q-262 0 -462.5 87.5t-316.5 263.5t-116 419t116 419t316.5 263.5t462.5 87.5q292 0 494.5 -114t279.5 -289l-372 -82q-127 186 -402 186q-225 0 -361 -126.5t-136 -344.5t136 -344.5t361 -126.5q274 0 402 187l372 -80q-77 -176 -279.5 -291t-494.5 -115z" />
    <glyph glyph-name="D" unicode="D" horiz-adv-x="1814" 
d="M147 0v1475h723q402 0 624 -196t222 -542q0 -345 -222 -541t-624 -196h-723zM545 299h325q215 0 332 118.5t117 319.5q0 202 -116.5 320.5t-332.5 118.5h-325v-877z" />
    <glyph glyph-name="E" unicode="E" horiz-adv-x="1652" 
d="M147 0v1475h1366v-299h-968v-279h876v-287h-876v-311h981v-299h-1379z" />
    <glyph glyph-name="F" unicode="F" horiz-adv-x="1593" 
d="M147 0v1475h1334v-299h-936v-359h841v-299h-841v-518h-398z" />
    <glyph glyph-name="G" unicode="G" horiz-adv-x="1869" 
d="M993 -33q-262 0 -462.5 87.5t-316.5 263.5t-116 419t116 419t316.5 263.5t462.5 87.5q294 0 492 -107.5t282 -283.5l-370 -82q-119 174 -404 174q-225 0 -361 -126.5t-136 -344.5t136 -344.5t361 -126.5q158 0 268.5 60.5t110.5 140.5v115h-395v258h792v-383
q0 -143 -107.5 -256.5t-283.5 -173.5t-385 -60z" />
    <glyph glyph-name="H" unicode="H" horiz-adv-x="1830" 
d="M147 0v1475h398v-568h739v568h399v-1475h-399v608h-739v-608h-398z" />
    <glyph glyph-name="I" unicode="I" horiz-adv-x="720" 
d="M162 0v1475h397v-1475h-397z" />
    <glyph glyph-name="J" unicode="J" horiz-adv-x="1558" 
d="M98 420l379 49q8 -34 24 -65.5t46 -64.5t81 -53t117 -20q269 0 269 279v930h397v-930q0 -149 -48.5 -261t-138 -180.5t-209.5 -102.5t-270 -34q-133 0 -241 28t-177.5 72t-119.5 105.5t-74.5 121.5t-34.5 126z" />
    <glyph glyph-name="K" unicode="K" horiz-adv-x="1781" 
d="M147 0v1475h398v-654l712 654h484l-690 -629l692 -846h-449l-522 629l-227 -185v-444h-398z" />
    <glyph glyph-name="L" unicode="L" horiz-adv-x="1507" 
d="M147 0v1475h398v-1176h925v-299h-1323z" />
    <glyph glyph-name="M" unicode="M" horiz-adv-x="2306" 
d="M147 0v1475h558l448 -977l449 977h557v-1475h-398v1059l-483 -1059h-250l-483 1059v-1059h-398z" />
    <glyph glyph-name="N" unicode="N" horiz-adv-x="1863" 
d="M545 0h-398v1475h461l711 -1014v1014h397v-1475h-461l-710 1014v-1014z" />
    <glyph glyph-name="O" unicode="O" horiz-adv-x="1998" 
d="M999 -33q-138 0 -265.5 27t-244 87t-203 148t-137.5 218.5t-51 289.5t51 289.5t137.5 218.5t203 148t244 87t265.5 27q137 0 264.5 -27t244.5 -87t203.5 -148t138 -218.5t51.5 -289.5t-51.5 -289.5t-138 -218.5t-203.5 -148t-244.5 -87t-264.5 -27zM999 266
q227 0 365.5 131t138.5 340t-138.5 340t-365.5 131q-226 0 -364.5 -131.5t-138.5 -339.5t138.5 -339.5t364.5 -131.5z" />
    <glyph glyph-name="P" unicode="P" horiz-adv-x="1734" 
d="M147 0v1475h846q304 0 474.5 -140t170.5 -385q0 -244 -172 -384t-473 -140h-448v-426h-398zM545 725h395q154 0 226.5 60.5t72.5 164.5t-72.5 165t-226.5 61h-395v-451z" />
    <glyph glyph-name="Q" unicode="Q" horiz-adv-x="2002" 
d="M999 -33q-138 0 -265.5 27t-244 87t-203 148t-137.5 218.5t-51 289.5t51 289.5t137.5 218.5t203 148t244 87t265.5 27q137 0 264.5 -27t244.5 -87t203.5 -148t138 -218.5t51.5 -289.5q0 -207 -82.5 -359t-227.5 -249l281 -315h-422l-168 186q-129 -33 -283 -33zM999 266
q227 0 365.5 131t138.5 340t-138.5 340t-365.5 131q-226 0 -364.5 -131.5t-138.5 -339.5t138.5 -339.5t364.5 -131.5z" />
    <glyph glyph-name="R" unicode="R" horiz-adv-x="1765" 
d="M545 0h-398v1475h889q290 0 459.5 -131.5t169.5 -364.5q0 -160 -84.5 -271t-234.5 -163l323 -545h-436l-279 481h-409v-481zM545 1176v-396h438q142 0 212.5 51.5t70.5 145.5q0 96 -70.5 147.5t-212.5 51.5h-438z" />
    <glyph glyph-name="S" unicode="S" horiz-adv-x="1636" 
d="M92 313l334 103q15 -21 38.5 -41t70 -47.5t123.5 -44.5t173 -17q161 0 238.5 44t77.5 120q0 68 -80.5 107t-288.5 71q-181 28 -308 73t-198 106t-102 130t-31 154q0 199 183.5 317.5t504.5 118.5q258 0 430 -87.5t244 -227.5l-336 -100q-26 31 -56 53t-101.5 42.5
t-169.5 20.5q-137 0 -218 -37t-81 -104q0 -42 28.5 -71.5t112 -56.5t231.5 -48q316 -40 474.5 -147.5t158.5 -315.5t-187 -334.5t-526 -126.5q-130 0 -242.5 20.5t-191.5 54t-142 79.5t-101.5 93t-61.5 99z" />
    <glyph glyph-name="T" unicode="T" horiz-adv-x="1660" 
d="M631 0v1176h-594v299h1587v-299h-596v-1176h-397z" />
    <glyph glyph-name="U" unicode="U" horiz-adv-x="1816" 
d="M147 1475h398v-744q0 -465 364 -465q365 0 365 465v744h397v-744q0 -764 -762 -764t-762 764v744z" />
    <glyph glyph-name="V" unicode="V" horiz-adv-x="1835" 
d="M678 0l-641 1475h420l461 -1141l460 1141h420l-641 -1475h-479z" />
    <glyph glyph-name="W" unicode="W" horiz-adv-x="2557" 
d="M498 0l-461 1475h422l317 -1092l318 1092h368l318 -1092l317 1092h424l-461 -1475h-497l-285 971l-283 -971h-497z" />
    <glyph glyph-name="X" unicode="X" horiz-adv-x="1841" 
d="M37 0l600 770l-563 705h436l410 -512l409 512h436l-561 -705l600 -770h-436l-448 571l-449 -571h-434z" />
    <glyph glyph-name="Y" unicode="Y" horiz-adv-x="1744" 
d="M674 0v592l-647 883h448l397 -566l398 566h448l-647 -883v-592h-397z" />
    <glyph glyph-name="Z" unicode="Z" horiz-adv-x="1632" 
d="M98 0v231l863 945h-846v299h1415v-230l-862 -946h868v-299h-1438z" />
    <glyph glyph-name="bracketleft" unicode="[" horiz-adv-x="921" 
d="M147 -219v1859h678v-215h-315v-1429h315v-215h-678z" />
    <glyph glyph-name="backslash" unicode="\" horiz-adv-x="1136" 
d="M1098 0h-350l-713 1475h352z" />
    <glyph glyph-name="bracketright" unicode="]" horiz-adv-x="921" 
d="M98 -219v215h314v1429h-314v215h676v-1859h-676z" />
    <glyph glyph-name="asciicircum" unicode="^" horiz-adv-x="1394" 
d="M102 891l453 584h287l450 -584h-301l-293 305l-292 -305h-304z" />
    <glyph glyph-name="underscore" unicode="_" horiz-adv-x="1429" 
d="M82 -324v228h1268v-228h-1268z" />
    <glyph glyph-name="grave" unicode="`" horiz-adv-x="909" 
d="M102 1475h447l258 -246h-363z" />
    <glyph glyph-name="a" unicode="a" horiz-adv-x="1404" 
d="M911 0v129q-51 -72 -156 -110.5t-233 -38.5q-212 0 -326 81t-114 234q0 71 29.5 126.5t80 89.5t118 59t143.5 34.5t156.5 16.5t157 5t144.5 -1q-2 88 -58 129t-198 41q-181 0 -387 -68l-162 207q93 49 244 90t346 41q144 0 249.5 -24t171.5 -65t105.5 -106t54.5 -136.5
t15 -166.5v-567h-381zM911 459q-43 2 -93.5 1t-100.5 -3t-96.5 -12t-81.5 -25t-56.5 -41.5t-21.5 -61.5q0 -53 50 -82.5t148 -29.5q122 0 187 50t65 130v74z" />
    <glyph glyph-name="b" unicode="b" horiz-adv-x="1589" 
d="M936 -20q-279 0 -428 198v-178h-379v1556h379v-690q147 199 428 199q264 0 418.5 -150t154.5 -393q0 -242 -154.5 -392t-418.5 -150zM819 258q143 0 227 74t84 190t-84 190t-227 74q-145 0 -228 -73.5t-83 -190.5t83 -190.5t228 -73.5z" />
    <glyph glyph-name="c" unicode="c" horiz-adv-x="1382" 
d="M82 524q0 249 178 398t488 149q117 0 216.5 -26.5t168.5 -72t116 -99t74 -115.5l-305 -72q-29 40 -94.5 73.5t-161.5 33.5q-139 0 -219 -72.5t-80 -196.5q0 -125 80 -197.5t219 -72.5q96 0 161 34t95 74l305 -73q-27 -62 -74 -115.5t-116 -99.5t-168.5 -72.5
t-216.5 -26.5q-310 0 -488 149.5t-178 399.5z" />
    <glyph glyph-name="d" unicode="d" horiz-adv-x="1591" 
d="M655 -20q-263 0 -418 150t-155 392t155.5 392.5t417.5 150.5q281 0 428 -199v690h379v-1556h-379v178q-149 -198 -428 -198zM774 258q143 0 226 73.5t83 190.5t-83 190.5t-226 73.5q-145 0 -229 -73.5t-84 -190.5t84 -190.5t229 -73.5z" />
    <glyph glyph-name="e" unicode="e" horiz-adv-x="1468" 
d="M82 522q0 248 179 397.5t480 149.5q114 0 215.5 -26.5t185 -81t142 -130t85 -180t13.5 -225.5h-917q5 -39 22.5 -72t51.5 -62t93.5 -46t139.5 -17q172 0 303 84l271 -104q-36 -43 -85 -80.5t-121 -74t-172.5 -58t-215.5 -21.5q-315 0 -492.5 148.5t-177.5 398.5zM465 600
h551q-5 92 -74 151.5t-201 59.5q-128 0 -196.5 -59t-79.5 -152z" />
    <glyph glyph-name="f" unicode="f" horiz-adv-x="1097" 
d="M291 0v766h-223v278h223v46q0 236 113.5 357.5t365.5 121.5q90 0 165.5 -15.5t105.5 -31.5l30 -15l-86 -231q-55 14 -131 14q-101 0 -142.5 -51t-41.5 -149v-46h321v-278h-321v-766h-379z" />
    <glyph glyph-name="g" unicode="g" horiz-adv-x="1591" 
d="M655 -20q-263 0 -418 150t-155 392t155.5 392.5t417.5 150.5q281 0 428 -199v178h379v-962q0 -120 -37 -216.5t-102.5 -162.5t-158.5 -110.5t-201 -64.5t-234 -20q-213 0 -363 59t-235 142l209 154q147 -101 375 -101q100 0 173.5 25t115 70t60.5 100.5t19 124.5v96
q-149 -198 -428 -198zM774 258q143 0 226 73.5t83 190.5t-83 190.5t-226 73.5q-145 0 -229 -73.5t-84 -190.5t84 -190.5t229 -73.5z" />
    <glyph glyph-name="h" unicode="h" horiz-adv-x="1505" 
d="M119 0v1556h379v-673q51 72 150.5 127t240.5 55q134 0 232 -40t156.5 -114.5t86 -173t27.5 -223.5v-514h-379v514q0 124 -58 198t-190 74q-135 0 -200.5 -77t-65.5 -199v-510h-379z" />
    <glyph glyph-name="i" unicode="i" horiz-adv-x="657" 
d="M330 1171q-83 0 -136 53t-53 136t52.5 134.5t136.5 51.5q83 0 134.5 -51.5t51.5 -134.5q0 -84 -51.5 -136.5t-134.5 -52.5zM139 0v1044h379v-1044h-379z" />
    <glyph glyph-name="j" unicode="j" horiz-adv-x="659" 
d="M330 1171q-83 0 -135 53t-52 136t52 134.5t135 51.5t134.5 -51.5t51.5 -134.5q0 -84 -51.5 -136.5t-134.5 -52.5zM-258 -451l84 252q84 -14 137 -14q105 0 141.5 53t36.5 183v1021h379v-1021q0 -135 -24.5 -228.5t-82.5 -159.5t-155 -96.5t-240 -30.5q-30 0 -59.5 2
t-55 5.5t-47 7t-42 8t-32.5 7.5t-25.5 7t-14.5 4z" />
    <glyph glyph-name="k" unicode="k" horiz-adv-x="1478" 
d="M129 0v1556h381v-905l455 393h473l-506 -444l518 -600h-430l-371 422l-139 -100v-322h-381z" />
    <glyph glyph-name="l" unicode="l" horiz-adv-x="638" 
d="M129 0v1556h381v-1556h-381z" />
    <glyph glyph-name="m" unicode="m" horiz-adv-x="2330" 
d="M129 0v1044h379v-159q138 180 375 180q295 0 409 -217q181 217 445 217q126 0 219 -39t149.5 -112.5t83.5 -173t27 -226.5v-514h-379v514q0 272 -229 272q-124 0 -185 -75t-61 -197v-514h-379v514q0 272 -229 272q-124 0 -185 -75t-61 -197v-514h-379z" />
    <glyph glyph-name="n" unicode="n" horiz-adv-x="1515" 
d="M129 0v1044h379v-161q51 72 150.5 127t240.5 55q134 0 232 -40t156.5 -114.5t86 -173t27.5 -223.5v-514h-379v514q0 124 -58 198t-190 74q-135 0 -200.5 -77t-65.5 -199v-510h-379z" />
    <glyph glyph-name="o" unicode="o" horiz-adv-x="1546" 
d="M774 -25q-315 0 -503.5 150.5t-188.5 398.5t188 397.5t504 149.5q317 0 504.5 -149.5t187.5 -397.5q0 -249 -187.5 -399t-504.5 -150zM774 254q146 0 229.5 75t83.5 195q0 119 -83.5 194t-229.5 75t-229.5 -75t-83.5 -194q0 -120 83.5 -195t229.5 -75z" />
    <glyph glyph-name="p" unicode="p" horiz-adv-x="1589" 
d="M936 1065q264 0 418.5 -150t154.5 -393q0 -242 -154.5 -392t-418.5 -150q-279 0 -428 198v-670h-379v1536h379v-178q147 199 428 199zM819 786q-145 0 -228 -73.5t-83 -190.5t83 -190.5t228 -73.5q143 0 227 74t84 190t-84 190t-227 74z" />
    <glyph glyph-name="q" unicode="q" horiz-adv-x="1591" 
d="M655 1065q281 0 428 -199v178h379v-1536h-379v670q-149 -198 -428 -198q-263 0 -418 150t-155 392t155.5 392.5t417.5 150.5zM774 786q-145 0 -229 -73.5t-84 -190.5t84 -190.5t229 -73.5q143 0 226 73.5t83 190.5t-83 190.5t-226 73.5z" />
    <glyph glyph-name="r" unicode="r" horiz-adv-x="1077" 
d="M129 0v1044h381v-153q48 68 136.5 121t209.5 53q91 0 156 -14v-279q-72 14 -174 14q-157 0 -242.5 -71t-85.5 -197v-518h-381z" />
    <glyph glyph-name="s" unicode="s" horiz-adv-x="1286" 
d="M72 205l274 98q100 -82 289 -82q201 0 201 88q0 39 -48 61t-172 44q-262 39 -380.5 115t-118.5 214q0 152 149 239t389 87q199 0 335 -63t198 -156l-273 -96q-109 69 -245 69q-86 0 -130 -21.5t-44 -58.5q0 -33 43 -52.5t161 -39.5q100 -13 173 -29t140.5 -42t109.5 -61
t66.5 -86.5t24.5 -117.5q0 -163 -150.5 -251.5t-414.5 -88.5q-214 0 -363 63.5t-214 166.5z" />
    <glyph glyph-name="t" unicode="t" horiz-adv-x="1114" 
d="M750 -25q-130 0 -220.5 33t-142 98.5t-74 151.5t-22.5 205v303h-223v278h223v291h379v-291h331v-278h-331v-303q0 -106 33.5 -157.5t132.5 -51.5q33 0 64.5 4t47.5 8l15 4l84 -227q-4 -3 -12 -7.5t-35.5 -16t-59 -20.5t-83 -16.5t-107.5 -7.5z" />
    <glyph glyph-name="u" unicode="u" 
d="M1391 1044v-1044h-379v164q-51 -74 -150 -129t-241 -55q-133 0 -231 40t-156.5 114t-86.5 172.5t-28 223.5v514h379v-514q0 -272 247 -272q135 0 201 77.5t66 199.5v509h379z" />
    <glyph glyph-name="v" unicode="v" horiz-adv-x="1476" 
d="M520 0l-479 1044h412l284 -682l285 682h412l-480 -1044h-434z" />
    <glyph glyph-name="w" unicode="w" horiz-adv-x="2158" 
d="M442 0l-401 1044h410l247 -698l232 698h299l229 -698l250 698h408l-400 -1044h-422l-215 647l-217 -647h-420z" />
    <glyph glyph-name="x" unicode="x" horiz-adv-x="1449" 
d="M31 0l436 553l-412 491h416l254 -325l254 325h416l-410 -491l436 -553h-411l-285 360l-285 -360h-409z" />
    <glyph glyph-name="y" unicode="y" horiz-adv-x="1476" 
d="M219 -492v267q116 0 190 59t126 178l-494 1032h410l288 -708l283 708h414l-494 -1032q-136 -281 -303 -392.5t-420 -111.5z" />
    <glyph glyph-name="z" unicode="z" horiz-adv-x="1296" 
d="M82 0v213l614 553h-590v278h1100v-213l-614 -552h625v-279h-1135z" />
    <glyph glyph-name="braceleft" unicode="{" horiz-adv-x="1081" 
d="M98 641v152q74 11 125 30.5t92 56.5t60.5 99t19.5 151q0 228 147 356t441 128v-178q-122 0 -182 -81.5t-60 -230.5q0 -175 -63.5 -275t-165.5 -132q102 -32 165.5 -132t63.5 -276q0 -149 60 -230t182 -81v-178q-294 0 -441 127.5t-147 355.5q0 89 -19.5 151.5t-60.5 99.5
t-92 56.5t-125 30.5z" />
    <glyph glyph-name="bar" unicode="|" horiz-adv-x="673" 
d="M162 -492v2016h352v-2016h-352z" />
    <glyph glyph-name="braceright" unicode="}" horiz-adv-x="1081" 
d="M983 641q-73 -11 -123.5 -30.5t-91.5 -56.5t-60.5 -99.5t-19.5 -151.5q0 -228 -147.5 -355.5t-442.5 -127.5v178q122 0 182 81t60 230q0 176 64 276t167 132q-103 32 -167 131.5t-64 275.5q0 149 -60 230.5t-182 81.5v178q294 0 442 -128t148 -356q0 -89 19.5 -151
t60.5 -99t91.5 -56.5t123.5 -30.5v-152z" />
    <glyph glyph-name="asciitilde" unicode="~" horiz-adv-x="1296" 
d="M104 602q0 7 0.5 19.5t7 48t18 67.5t36 71.5t57.5 68t86.5 48t120.5 19.5q85 0 140 -27.5t128 -89.5q42 -36 60.5 -50t46.5 -25t63 -11q34 0 59 13t36.5 31.5t18.5 37.5t8 32l1 13h201q0 -7 -0.5 -19.5t-7 -48t-18 -67.5t-36 -71.5t-57.5 -68t-86.5 -48t-120.5 -19.5
q-47 0 -85 8.5t-72.5 28.5t-52 33t-50.5 41q-46 40 -64 54t-47.5 26t-66.5 12q-34 0 -59 -13t-36.5 -31.5t-18.5 -37.5t-8 -32l-1 -13h-201z" />
    <glyph glyph-name="uni00A0" unicode="&#xa0;" horiz-adv-x="667" 
 />
    <glyph glyph-name="exclamdown" unicode="&#xa1;" horiz-adv-x="700" 
d="M346 999q84 0 136.5 -51.5t52.5 -130.5q0 -80 -52.5 -131t-136.5 -51q-81 0 -132.5 51t-51.5 131q0 79 51.5 130.5t132.5 51.5zM508 514l35 -1006h-381l33 1006h313z" />
    <glyph glyph-name="cent" unicode="&#xa2;" horiz-adv-x="1382" 
d="M575 -244v234q-234 38 -363.5 179.5t-129.5 354.5q0 212 129.5 352.5t363.5 180.5v231h289v-225q177 -22 293.5 -107t165.5 -198l-305 -72q-29 40 -94.5 73.5t-161.5 33.5q-139 0 -219 -72.5t-80 -196.5q0 -125 80 -198.5t219 -73.5q96 0 161 34.5t95 75.5l305 -73
q-49 -114 -165 -199t-294 -108v-226h-289z" />
    <glyph glyph-name="sterling" unicode="&#xa3;" horiz-adv-x="1738" 
d="M227 0v289q6 4 15.5 11.5t34.5 32.5t44 51.5t34.5 66.5t15.5 79q0 19 -9 84h-264v217h207q-20 82 -20 160q0 75 25 145.5t81 136t137 114.5t202 78.5t267 29.5q125 0 230.5 -26t174 -65.5t120.5 -92t79 -100t41 -95.5l-364 -63q-15 24 -21.5 34t-31.5 35.5t-51 38t-73 24
t-104 11.5q-86 0 -149 -19t-98 -52t-51.5 -72.5t-16.5 -85.5q0 -55 18 -136h521v-217h-461q8 -54 8 -84q0 -42 -12.5 -80t-31 -62t-36.5 -42.5t-30 -26.5l-13 -8h965v-311h-1383z" />
    <glyph glyph-name="currency" unicode="&#xa4;" horiz-adv-x="1564" 
d="M780 166q-155 0 -297 84l-168 -162l-211 207l177 174q-76 132 -76 276q0 147 76 275l-177 174l211 207l168 -162q142 84 297 84q167 0 297 -86l172 164l211 -207l-176 -174q74 -128 74 -275q0 -148 -74 -276l178 -176l-217 -205l-168 162q-136 -84 -297 -84zM782 436
q131 0 217 87t86 222t-86 222.5t-217 87.5q-132 0 -218.5 -87.5t-86.5 -222.5t86.5 -222t218.5 -87z" />
    <glyph glyph-name="yen" unicode="&#xa5;" horiz-adv-x="1744" 
d="M346 201v159h328v82h-328v160h320l-639 873h448l397 -566l398 566h448l-639 -873h318v-160h-326v-82h326v-159h-326v-201h-397v201h-328z" />
    <glyph glyph-name="brokenbar" unicode="&#xa6;" horiz-adv-x="677" 
d="M162 647v877h354v-877h-354zM162 -492v877h354v-877h-354z" />
    <glyph glyph-name="section" unicode="&#xa7;" horiz-adv-x="1247" 
d="M188 -170l207 20q6 -54 66 -102.5t168 -48.5q239 0 239 199q0 106 -59 155.5t-215 85.5q-119 28 -200.5 63.5t-138 88t-82.5 124.5t-26 169q0 178 107 288q-80 94 -80 248q0 170 113.5 273.5t330.5 103.5q89 0 163 -20t123 -51.5t84.5 -73t52 -82.5t20.5 -82l-207 -21
q-5 56 -66 105t-170 49q-237 0 -237 -201q0 -106 59 -155.5t215 -85.5q239 -57 343 -156t104 -289q0 -180 -109 -289q82 -97 82 -247q0 -169 -114.5 -273t-331.5 -104q-109 0 -195.5 30t-136.5 77.5t-77 99t-32 102.5zM829 264q64 54 64 170q0 114 -59.5 166.5t-198.5 85.5
q-136 30 -217 68q-62 -56 -62 -170q0 -61 17.5 -104.5t55.5 -72.5t86.5 -47t121.5 -34q97 -19 192 -62z" />
    <glyph glyph-name="dieresis" unicode="&#xa8;" horiz-adv-x="1120" 
d="M291 1153q-85 0 -137 52.5t-52 135.5q0 82 52.5 134.5t136.5 52.5q83 0 134.5 -52.5t51.5 -134.5q0 -83 -51.5 -135.5t-134.5 -52.5zM831 1153q-84 0 -136 52t-52 136q0 82 52 134.5t136 52.5q83 0 135 -52.5t52 -134.5q0 -83 -52 -135.5t-135 -52.5z" />
    <glyph glyph-name="copyright" unicode="&#xa9;" horiz-adv-x="1759" 
d="M879 -20q-176 0 -323.5 59.5t-247 162t-155 241t-55.5 294.5t55.5 294.5t155 241.5t247 162.5t323.5 59.5t324 -59.5t248 -162.5t156 -241.5t56 -294.5t-56 -294.5t-156 -241t-248 -162t-324 -59.5zM879 160q176 0 310 75t205.5 205.5t71.5 296.5t-71.5 297t-205.5 206
t-310 75q-132 0 -242.5 -44t-186 -120.5t-117.5 -183t-42 -230.5q0 -252 161.5 -414.5t426.5 -162.5zM883 301q-195 0 -308.5 123.5t-113.5 312.5t113.5 313t308.5 124q73 0 135.5 -20.5t99.5 -49t63.5 -57.5t36.5 -49l11 -21l-164 -68q-2 4 -6.5 10.5t-21.5 24t-36 30.5
t-51 23.5t-67 10.5q-115 0 -174.5 -71.5t-59.5 -199.5t59.5 -199t174.5 -71q35 0 66.5 10t51.5 24.5t35.5 29t21.5 24.5l7 10l164 -67q-4 -8 -11 -21.5t-36 -47.5t-64.5 -59.5t-98.5 -47t-136 -21.5z" />
    <glyph glyph-name="ordfeminine" unicode="&#xaa;" horiz-adv-x="919" 
d="M360 725q-142 0 -222.5 61.5t-80.5 174.5q0 87 59 141t144.5 68t181 20t167.5 -3q26 -1 38 -1q0 58 -42 83t-152 25q-141 0 -281 -41l-109 146q64 33 173 59.5t225 26.5q216 0 309.5 -74.5t93.5 -222.5v-455h-215v101q-41 -52 -119.5 -80.5t-169.5 -28.5zM420 897
q102 0 163 41.5t64 112.5q-184 7 -258 -5q-116 -20 -117 -79q0 -70 148 -70z" />
    <glyph glyph-name="guillemotleft" unicode="&#xab;" horiz-adv-x="1771" 
d="M109 557v148l776 512v-353l-371 -233l371 -232v-354zM883 557v148l776 512v-353l-371 -233l371 -232v-354z" />
    <glyph glyph-name="logicalnot" unicode="&#xac;" horiz-adv-x="1384" 
d="M102 594v278h1182v-649h-313v371h-869z" />
    <glyph glyph-name="uni00AD" unicode="&#xad;" horiz-adv-x="1241" 
d="M102 516v279h1037v-279h-1037z" />
    <glyph glyph-name="registered" unicode="&#xae;" horiz-adv-x="1073" 
d="M537 586q-210 0 -339.5 130.5t-129.5 334.5t129 333t340 129t340 -129t129 -333t-129.5 -334.5t-339.5 -130.5zM537 700q165 0 255.5 97.5t90.5 253.5q0 155 -90.5 251.5t-255.5 96.5t-256 -96.5t-91 -251.5q0 -156 91 -253.5t256 -97.5zM371 811v485h192q172 0 172 -157
q0 -95 -78 -138l78 -190h-117l-69 170h-62v-170h-116zM487 1075h76q60 0 60 64q0 63 -60 63h-76v-127z" />
    <glyph glyph-name="macron" unicode="&#xaf;" horiz-adv-x="1089" 
d="M102 1292v183h885v-183h-885z" />
    <glyph glyph-name="degree" unicode="&#xb0;" horiz-adv-x="796" 
d="M68 1188q0 135 91.5 221t237.5 86t239 -86t93 -221q0 -134 -93 -219.5t-239 -85.5t-237.5 85.5t-91.5 219.5zM317 1130q37 -30 78 -30q34 0 70 22q39 24 43 58.5t-31 64.5q-33 33 -76 33q-30 0 -71 -23q-39 -25 -42.5 -59.5t29.5 -65.5z" />
    <glyph glyph-name="plusminus" unicode="&#xb1;" horiz-adv-x="1320" 
d="M506 442v365h-402v278h402v367h309v-367h406v-278h-406v-365h-309zM104 33v278h1117v-278h-1117z" />
    <glyph glyph-name="twosuperior" unicode="&#xb2;" horiz-adv-x="888" 
d="M80 1073v158l369 192q78 41 113.5 73.5t35.5 66.5q0 33 -35.5 54t-107.5 21q-41 0 -74.5 -9t-52.5 -22t-32 -26t-18 -22l-4 -9l-219 15q2 11 8 28.5t35 62t69 79t117.5 62.5t174.5 28q177 0 273.5 -68t96.5 -176q0 -89 -50 -142t-152 -102l-131 -71h338v-193h-754z" />
    <glyph glyph-name="threesuperior" unicode="&#xb3;" horiz-adv-x="903" 
d="M55 1292l221 13q1 -2 4.5 -6t17 -13.5t31 -17t50.5 -13.5t72 -6q165 0 165 70q0 37 -62.5 50t-217.5 13v134q142 0 202 14.5t60 50.5q0 57 -149 57q-56 0 -96 -13t-52 -25l-12 -13l-226 15q1 5 4 13t15 31t28.5 44t48 47t69.5 44.5t96 31t125 12.5q181 0 280.5 -61.5
t99.5 -155.5q0 -113 -116 -144q55 -9 95 -47t40 -112q0 -78 -53 -133.5t-140.5 -82t-199.5 -26.5q-60 0 -112 8t-89 21t-68 30.5t-51 36.5t-35.5 37.5t-23.5 36t-13 30.5t-7 21z" />
    <glyph glyph-name="acute" unicode="&#xb4;" horiz-adv-x="907" 
d="M102 1229l258 246h445l-340 -246h-363z" />
    <glyph glyph-name="uni00B5" unicode="&#xb5;" horiz-adv-x="1554" 
d="M129 -492v1534h381v-518q0 -118 65.5 -193t200.5 -75q137 0 202.5 75t65.5 193v518h381v-1042h-381v106q-34 -38 -62 -61t-82.5 -43t-123.5 -20q-97 0 -155 32.5t-111 91.5v-598h-381z" />
    <glyph glyph-name="paragraph" unicode="&#xb6;" horiz-adv-x="1503" 
d="M684 0v633h-133q-100 0 -179 34.5t-127 93.5t-73 133.5t-25 158.5q0 85 25 159.5t73 134t127 94t179 34.5h807v-193h-158v-1282h-209v1282h-98v-1282h-209z" />
    <glyph glyph-name="periodcentered" unicode="&#xb7;" horiz-adv-x="606" 
d="M305 551q-83 0 -134.5 51t-51.5 131t51.5 131t134.5 51t135 -51t52 -131t-52 -131t-135 -51z" />
    <glyph glyph-name="cedilla" unicode="&#xb8;" horiz-adv-x="776" 
d="M319 61h150l-63 -157q39 0 70.5 -2.5t70.5 -13t65 -28t44 -50t18 -76.5q0 -96 -88 -153.5t-232 -57.5q-71 0 -134 14.5t-90 28.5l-28 14l62 98q61 -18 170 -18q59 0 99 15.5t40 48.5q0 59 -154 59q-58 0 -122 -8z" />
    <glyph glyph-name="onesuperior" unicode="&#xb9;" horiz-adv-x="571" 
d="M285 1073v471l-117 -92l-150 129l306 234h192v-742h-231z" />
    <glyph glyph-name="ordmasculine" unicode="&#xba;" horiz-adv-x="995" 
d="M500 725q-199 0 -322 107.5t-123 271.5q0 165 122.5 273t322.5 108t320 -107.5t120 -273.5q0 -165 -120 -272t-320 -107zM500 915q110 0 168.5 52t58.5 137q0 86 -58 138t-169 52q-108 0 -170 -52.5t-62 -137.5q0 -84 62 -136.5t170 -52.5z" />
    <glyph glyph-name="guillemotright" unicode="&#xbb;" horiz-adv-x="1781" 
d="M129 45v354l371 232l-371 233v353l778 -512v-148zM911 45v354l371 232l-371 233v353l779 -512v-148z" />
    <glyph glyph-name="onequarter" unicode="&#xbc;" horiz-adv-x="1896" 
d="M285 0l1005 1475h248l-1003 -1475h-250zM414 735v469l-117 -92l-150 131l306 232h192v-740h-231zM905 145v152l428 444h273v-417h145v-179h-145v-143h-232v143h-469zM1145 324h229v239z" />
    <glyph glyph-name="onehalf" unicode="&#xbd;" horiz-adv-x="1959" 
d="M414 735v469l-117 -92l-150 131l306 232h192v-740h-231zM287 0l1003 1475h250l-1003 -1475h-250zM1061 2v158l369 192q80 41 114.5 72t34.5 65q0 33 -35.5 54.5t-107.5 21.5q-41 0 -74.5 -9t-52.5 -22t-32 -26t-17 -22l-5 -9l-219 15q2 11 8 28.5t35 62t69 79t117.5 62.5
t174.5 28q177 0 273.5 -68t96.5 -176q0 -89 -49.5 -141t-152.5 -101l-131 -73h338v-191h-754z" />
    <glyph glyph-name="threequarters" unicode="&#xbe;" horiz-adv-x="2111" 
d="M147 956l222 13q1 -2 4 -6t16.5 -13.5t31 -17t50.5 -13.5t72 -6q166 0 166 70q0 37 -63.5 50.5t-217.5 13.5v131q141 0 201.5 15.5t60.5 51.5q0 58 -149 58q-35 0 -64.5 -5.5t-46.5 -13t-28.5 -15t-15.5 -13.5l-5 -5l-225 15q1 5 4 13t15 31t28.5 44t47.5 47t69 44.5
t96 31t125 12.5q182 0 281.5 -61.5t99.5 -155.5q0 -57 -31.5 -93.5t-85.5 -50.5q56 -11 95.5 -49t39.5 -110q0 -78 -53 -133.5t-140.5 -82t-199.5 -26.5q-76 0 -139.5 12.5t-103.5 33t-71 45t-46.5 48.5t-25 44.5t-11.5 33.5zM485 0l1006 1475h252l-1008 -1475h-250z
M1120 145v152l426 444h273v-417h147v-179h-147v-143h-232v143h-467zM1358 324h229v239z" />
    <glyph glyph-name="questiondown" unicode="&#xbf;" horiz-adv-x="1548" 
d="M805 1020q82 0 134 -51.5t52 -130.5q0 -80 -51.5 -131.5t-134.5 -51.5q-81 0 -132.5 51.5t-51.5 131.5q0 79 51.5 130.5t132.5 51.5zM967 553v-342q-278 -11 -408.5 -70t-130.5 -174q0 -81 90 -130.5t254 -49.5q72 0 133.5 14t98.5 33t66 43.5t40.5 40.5t17.5 29l365 -45
q-16 -40 -43 -83.5t-86 -101.5t-134.5 -102.5t-196 -75.5t-263.5 -31q-177 0 -316 33.5t-226.5 92.5t-133 138.5t-45.5 174.5q0 97 46.5 174t130 128t190.5 82t237 44v178h314z" />
    <glyph glyph-name="Agrave" unicode="&#xc0;" horiz-adv-x="1939" 
d="M467 1829h446l258 -246h-362zM37 0l688 1475h489l689 -1475h-420l-137 305h-752l-137 -305h-420zM721 588h498l-250 555z" />
    <glyph glyph-name="Aacute" unicode="&#xc1;" horiz-adv-x="1939" 
d="M772 1583l258 246h445l-340 -246h-363zM37 0l688 1475h489l689 -1475h-420l-137 305h-752l-137 -305h-420zM721 588h498l-250 555z" />
    <glyph glyph-name="Acircumflex" unicode="&#xc2;" horiz-adv-x="1939" 
d="M477 1573l354 323h279l354 -323h-280l-213 143l-215 -143h-279zM37 0l688 1475h489l689 -1475h-420l-137 305h-752l-137 -305h-420zM721 588h498l-250 555z" />
    <glyph glyph-name="Atilde" unicode="&#xc3;" horiz-adv-x="1939" 
d="M707 1608h-170q0 6 1 15.5t7 37.5t15.5 53.5t30.5 56.5t49 53.5t73 38t100 15.5q61 0 107.5 -22t95.5 -62q22 -17 31.5 -24t34.5 -16t53 -9q26 0 46.5 8.5t30.5 21t16 25t8 20.5l1 9h170q0 -6 -1 -15.5t-6.5 -37.5t-15.5 -53.5t-30.5 -56.5t-48 -53.5t-72 -38
t-98.5 -15.5q-111 0 -201 77q-37 30 -62.5 43t-58.5 13q-27 0 -48 -8.5t-31.5 -21t-17 -25t-8.5 -21.5zM37 0l688 1475h489l689 -1475h-420l-137 305h-752l-137 -305h-420zM721 588h498l-250 555z" />
    <glyph glyph-name="Adieresis" unicode="&#xc4;" horiz-adv-x="1939" 
d="M705 1561q-83 0 -135 52.5t-52 135.5t52 134.5t135 51.5t134.5 -51.5t51.5 -134.5t-51.5 -135.5t-134.5 -52.5zM1247 1561q-84 0 -136 52t-52 136q0 83 51.5 134.5t136.5 51.5q83 0 135 -51.5t52 -134.5t-52 -135.5t-135 -52.5zM37 0l688 1475h489l691 -1475h-420
l-137 305h-754l-137 -305h-420zM721 588h500l-250 555z" />
    <glyph glyph-name="Aring" unicode="&#xc5;" horiz-adv-x="1939" 
d="M973 1532q-103 0 -165.5 61t-62.5 156t62.5 156t165.5 61q101 0 163 -61t62 -156t-62 -156t-163 -61zM973 1679q35 0 54.5 19.5t19.5 50.5q0 30 -20 49t-54 19q-35 0 -55.5 -19t-20.5 -49q0 -31 20.5 -50.5t55.5 -19.5zM37 0l688 1475h487l691 -1475h-420l-137 305h-752
l-137 -305h-420zM721 588h498l-248 555z" />
    <glyph glyph-name="AE" unicode="&#xc6;" horiz-adv-x="2957" 
d="M37 0l1237 1475h1546v-299h-969v-287h877v-287h-877v-303h981v-299h-1378v307h-680l-258 -307h-479zM1010 586h444v526z" />
    <glyph glyph-name="Ccedilla" unicode="&#xc7;" horiz-adv-x="1845" 
d="M711 -420l61 98q64 -18 170 -18q60 0 99.5 15.5t39.5 48.5q0 59 -153 59q-59 0 -123 -8l84 196q-235 18 -411.5 110t-278 261t-101.5 395q0 243 116 419t316.5 263.5t462.5 87.5q292 0 495.5 -114t280.5 -289l-372 -82q-18 25 -35 44.5t-52.5 47.5t-76 47t-103.5 33
t-137 14q-225 0 -361 -126.5t-136 -344.5t136 -344.5t361 -126.5q74 0 137 14t103.5 33t76.5 47.5t52.5 48t34.5 44.5l372 -80q-75 -169 -265 -282.5t-464 -123.5l-26 -63q39 0 70.5 -2.5t70.5 -13t65 -28t44 -50t18 -76.5q0 -96 -88 -153.5t-231 -57.5q-71 0 -134 14.5
t-91 28.5z" />
    <glyph glyph-name="Egrave" unicode="&#xc8;" horiz-adv-x="1652" 
d="M311 1829h445l260 -246h-363zM147 0v1475h1366v-299h-968v-279h876v-287h-876v-311h981v-299h-1379z" />
    <glyph glyph-name="Eacute" unicode="&#xc9;" horiz-adv-x="1652" 
d="M614 1583l256 246h447l-340 -246h-363zM147 0v1475h1366v-299h-968v-279h876v-287h-876v-311h981v-299h-1379z" />
    <glyph glyph-name="Ecircumflex" unicode="&#xca;" horiz-adv-x="1652" 
d="M322 1573l354 323h276l355 -323h-279l-213 143l-215 -143h-278zM147 0v1475h1366v-299h-968v-279h876v-287h-876v-311h981v-299h-1379z" />
    <glyph glyph-name="Edieresis" unicode="&#xcb;" horiz-adv-x="1652" 
d="M549 1561q-83 0 -136 52.5t-53 135.5t52.5 134.5t136.5 51.5q83 0 134.5 -51.5t51.5 -134.5t-51.5 -135.5t-134.5 -52.5zM1090 1561q-83 0 -136 52.5t-53 135.5t52.5 134.5t136.5 51.5q83 0 134.5 -51.5t51.5 -134.5t-51.5 -135.5t-134.5 -52.5zM147 0v1475h1366v-299
h-968v-279h876v-287h-876v-311h981v-299h-1379z" />
    <glyph glyph-name="Igrave" unicode="&#xcc;" horiz-adv-x="720" 
d="M-139 1829h444l260 -246h-362zM162 0v1475h397v-1475h-397z" />
    <glyph glyph-name="Iacute" unicode="&#xcd;" horiz-adv-x="720" 
d="M166 1583l256 246h446l-340 -246h-362zM162 0v1475h397v-1475h-397z" />
    <glyph glyph-name="Icircumflex" unicode="&#xce;" horiz-adv-x="720" 
d="M-129 1573l354 323h277l354 -323h-278l-213 145l-215 -145h-279zM162 0v1475h397v-1475h-397z" />
    <glyph glyph-name="Idieresis" unicode="&#xcf;" horiz-adv-x="720" 
d="M100 1561q-85 0 -137.5 52.5t-52.5 135.5t52.5 134.5t137.5 51.5q82 0 133.5 -51.5t51.5 -134.5t-51.5 -135.5t-133.5 -52.5zM641 1561q-85 0 -137.5 52.5t-52.5 135.5t52.5 134.5t137.5 51.5q82 0 134 -51.5t52 -134.5t-52 -135.5t-134 -52.5zM162 0v1475h397v-1475
h-397z" />
    <glyph glyph-name="Eth" unicode="&#xd0;" horiz-adv-x="1916" 
d="M250 0v643h-213v207h213v625h725q401 0 623.5 -196t222.5 -542q0 -345 -222.5 -541t-623.5 -196h-725zM649 299h326q215 0 330.5 118.5t115.5 319.5q0 203 -115.5 321t-330.5 118h-326v-326h297v-207h-297v-344z" />
    <glyph glyph-name="Ntilde" unicode="&#xd1;" horiz-adv-x="1863" 
d="M668 1608h-170q0 6 1 15.5t7 37.5t15.5 53.5t30.5 56.5t49 53.5t73 38t100 15.5q61 0 107.5 -22t95.5 -62q18 -16 30 -24t36.5 -16.5t52.5 -8.5q26 0 46.5 8.5t30.5 21t16 25t7 20.5l2 9h170q0 -6 -1 -15.5t-6.5 -37.5t-15.5 -53.5t-30.5 -56.5t-48 -53.5t-72 -38
t-98.5 -15.5q-108 0 -203 77q-66 56 -119 56q-27 0 -48 -8.5t-31.5 -21t-17 -25t-7.5 -21.5zM545 0h-398v1475h461l711 -1014v1014h397v-1475h-461l-710 1014v-1014z" />
    <glyph glyph-name="Ograve" unicode="&#xd2;" horiz-adv-x="1998" 
d="M496 1829h444l260 -246h-362zM999 -33q-138 0 -265.5 27t-244 87t-203 148t-137.5 218.5t-51 289.5t51 289.5t137.5 218.5t203 148t244 87t265.5 27q137 0 264.5 -27t244.5 -87t203.5 -148t138 -218.5t51.5 -289.5t-51.5 -289.5t-138 -218.5t-203.5 -148t-244.5 -87
t-264.5 -27zM999 266q227 0 365.5 131t138.5 340t-138.5 340t-365.5 131q-226 0 -364.5 -131.5t-138.5 -339.5t138.5 -339.5t364.5 -131.5z" />
    <glyph glyph-name="Oacute" unicode="&#xd3;" horiz-adv-x="1998" 
d="M799 1583l256 246h446l-342 -246h-360zM999 -33q-138 0 -265.5 27t-244 87t-203 148t-137.5 218.5t-51 289.5t51 289.5t137.5 218.5t203 148t244 87t265.5 27q137 0 264.5 -27t244.5 -87t203.5 -148t138 -218.5t51.5 -289.5t-51.5 -289.5t-138 -218.5t-203.5 -148
t-244.5 -87t-264.5 -27zM999 266q227 0 365.5 131t138.5 340t-138.5 340t-365.5 131q-226 0 -364.5 -131.5t-138.5 -339.5t138.5 -339.5t364.5 -131.5z" />
    <glyph glyph-name="Ocircumflex" unicode="&#xd4;" horiz-adv-x="1998" 
d="M506 1573l352 323h281l354 -323h-281l-213 143l-215 -143h-278zM999 -33q-138 0 -265.5 27t-244 87t-203 148t-137.5 218.5t-51 289.5t51 289.5t137.5 218.5t203 148t244 87t265.5 27q137 0 264.5 -27t244.5 -87t203.5 -148t138 -218.5t51.5 -289.5t-51.5 -289.5
t-138 -218.5t-203.5 -148t-244.5 -87t-264.5 -27zM999 266q227 0 365.5 131t138.5 340t-138.5 340t-365.5 131q-226 0 -364.5 -131.5t-138.5 -339.5t138.5 -339.5t364.5 -131.5z" />
    <glyph glyph-name="Otilde" unicode="&#xd5;" horiz-adv-x="1998" 
d="M735 1608h-170q0 6 1 15.5t7 37.5t16 53.5t31 56.5t49 53.5t73 38t100 15.5q60 0 106.5 -22.5t95.5 -61.5q18 -16 30 -24t36.5 -16.5t52.5 -8.5q42 0 67.5 21t30.5 42l5 21h170q0 -6 -1 -15.5t-7 -37.5t-15.5 -53.5t-30.5 -56.5t-48.5 -53.5t-72 -38t-98.5 -15.5
q-107 0 -202 77q-28 21 -40 29.5t-34.5 17.5t-44.5 9q-27 0 -48.5 -8.5t-32 -21t-17 -25t-8.5 -21.5zM999 -33q-138 0 -265.5 27t-244 87t-203 148t-137.5 218.5t-51 289.5t51 289.5t137.5 218.5t203 148t244 87t265.5 27q137 0 264.5 -27t244.5 -87t203.5 -148t138 -218.5
t51.5 -289.5t-51.5 -289.5t-138 -218.5t-203.5 -148t-244.5 -87t-264.5 -27zM999 266q227 0 365.5 131t138.5 340t-138.5 340t-365.5 131q-226 0 -364.5 -131.5t-138.5 -339.5t138.5 -339.5t364.5 -131.5z" />
    <glyph glyph-name="Odieresis" unicode="&#xd6;" horiz-adv-x="1998" 
d="M733 1561q-83 0 -135.5 52.5t-52.5 135.5t52.5 134.5t135.5 51.5t135 -51.5t52 -134.5t-52 -135.5t-135 -52.5zM1274 1561q-83 0 -136 52.5t-53 135.5t52.5 134.5t136.5 51.5q83 0 134.5 -51.5t51.5 -134.5t-51.5 -135.5t-134.5 -52.5zM999 -33q-138 0 -265.5 27t-244 87
t-203 148t-137.5 218.5t-51 289.5t51 289.5t137.5 218.5t203 148t244 87t265.5 27q137 0 264.5 -27t244.5 -87t203.5 -148t138 -218.5t51.5 -289.5t-51.5 -289.5t-138 -218.5t-203.5 -148t-244.5 -87t-264.5 -27zM999 266q227 0 365.5 131t138.5 340t-138.5 340t-365.5 131
q-226 0 -364.5 -131.5t-138.5 -339.5t138.5 -339.5t364.5 -131.5z" />
    <glyph glyph-name="multiply" unicode="&#xd7;" horiz-adv-x="1304" 
d="M330 178l-228 201l322 276l-322 275l230 200l321 -276l322 276l229 -200l-321 -275l321 -276l-229 -201l-324 279z" />
    <glyph glyph-name="Oslash" unicode="&#xd8;" horiz-adv-x="1998" 
d="M999 -33q-274 0 -483 101l-57 -68h-193l123 141q-291 209 -291 596q0 159 51 289.5t137.5 218.5t203 148t244 87t265.5 27q266 0 474 -96l55 64h190l-116 -138q299 -207 299 -600q0 -159 -51.5 -289.5t-138 -218.5t-203.5 -148t-244.5 -87t-264.5 -27zM618 412l635 741
q-107 55 -254 55q-226 0 -364.5 -131.5t-138.5 -339.5q0 -197 122 -325zM999 266q227 0 365.5 131t138.5 340q0 203 -131 334l-637 -745q117 -60 264 -60z" />
    <glyph glyph-name="Ugrave" unicode="&#xd9;" horiz-adv-x="1816" 
d="M406 1829h444l260 -246h-362zM147 1475h398v-744q0 -465 364 -465q365 0 365 465v744h397v-744q0 -764 -762 -764t-762 764v744z" />
    <glyph glyph-name="Uacute" unicode="&#xda;" horiz-adv-x="1816" 
d="M711 1583l256 246h446l-340 -246h-362zM147 1475h398v-744q0 -465 364 -465q365 0 365 465v744h397v-744q0 -764 -762 -764t-762 764v744z" />
    <glyph glyph-name="Ucircumflex" unicode="&#xdb;" horiz-adv-x="1816" 
d="M416 1573l354 323h279l354 -323h-281l-213 145l-215 -145h-278zM147 1475h398v-744q0 -465 364 -465q365 0 365 465v744h397v-744q0 -764 -762 -764t-762 764v744z" />
    <glyph glyph-name="Udieresis" unicode="&#xdc;" horiz-adv-x="1816" 
d="M643 1561q-83 0 -135.5 52.5t-52.5 135.5t52.5 134.5t135.5 51.5t134.5 -51.5t51.5 -134.5t-51.5 -135.5t-134.5 -52.5zM1186 1561q-85 0 -138 52.5t-53 135.5t53 134.5t138 51.5q82 0 133 -51.5t51 -134.5t-51 -135.5t-133 -52.5zM147 1475h398v-744q0 -465 366 -465
q363 0 363 465v744h397v-744q0 -764 -760 -764q-764 0 -764 764v744z" />
    <glyph glyph-name="Yacute" unicode="&#xdd;" horiz-adv-x="1744" 
d="M684 1583l256 246h446l-342 -246h-360zM674 0v592l-647 883h448l397 -566l398 566h448l-647 -883v-592h-397z" />
    <glyph glyph-name="Thorn" unicode="&#xde;" horiz-adv-x="1705" 
d="M147 0v1475h398v-215h438q299 0 463 -137.5t164 -372.5q0 -234 -164.5 -372t-462.5 -138h-438v-240h-398zM545 537h387q145 0 211.5 57t66.5 156q0 98 -66.5 154.5t-211.5 56.5h-387v-424z" />
    <glyph glyph-name="germandbls" unicode="&#xdf;" horiz-adv-x="1759" 
d="M147 0v868q0 142 36.5 250t101.5 179t163 115.5t212.5 63.5t257.5 19q324 0 501.5 -116.5t177.5 -293.5q0 -115 -76 -201.5t-180 -109.5q142 -28 231 -123.5t89 -244.5q0 -195 -150.5 -310.5t-412.5 -115.5q-116 0 -212 14t-134 28l-37 13v272q106 -35 260 -35
q144 0 216.5 48t72.5 131q0 176 -355 176h-96v235h94q149 0 220 46.5t71 123.5q0 79 -77 124.5t-234 45.5q-80 0 -139 -15t-107.5 -51t-73 -103t-24.5 -165v-868h-396z" />
    <glyph glyph-name="agrave" unicode="&#xe0;" horiz-adv-x="1404" 
d="M197 1440h446l258 -246h-362zM911 0v129q-51 -72 -156 -110.5t-233 -38.5q-212 0 -326 81t-114 234q0 71 29.5 126.5t80 89.5t118 59t143.5 34.5t156.5 16.5t157 5t144.5 -1q-2 88 -58 129t-198 41q-181 0 -387 -68l-162 207q93 49 244 90t346 41q144 0 249.5 -24
t171.5 -65t105.5 -106t54.5 -136.5t15 -166.5v-567h-381zM911 459q-43 2 -93.5 1t-100.5 -3t-96.5 -12t-81.5 -25t-56.5 -41.5t-21.5 -61.5q0 -53 50 -82.5t148 -29.5q122 0 187 50t65 130v74z" />
    <glyph glyph-name="aacute" unicode="&#xe1;" horiz-adv-x="1404" 
d="M502 1194l258 246h446l-342 -246h-362zM911 0v129q-51 -72 -156 -110.5t-233 -38.5q-212 0 -326 81t-114 234q0 71 29.5 126.5t80 89.5t118 59t143.5 34.5t156.5 16.5t157 5t144.5 -1q-2 88 -58 129t-198 41q-181 0 -387 -68l-162 207q93 49 244 90t346 41
q144 0 249.5 -24t171.5 -65t105.5 -106t54.5 -136.5t15 -166.5v-567h-381zM911 459q-43 2 -93.5 1t-100.5 -3t-96.5 -12t-81.5 -25t-56.5 -41.5t-21.5 -61.5q0 -53 50 -82.5t148 -29.5q122 0 187 50t65 130v74z" />
    <glyph glyph-name="acircumflex" unicode="&#xe2;" horiz-adv-x="1404" 
d="M207 1184l354 323h279l354 -323h-279l-213 145l-217 -145h-278zM911 0v129q-51 -72 -156 -110.5t-233 -38.5q-212 0 -326 81t-114 234q0 71 29.5 126.5t80 89.5t118 59t143.5 34.5t156.5 16.5t157 5t144.5 -1q-2 88 -58 129t-198 41q-181 0 -387 -68l-162 207
q93 49 244 90t346 41q144 0 249.5 -24t171.5 -65t105.5 -106t54.5 -136.5t15 -166.5v-567h-381zM911 459q-43 2 -93.5 1t-100.5 -3t-96.5 -12t-81.5 -25t-56.5 -41.5t-21.5 -61.5q0 -53 50 -82.5t148 -29.5q122 0 187 50t65 130v74z" />
    <glyph glyph-name="atilde" unicode="&#xe3;" horiz-adv-x="1404" 
d="M436 1219h-170q0 6 1 15.5t7 37.5t16 53.5t31 56.5t49 53.5t73 38t100 15.5q61 0 109 -22.5t96 -61.5q19 -16 30 -24t35 -16.5t51 -8.5t47.5 8.5t30.5 21t16 25t8 21.5l1 8h170q0 -6 -1 -15.5t-6.5 -37.5t-15.5 -54t-30.5 -57t-48 -53.5t-72 -38t-99.5 -15.5
q-109 0 -200 78q-37 30 -62.5 43t-58.5 13q-27 0 -48.5 -8.5t-32 -21t-17 -25t-7.5 -20.5zM911 0v129q-51 -72 -156 -110.5t-233 -38.5q-212 0 -326 81t-114 234q0 71 29.5 126.5t80 89.5t118 59t143.5 34.5t156.5 16.5t157 5t144.5 -1q-2 88 -58 129t-198 41
q-181 0 -387 -68l-162 207q93 49 244 90t346 41q144 0 249.5 -24t171.5 -65t105.5 -106t54.5 -136.5t15 -166.5v-567h-381zM911 459q-43 2 -93.5 1t-100.5 -3t-96.5 -12t-81.5 -25t-56.5 -41.5t-21.5 -61.5q0 -53 50 -82.5t148 -29.5q122 0 187 50t65 130v74z" />
    <glyph glyph-name="adieresis" unicode="&#xe4;" horiz-adv-x="1404" 
d="M434 1171q-83 0 -135.5 53t-52.5 136t52.5 134.5t135.5 51.5t135 -51.5t52 -134.5t-52 -136t-135 -53zM975 1171q-83 0 -135 53t-52 136t52 134.5t135 51.5t135.5 -51.5t52.5 -134.5t-52.5 -136t-135.5 -53zM911 0v129q-51 -72 -156 -110.5t-233 -38.5q-211 0 -325.5 81
t-114.5 234q0 71 29.5 126.5t80 89.5t118 59t143.5 34.5t156.5 16.5t157 5t144.5 -1q-2 88 -58 129t-198 41q-177 0 -387 -68l-162 207q93 50 244.5 90.5t347.5 40.5q120 0 213 -16t157.5 -47.5t109 -73.5t69 -100t35 -120.5t10.5 -140.5v-567h-381zM911 459q-43 2 -93.5 1
t-100.5 -3t-96.5 -12t-81.5 -25t-56.5 -41.5t-21.5 -61.5q0 -53 50 -82.5t148 -29.5q122 0 187 50t65 130v74z" />
    <glyph glyph-name="aring" unicode="&#xe5;" horiz-adv-x="1404" 
d="M700 1143q-103 0 -165 60.5t-62 154.5q0 95 62 156t165 61t165.5 -61t62.5 -156q0 -94 -62.5 -154.5t-165.5 -60.5zM700 1290q36 0 56 19t20 49q0 31 -20 50t-56 19q-35 0 -54 -19t-19 -50q0 -30 19.5 -49t53.5 -19zM911 0v129q-51 -72 -156 -110.5t-233 -38.5
q-212 0 -326 81t-114 234q0 71 29.5 126.5t80 89.5t117.5 59t143 34.5t156.5 16.5t157 5t145.5 -1q-2 88 -58 129t-198 41q-181 0 -387 -68l-162 207q93 49 244 90t346 41q143 0 248.5 -24t171.5 -65t106 -106t55 -136.5t15 -166.5v-567h-381zM911 459q-43 2 -93.5 1
t-100.5 -3t-96.5 -12t-81.5 -25t-56.5 -41.5t-21.5 -61.5q0 -53 49.5 -82.5t146.5 -29.5q123 0 188.5 50t65.5 130v74z" />
    <glyph glyph-name="ae" unicode="&#xe6;" horiz-adv-x="2295" 
d="M268 727l-162 207q93 49 244 90t346 41q309 0 443 -121q166 125 432 125q142 0 264.5 -42.5t212.5 -122t135 -203.5t29 -275h-920q12 -84 84.5 -140.5t225.5 -56.5q177 0 301 84l272 -104q-36 -43 -85.5 -80.5t-121.5 -74t-172 -58t-215 -21.5q-304 0 -481 150
q-88 -69 -214.5 -107t-262.5 -38q-262 0 -401.5 81.5t-139.5 235.5q0 70 29.5 125t80 89t117.5 59t143 34.5t156.5 16.5t157 5t145.5 -1q-2 88 -58 129t-198 41q-181 0 -387 -68zM1292 600h551q-3 92 -71.5 151.5t-200.5 59.5q-130 0 -199 -59t-80 -152zM911 459
q-43 2 -93.5 1t-100.5 -3t-96.5 -12t-81.5 -25t-56.5 -41.5t-21.5 -61.5q0 -52 50 -81t148 -29q116 0 184 51t68 129v72z" />
    <glyph glyph-name="ccedilla" unicode="&#xe7;" horiz-adv-x="1382" 
d="M82 524q0 249 178 398t488 149q117 0 216.5 -26.5t168.5 -72t116 -99t74 -115.5l-305 -72q-29 40 -94.5 73.5t-161.5 33.5q-139 0 -219 -72.5t-80 -196.5q0 -125 80 -197.5t219 -72.5q96 0 161 34t95 74l305 -73q-53 -124 -186 -213t-338 -99l-31 -73q39 0 70.5 -2.5
t70.5 -13t65 -28t44 -50t18 -76.5q0 -96 -87.5 -153.5t-229.5 -57.5q-72 0 -135.5 14.5t-91.5 28.5l-27 14l61 98q64 -18 170 -18q60 0 100 15.5t40 48.5q0 59 -154 59q-59 0 -123 -8l88 205q-266 25 -415.5 170.5t-149.5 373.5z" />
    <glyph glyph-name="egrave" unicode="&#xe8;" horiz-adv-x="1468" 
d="M236 1440h446l258 -246h-362zM82 522q0 248 179 397.5t480 149.5q114 0 215.5 -26.5t185 -81t142 -130t85 -180t13.5 -225.5h-917q5 -39 22.5 -72t51.5 -62t93.5 -46t139.5 -17q172 0 303 84l271 -104q-36 -43 -85 -80.5t-121 -74t-172.5 -58t-215.5 -21.5
q-315 0 -492.5 148.5t-177.5 398.5zM465 600h551q-5 92 -74 151.5t-201 59.5q-128 0 -196.5 -59t-79.5 -152z" />
    <glyph glyph-name="eacute" unicode="&#xe9;" horiz-adv-x="1468" 
d="M539 1194l258 246h444l-340 -246h-362zM82 522q0 248 179 397.5t480 149.5q114 0 215.5 -26.5t185 -81t142 -130t85 -180t13.5 -225.5h-917q5 -39 22.5 -72t51.5 -62t93.5 -46t139.5 -17q172 0 303 84l271 -104q-36 -43 -85 -80.5t-121 -74t-172.5 -58t-215.5 -21.5
q-315 0 -492.5 148.5t-177.5 398.5zM465 600h551q-5 92 -74 151.5t-201 59.5q-128 0 -196.5 -59t-79.5 -152z" />
    <glyph glyph-name="ecircumflex" unicode="&#xea;" horiz-adv-x="1468" 
d="M246 1184l354 323h279l354 -323h-281l-213 143l-215 -143h-278zM82 522q0 248 179 397.5t480 149.5q114 0 215.5 -26.5t185 -81t142 -130t85 -180t13.5 -225.5h-917q5 -39 22.5 -72t51.5 -62t93.5 -46t139.5 -17q172 0 303 84l271 -104q-36 -43 -85 -80.5t-121 -74
t-172.5 -58t-215.5 -21.5q-315 0 -492.5 148.5t-177.5 398.5zM465 600h551q-5 92 -74 151.5t-201 59.5q-128 0 -196.5 -59t-79.5 -152z" />
    <glyph glyph-name="edieresis" unicode="&#xeb;" horiz-adv-x="1468" 
d="M473 1171q-84 0 -136 52.5t-52 136.5q0 83 51.5 134.5t136.5 51.5q83 0 134.5 -51.5t51.5 -134.5q0 -84 -51.5 -136.5t-134.5 -52.5zM1014 1171q-83 0 -135 53t-52 136t52 134.5t135 51.5t134.5 -51.5t51.5 -134.5q0 -84 -51.5 -136.5t-134.5 -52.5zM82 522
q0 248 179 397.5t480 149.5q143 0 265.5 -43t212.5 -122.5t135 -203t30 -274.5h-919q5 -39 22.5 -72t51.5 -62t93.5 -46t139.5 -17q172 0 303 84l273 -104q-37 -43 -86.5 -80.5t-121.5 -74t-172.5 -58t-215.5 -21.5q-315 0 -492.5 148.5t-177.5 398.5zM465 600h551
q-5 92 -74 151.5t-201 59.5q-128 0 -196.5 -59t-79.5 -152z" />
    <glyph glyph-name="igrave" unicode="&#xec;" horiz-adv-x="657" 
d="M-176 1440h446l258 -246h-362zM139 0v1044h379v-1044h-379z" />
    <glyph glyph-name="iacute" unicode="&#xed;" horiz-adv-x="657" 
d="M129 1194l258 246h444l-339 -246h-363zM139 0v1044h379v-1044h-379z" />
    <glyph glyph-name="icircumflex" unicode="&#xee;" horiz-adv-x="657" 
d="M-166 1184l354 323h279l354 -323h-280l-213 145l-215 -145h-279zM139 0v1044h379v-1044h-379z" />
    <glyph glyph-name="idieresis" unicode="&#xef;" horiz-adv-x="657" 
d="M63 1171q-85 0 -137.5 52.5t-52.5 136.5q0 83 52.5 134.5t137.5 51.5q82 0 133.5 -51.5t51.5 -134.5t-51.5 -136t-133.5 -53zM604 1171q-84 0 -136 52.5t-52 136.5q0 83 51.5 134.5t136.5 51.5q82 0 134.5 -51.5t52.5 -134.5t-52.5 -136t-134.5 -53zM139 0v1044h379
v-1044h-379z" />
    <glyph glyph-name="eth" unicode="&#xf0;" horiz-adv-x="1546" 
d="M567 1141l-86 110l119 60q-144 39 -313 45l125 237q306 -12 526 -114l188 94l88 -111l-133 -65q186 -126 284.5 -321t98.5 -439q0 -320 -185 -488.5t-509 -168.5q-319 0 -503.5 149.5t-184.5 392.5q0 242 155.5 392.5t419.5 150.5q275 0 422 -172q-60 226 -305 350z
M774 258q145 0 228 73.5t83 190.5t-83 190.5t-228 73.5q-143 0 -227 -74t-84 -190t84 -190t227 -74z" />
    <glyph glyph-name="ntilde" unicode="&#xf1;" horiz-adv-x="1515" 
d="M514 1219h-170q0 6 1 15.5t7 37.5t16 53.5t31 56.5t49 53.5t73 38t100 15.5q61 0 107 -22t95 -62q18 -16 30 -24t36.5 -16.5t52.5 -8.5q26 0 46.5 8.5t30.5 21t16 25t7 21.5l2 8h170q0 -6 -1 -15.5t-6.5 -37.5t-15.5 -54t-30.5 -57t-48 -53.5t-72 -38t-98.5 -15.5
q-107 0 -203 78q-34 29 -60 42.5t-58 13.5q-27 0 -48.5 -8.5t-32 -21t-17 -25t-7.5 -20.5zM129 0v1044h379v-161q51 72 150.5 127t240.5 55q134 0 232 -40t156.5 -114.5t86 -173t27.5 -223.5v-514h-379v514q0 124 -58 198t-190 74q-135 0 -200.5 -77t-65.5 -199v-510h-379z
" />
    <glyph glyph-name="ograve" unicode="&#xf2;" horiz-adv-x="1546" 
d="M270 1442h447l258 -246h-363zM774 -25q-315 0 -503.5 150.5t-188.5 398.5t188 397.5t504 149.5q317 0 504.5 -149.5t187.5 -397.5q0 -249 -187.5 -399t-504.5 -150zM774 254q146 0 229.5 75t83.5 195q0 119 -83.5 194t-229.5 75t-229.5 -75t-83.5 -194q0 -120 83.5 -195
t229.5 -75z" />
    <glyph glyph-name="oacute" unicode="&#xf3;" horiz-adv-x="1546" 
d="M573 1196l256 246h447l-342 -246h-361zM774 -25q-315 0 -503.5 150.5t-188.5 398.5t188 397.5t504 149.5q317 0 504.5 -149.5t187.5 -397.5q0 -249 -187.5 -399t-504.5 -150zM774 254q146 0 229.5 75t83.5 195q0 119 -83.5 194t-229.5 75t-229.5 -75t-83.5 -194
q0 -120 83.5 -195t229.5 -75z" />
    <glyph glyph-name="ocircumflex" unicode="&#xf4;" horiz-adv-x="1546" 
d="M281 1186l352 323h280l355 -323h-281l-213 143l-215 -143h-278zM774 -25q-315 0 -503.5 150.5t-188.5 398.5t188 397.5t504 149.5q317 0 504.5 -149.5t187.5 -397.5q0 -249 -187.5 -399t-504.5 -150zM774 254q146 0 229.5 75t83.5 195q0 119 -83.5 194t-229.5 75
t-229.5 -75t-83.5 -194q0 -120 83.5 -195t229.5 -75z" />
    <glyph glyph-name="otilde" unicode="&#xf5;" horiz-adv-x="1546" 
d="M510 1219h-170q0 6 1 15.5t7 37.5t15.5 53.5t30.5 56.5t48.5 53.5t72 38t99.5 15.5q61 0 109 -22.5t96 -61.5q18 -16 30 -24t36.5 -16.5t52.5 -8.5q26 0 46.5 8.5t30.5 21t16 25t7 21.5l2 8h170q0 -6 -1 -15.5t-6.5 -37.5t-15 -54t-30 -57t-48 -53.5t-72 -38t-99.5 -15.5
q-107 0 -203 78q-37 30 -62.5 43t-58.5 13q-27 0 -47.5 -8.5t-30.5 -21t-16.5 -25t-7.5 -20.5zM774 -25q-315 0 -503.5 150.5t-188.5 398.5t188 397.5t504 149.5q317 0 504.5 -149.5t187.5 -397.5q0 -249 -187.5 -399t-504.5 -150zM774 254q146 0 229.5 75t83.5 195
q0 119 -83.5 194t-229.5 75t-229.5 -75t-83.5 -194q0 -120 83.5 -195t229.5 -75z" />
    <glyph glyph-name="odieresis" unicode="&#xf6;" horiz-adv-x="1546" 
d="M508 1171q-84 0 -136.5 52.5t-52.5 136.5q0 83 52 134.5t137 51.5q83 0 134.5 -51.5t51.5 -134.5q0 -84 -51.5 -136.5t-134.5 -52.5zM1049 1171q-83 0 -135 53t-52 136t52 134.5t135 51.5t134.5 -51.5t51.5 -134.5q0 -84 -51.5 -136.5t-134.5 -52.5zM774 -25
q-315 0 -503.5 150.5t-188.5 398.5t188 397.5t504 149.5q317 0 504.5 -149.5t187.5 -397.5q0 -249 -187.5 -399t-504.5 -150zM774 254q146 0 229.5 75t83.5 195q0 119 -83.5 194t-229.5 75t-229.5 -75t-83.5 -194q0 -120 83.5 -195t229.5 -75z" />
    <glyph glyph-name="divide" unicode="&#xf7;" horiz-adv-x="1236" 
d="M618 918q-83 0 -134.5 51t-51.5 131t51.5 131t134.5 51t135 -51t52 -131t-52 -131t-135 -51zM104 569v279h1033v-279h-1033zM618 145q-83 0 -134.5 51.5t-51.5 131.5t51.5 131t134.5 51t135 -51t52 -131t-52 -131.5t-135 -51.5z" />
    <glyph glyph-name="oslash" unicode="&#xf8;" horiz-adv-x="1546" 
d="M774 -25q-239 0 -407 88l-50 -45h-172l119 111q-182 149 -182 395q0 248 188 397.5t504 149.5q244 0 410 -90l47 45h174l-119 -111q180 -150 180 -391q0 -249 -187.5 -399t-504.5 -150zM514 360l428 398q-68 35 -168 35q-146 0 -229.5 -75t-83.5 -194q0 -96 53 -164z
M774 254q146 0 229.5 75t83.5 195q0 90 -51 160l-428 -397q74 -33 166 -33z" />
    <glyph glyph-name="ugrave" unicode="&#xf9;" 
d="M242 1440h446l258 -246h-362zM1391 1044v-1044h-379v164q-51 -74 -150 -129t-241 -55q-133 0 -231 40t-156.5 114t-86.5 172.5t-28 223.5v514h379v-514q0 -272 247 -272q135 0 201 77.5t66 199.5v509h379z" />
    <glyph glyph-name="uacute" unicode="&#xfa;" 
d="M547 1194l258 246h444l-340 -246h-362zM1391 1044v-1044h-379v164q-51 -74 -150 -129t-241 -55q-133 0 -231 40t-156.5 114t-86.5 172.5t-28 223.5v514h379v-514q0 -272 247 -272q135 0 201 77.5t66 199.5v509h379z" />
    <glyph glyph-name="ucircumflex" unicode="&#xfb;" 
d="M252 1184l354 323h279l354 -323h-281l-213 145l-215 -145h-278zM1391 1044v-1044h-379v164q-51 -74 -150 -129t-241 -55q-133 0 -231 40t-156.5 114t-86.5 172.5t-28 223.5v514h379v-514q0 -272 247 -272q135 0 201 77.5t66 199.5v509h379z" />
    <glyph glyph-name="udieresis" unicode="&#xfc;" 
d="M479 1171q-83 0 -135.5 53t-52.5 136t52.5 134.5t135.5 51.5t135 -51.5t52 -134.5t-52 -136t-135 -53zM1020 1171q-83 0 -134.5 52.5t-51.5 136.5q0 83 51.5 134.5t134.5 51.5t134.5 -51.5t51.5 -134.5q0 -84 -51.5 -136.5t-134.5 -52.5zM1391 1044v-1044h-379v164
q-48 -73 -148 -128.5t-241 -55.5q-134 0 -232.5 40t-157 114.5t-86.5 172.5t-28 223v514h379v-514q0 -123 58 -197.5t189 -74.5q135 0 201 77.5t66 199.5v509h379z" />
    <glyph glyph-name="yacute" unicode="&#xfd;" horiz-adv-x="1476" 
d="M537 1194l258 246h444l-340 -246h-362zM219 -492v267q116 0 190 59t126 178l-494 1032h410l288 -708l283 708h414l-494 -1032q-136 -281 -303 -392.5t-420 -111.5z" />
    <glyph glyph-name="thorn" unicode="&#xfe;" horiz-adv-x="1589" 
d="M936 -20q-279 0 -428 198v-670h-379v2048h379v-690q147 199 428 199q264 0 418.5 -150t154.5 -393q0 -242 -154.5 -392t-418.5 -150zM819 258q143 0 227 74t84 190t-84 190t-227 74q-145 0 -228 -73.5t-83 -190.5t83 -190.5t228 -73.5z" />
    <glyph glyph-name="ydieresis" unicode="&#xff;" horiz-adv-x="1476" 
d="M471 1171q-84 0 -136 52.5t-52 136.5q0 83 51.5 134.5t136.5 51.5q83 0 134.5 -51.5t51.5 -134.5q0 -84 -51.5 -136.5t-134.5 -52.5zM1012 1171q-83 0 -135 53t-52 136t52 134.5t135 51.5t134.5 -51.5t51.5 -134.5q0 -84 -51.5 -136.5t-134.5 -52.5zM217 -492v267
q118 0 192 59t126 178l-494 1032h410l288 -708l283 708h414l-494 -1032q-69 -144 -144.5 -241t-165 -155.5t-189 -83t-226.5 -24.5z" />
    <glyph glyph-name="Amacron" unicode="&#x100;" horiz-adv-x="1939" 
d="M530 1606v182h885v-182h-885zM37 0l688 1475h489l689 -1475h-420l-137 305h-752l-137 -305h-420zM721 588h498l-250 555z" />
    <glyph glyph-name="amacron" unicode="&#x101;" horiz-adv-x="1404" 
d="M260 1217v182h887v-182h-887zM911 0v129q-51 -72 -156 -110.5t-233 -38.5q-212 0 -326 81t-114 234q0 71 29.5 126.5t80 89.5t118 59t143.5 34.5t156.5 16.5t157 5t144.5 -1q-2 88 -58 129t-198 41q-181 0 -387 -68l-162 207q93 49 244 90t346 41q144 0 249.5 -24
t171.5 -65t105.5 -106t54.5 -136.5t15 -166.5v-567h-381zM911 459q-43 2 -93.5 1t-100.5 -3t-96.5 -12t-81.5 -25t-56.5 -41.5t-21.5 -61.5q0 -53 50 -82.5t148 -29.5q122 0 187 50t65 130v74z" />
    <glyph glyph-name="Abreve" unicode="&#x102;" horiz-adv-x="1939" 
d="M520 1833h166q2 -4 7.5 -11t28 -24.5t51.5 -31t82.5 -24.5t117.5 -11t116.5 10.5t83 25.5t51.5 30t28 25l8 11h163q-1 -6 -3.5 -15.5t-15.5 -38t-31 -54t-54 -57t-80.5 -54t-114 -38t-151.5 -15.5t-151.5 15t-115 39t-81 53t-54.5 58t-31.5 53t-15.5 39zM37 0l688 1475
h489l689 -1475h-420l-137 305h-752l-137 -305h-420zM721 588h498l-250 557z" />
    <glyph glyph-name="abreve" unicode="&#x103;" horiz-adv-x="1404" 
d="M250 1444h166q2 -4 7.5 -11t27.5 -25t51 -31.5t82.5 -24.5t117.5 -11t116.5 10.5t83 25.5t51.5 30.5t29 26.5l7 10h166q-1 -6 -3.5 -15.5t-16 -38t-32 -54.5t-54.5 -57.5t-81 -54t-114.5 -38t-151.5 -15.5t-151.5 15t-114.5 39t-80.5 53.5t-54.5 58.5t-31.5 53t-15.5 39z
M911 0v129q-51 -72 -156 -110.5t-233 -38.5q-212 0 -326 81t-114 234q0 71 29.5 126.5t80 89.5t118 59t143.5 34.5t156.5 16.5t157 5t144.5 -1q-2 88 -58 129t-198 41q-181 0 -387 -68l-162 207q93 49 244 90t346 41q144 0 249.5 -24t171.5 -65t105.5 -106t54.5 -136.5
t15 -166.5v-567h-381zM911 459q-43 2 -93.5 1t-100.5 -3t-96.5 -12t-81.5 -25t-56.5 -41.5t-21.5 -61.5q0 -53 50 -82.5t148 -29.5q122 0 187 50t65 130v74z" />
    <glyph glyph-name="Aogonek" unicode="&#x104;" horiz-adv-x="1939" 
d="M35 0l688 1475h489l691 -1475q-14 -1 -42 -9t-68 -24t-68.5 -45.5t-28.5 -66.5q0 -32 17.5 -52.5t49.5 -29t57.5 -11t59.5 -2.5v-178q-42 -2 -82 0t-86.5 9t-84.5 21.5t-70.5 36.5t-51 57t-18.5 79q0 85 70.5 142t173.5 73h-248l-137 305h-754l-137 -305h-420zM719 588
h500l-250 555z" />
    <glyph glyph-name="aogonek" unicode="&#x105;" horiz-adv-x="1404" 
d="M911 0v129q-51 -72 -156 -110.5t-233 -38.5q-212 0 -326 81t-114 234q0 71 29.5 126.5t80 89.5t117.5 59t143 34.5t156.5 16.5t157 5t145.5 -1q-2 88 -58 129t-198 41q-181 0 -387 -68l-162 207q93 49 244 90t346 41q143 0 248.5 -24t171.5 -65t106 -106t55 -136.5
t15 -166.5v-567h-2q-13 -1 -40.5 -9t-67.5 -24t-68.5 -45.5t-28.5 -66.5q0 -32 17.5 -52.5t50 -29t58 -11t59.5 -2.5v-178q-51 -2 -100 1t-104 15.5t-96 34t-68 60.5t-28 92q0 85 71 142t175 73h-209zM911 459q-43 2 -93.5 1t-100.5 -3t-96.5 -12t-81.5 -25t-56.5 -41.5
t-21.5 -61.5q0 -53 50 -82.5t148 -29.5q120 0 186 50t66 130v74z" />
    <glyph glyph-name="Cacute" unicode="&#x106;" horiz-adv-x="1845" 
d="M770 1583l256 246h447l-343 -246h-360zM993 -33q-262 0 -462.5 87.5t-316.5 263.5t-116 419t116 419t316.5 263.5t462.5 87.5q292 0 494.5 -114t279.5 -289l-372 -82q-127 186 -402 186q-225 0 -361 -126.5t-136 -344.5t136 -344.5t361 -126.5q274 0 402 187l372 -80
q-77 -176 -279.5 -291t-494.5 -115z" />
    <glyph glyph-name="cacute" unicode="&#x107;" horiz-adv-x="1382" 
d="M510 1196l258 246h444l-340 -246h-362zM82 524q0 249 178 398t488 149q117 0 216.5 -26.5t168.5 -72t116 -99t74 -115.5l-305 -72q-29 40 -94.5 73.5t-161.5 33.5q-139 0 -219 -72.5t-80 -196.5q0 -125 80 -197.5t219 -72.5q96 0 161 34t95 74l305 -73
q-27 -62 -74 -115.5t-116 -99.5t-168.5 -72.5t-216.5 -26.5q-310 0 -488 149.5t-178 399.5z" />
    <glyph glyph-name="Ccircumflex" unicode="&#x108;" horiz-adv-x="1845" 
d="M475 1573l352 323h279l354 -323h-278l-213 143l-215 -143h-279zM993 -33q-262 0 -462.5 87.5t-316.5 263.5t-116 419t116 419t316.5 263.5t462.5 87.5q292 0 494.5 -114t279.5 -289l-372 -82q-127 186 -402 186q-225 0 -361 -126.5t-136 -344.5t136 -344.5t361 -126.5
q274 0 402 187l372 -80q-77 -176 -279.5 -291t-494.5 -115z" />
    <glyph glyph-name="ccircumflex" unicode="&#x109;" horiz-adv-x="1382" 
d="M217 1186l354 323h279l354 -323h-280l-213 143l-215 -143h-279zM82 524q0 249 178 398t488 149q117 0 216.5 -26.5t168.5 -72t116 -99t74 -115.5l-305 -72q-29 40 -94.5 73.5t-161.5 33.5q-139 0 -219 -72.5t-80 -196.5q0 -125 80 -197.5t219 -72.5q96 0 161 34t95 74
l305 -73q-27 -62 -74 -115.5t-116 -99.5t-168.5 -72.5t-216.5 -26.5q-310 0 -488 149.5t-178 399.5z" />
    <glyph glyph-name="Cdotaccent" unicode="&#x10a;" horiz-adv-x="1845" 
d="M971 1561q-83 0 -136 52.5t-53 135.5t52.5 134.5t136.5 51.5q83 0 134.5 -51.5t51.5 -134.5t-51.5 -135.5t-134.5 -52.5zM993 -33q-262 0 -462.5 87.5t-316.5 263.5t-116 419t116 419t316.5 263.5t462.5 87.5q293 0 496 -114t280 -289l-372 -82q-127 186 -404 186
q-225 0 -361 -126.5t-136 -344.5t136 -344.5t361 -126.5q276 0 404 187l372 -80q-77 -177 -280 -291.5t-496 -114.5z" />
    <glyph glyph-name="cdotaccent" unicode="&#x10b;" horiz-adv-x="1382" 
d="M711 1171q-83 0 -136 53t-53 136t52.5 134.5t136.5 51.5q83 0 134.5 -51.5t51.5 -134.5q0 -84 -51.5 -136.5t-134.5 -52.5zM82 524q0 249 178 398t488 149q117 0 216.5 -26.5t168.5 -72t116 -99t74 -115.5l-305 -72q-29 40 -94.5 73.5t-161.5 33.5q-139 0 -219 -72.5
t-80 -196.5q0 -125 80 -197.5t219 -72.5q96 0 161 34t95 74l305 -73q-27 -62 -74 -115.5t-116 -99.5t-168.5 -72.5t-216.5 -26.5q-310 0 -488 149.5t-178 399.5z" />
    <glyph glyph-name="Ccaron" unicode="&#x10c;" horiz-adv-x="1845" 
d="M827 1583l-352 324h279l215 -146l213 146h278l-354 -324h-279zM993 -33q-262 0 -462.5 87.5t-316.5 263.5t-116 419t116 419t316.5 263.5t462.5 87.5q292 0 494.5 -114t279.5 -289l-372 -82q-127 186 -402 186q-225 0 -361 -126.5t-136 -344.5t136 -344.5t361 -126.5
q274 0 402 187l372 -80q-77 -176 -279.5 -291t-494.5 -115z" />
    <glyph glyph-name="ccaron" unicode="&#x10d;" horiz-adv-x="1382" 
d="M571 1196l-354 324h279l215 -146l213 146h280l-354 -324h-279zM82 524q0 249 178 398t488 149q117 0 216.5 -26.5t168.5 -72t116 -99t74 -115.5l-305 -72q-29 40 -94.5 73.5t-161.5 33.5q-139 0 -219 -72.5t-80 -196.5q0 -125 80 -197.5t219 -72.5q96 0 161 34t95 74
l305 -73q-27 -62 -74 -115.5t-116 -99.5t-168.5 -72.5t-216.5 -26.5q-310 0 -488 149.5t-178 399.5z" />
    <glyph glyph-name="Dcaron" unicode="&#x10e;" horiz-adv-x="1814" 
d="M633 1583l-354 324h278l215 -146l213 146h281l-357 -324h-276zM147 0v1475h723q402 0 624 -196t222 -542q0 -345 -222 -541t-624 -196h-723zM545 299h325q215 0 332 118.5t117 319.5q0 202 -116.5 320.5t-332.5 118.5h-325v-877z" />
    <glyph glyph-name="dcaron" unicode="&#x10f;" horiz-adv-x="1914" 
d="M655 -20q-263 0 -418 150t-155 392t155.5 392.5t417.5 150.5q281 0 428 -199v690h379v-1556h-379v178q-149 -198 -428 -198zM1552 1071l78 485h299l-114 -485h-263zM774 258q143 0 226 73.5t83 190.5t-83 190.5t-226 73.5q-145 0 -229 -73.5t-84 -190.5t84 -190.5
t229 -73.5z" />
    <glyph glyph-name="Dcroat" unicode="&#x110;" horiz-adv-x="1916" 
d="M250 0v643h-213v207h213v625h725q401 0 623.5 -196t222.5 -542q0 -345 -222.5 -541t-623.5 -196h-725zM649 299h326q215 0 330.5 118.5t115.5 319.5q0 203 -115.5 321t-330.5 118h-326v-326h297v-207h-297v-344z" />
    <glyph glyph-name="dcroat" unicode="&#x111;" horiz-adv-x="1753" 
d="M655 -20q-263 0 -418 150t-155 392t155.5 392.5t417.5 150.5q281 0 428 -199v316h-307v207h307v167h379v-167h226v-207h-226v-1182h-379v178q-149 -198 -428 -198zM774 258q143 0 226 73.5t83 190.5t-83 190.5t-226 73.5q-145 0 -229 -73.5t-84 -190.5t84 -190.5
t229 -73.5z" />
    <glyph glyph-name="Emacron" unicode="&#x112;" horiz-adv-x="1652" 
d="M373 1606v182h884v-182h-884zM147 0v1475h1366v-299h-968v-279h876v-287h-876v-311h981v-299h-1379z" />
    <glyph glyph-name="emacron" unicode="&#x113;" horiz-adv-x="1468" 
d="M297 1217v182h885v-182h-885zM82 522q0 248 179 397.5t480 149.5q114 0 215.5 -26.5t185 -81t142 -130t85 -180t13.5 -225.5h-917q5 -39 22.5 -72t51.5 -62t93.5 -46t139.5 -17q172 0 303 84l271 -104q-36 -43 -85 -80.5t-121 -74t-172.5 -58t-215.5 -21.5
q-315 0 -492.5 148.5t-177.5 398.5zM465 600h551q-5 92 -74 151.5t-201 59.5q-128 0 -196.5 -59t-79.5 -152z" />
    <glyph glyph-name="Ebreve" unicode="&#x114;" horiz-adv-x="1652" 
d="M362 1833h166q2 -4 7.5 -11t27.5 -24.5t51 -31t82 -24.5t117 -11t116.5 10.5t83 25.5t51.5 30t28 25l8 11h166q-1 -6 -3.5 -15.5t-16 -38t-32 -54t-54.5 -57t-81 -54t-114.5 -38t-151.5 -15.5t-151 15t-114 39t-80.5 53t-54.5 58t-31.5 53t-15.5 39zM147 0v1475h1366
v-299h-968v-279h876v-287h-876v-311h981v-299h-1379z" />
    <glyph glyph-name="ebreve" unicode="&#x115;" horiz-adv-x="1468" 
d="M287 1444h166q2 -4 7.5 -11t27.5 -25t51 -31.5t82.5 -24.5t117.5 -11t116.5 10.5t83 25.5t51.5 30.5t28 26.5l8 10h164q-1 -6 -3.5 -15.5t-15.5 -38t-31.5 -54.5t-54 -57.5t-80.5 -54t-114.5 -38t-151.5 -15.5t-151.5 15t-114.5 39t-80.5 53.5t-54.5 58.5t-31.5 53
t-16.5 39zM82 522q0 248 179 397.5t480 149.5q114 0 215.5 -26.5t185 -81t142 -130t85 -180t13.5 -225.5h-917q5 -39 22.5 -72t51.5 -62t93.5 -46t139.5 -17q172 0 303 84l271 -104q-36 -43 -85 -80.5t-121 -74t-172.5 -58t-215.5 -21.5q-315 0 -492.5 148.5t-177.5 398.5z
M465 600h551q-5 92 -74 151.5t-201 59.5q-128 0 -196.5 -59t-79.5 -152z" />
    <glyph glyph-name="Edotaccent" unicode="&#x116;" horiz-adv-x="1652" 
d="M815 1561q-83 0 -135.5 52.5t-52.5 135.5t52.5 134.5t135.5 51.5t134.5 -51.5t51.5 -134.5t-51.5 -135.5t-134.5 -52.5zM147 0v1475h1366v-299h-968v-279h876v-287h-876v-311h981v-299h-1379z" />
    <glyph glyph-name="edotaccent" unicode="&#x117;" horiz-adv-x="1468" 
d="M739 1171q-84 0 -136 52.5t-52 136.5q0 83 51.5 134.5t136.5 51.5q82 0 134.5 -51.5t52.5 -134.5t-52.5 -136t-134.5 -53zM82 522q0 248 179 397.5t480 149.5q114 0 215.5 -26.5t185 -81t142 -130t85 -180t13.5 -225.5h-919q6 -39 23.5 -72t52 -62t94 -46t139.5 -17
q172 0 303 84l271 -104q-36 -43 -85 -80.5t-121 -74t-172.5 -58t-215.5 -21.5q-315 0 -492.5 148.5t-177.5 398.5zM463 600h553q-5 92 -74 151.5t-201 59.5q-130 0 -198 -59t-80 -152z" />
    <glyph glyph-name="Eogonek" unicode="&#x118;" horiz-adv-x="1652" 
d="M147 0v1475h1369v-299h-971v-279h876v-287h-876v-311h983v-299h-2q-13 -1 -41 -9t-68 -24t-68 -45.5t-28 -66.5q0 -32 17.5 -52.5t49 -29t56.5 -11t59 -2.5v-178q-51 -2 -99.5 1t-103 15.5t-94.5 34t-67.5 60.5t-28.5 92q0 85 71 142t175 73h-1209z" />
    <glyph glyph-name="eogonek" unicode="&#x119;" horiz-adv-x="1468" 
d="M84 522q0 249 178 398t481 149q142 0 264.5 -43t212 -122.5t134.5 -203t30 -274.5h-919q6 -39 23.5 -72t51.5 -62t93.5 -46t138.5 -17q179 0 303 84l273 -104q-54 -65 -147 -122t-222 -87h2h-4q-30 -7 -50 -13t-51.5 -18.5t-51 -27t-34 -37t-14.5 -49.5q0 -32 17.5 -52.5
t50 -29t58 -11t59.5 -2.5v-178q-42 -2 -82.5 0t-86.5 9t-84.5 21.5t-71 36.5t-51 57t-18.5 79q0 66 42 114t114 76q-302 7 -470.5 154.5t-168.5 392.5zM465 600h551q-3 91 -72 151t-201 60q-130 0 -198 -59t-80 -152z" />
    <glyph glyph-name="Ecaron" unicode="&#x11a;" horiz-adv-x="1652" 
d="M676 1583l-354 324h278l215 -146l213 146h279l-355 -324h-276zM147 0v1475h1366v-299h-968v-279h876v-287h-876v-311h981v-299h-1379z" />
    <glyph glyph-name="ecaron" unicode="&#x11b;" horiz-adv-x="1468" 
d="M600 1194l-354 324h278l215 -146l213 146h281l-354 -324h-279zM82 522q0 248 179 397.5t480 149.5q114 0 215.5 -26.5t185 -81t142 -130t85 -180t13.5 -225.5h-917q5 -39 22.5 -72t51.5 -62t93.5 -46t139.5 -17q172 0 303 84l271 -104q-36 -43 -85 -80.5t-121 -74
t-172.5 -58t-215.5 -21.5q-315 0 -492.5 148.5t-177.5 398.5zM465 600h551q-5 92 -74 151.5t-201 59.5q-128 0 -196.5 -59t-79.5 -152z" />
    <glyph glyph-name="Gcircumflex" unicode="&#x11c;" horiz-adv-x="1869" 
d="M487 1597l353 324h280l355 -324h-281l-213 144l-215 -144h-279zM993 -33q-262 0 -462.5 87.5t-316.5 263.5t-116 419t116 419t316.5 263.5t462.5 87.5q294 0 492 -107.5t282 -283.5l-370 -82q-119 174 -404 174q-225 0 -361 -126.5t-136 -344.5t136 -344.5t361 -126.5
q158 0 268.5 60.5t110.5 140.5v115h-395v258h792v-383q0 -143 -107.5 -256.5t-283.5 -173.5t-385 -60z" />
    <glyph glyph-name="gcircumflex" unicode="&#x11d;" horiz-adv-x="1591" 
d="M301 1184l352 323h281l354 -323h-280l-213 145l-215 -145h-279zM655 -20q-263 0 -418 150t-155 392t155.5 392.5t417.5 150.5q281 0 428 -199v178h379v-962q0 -120 -37 -216.5t-102.5 -162.5t-158.5 -110.5t-201 -64.5t-234 -20q-213 0 -363 59t-235 142l209 154
q147 -101 375 -101q100 0 173.5 25t115 70t60.5 100.5t19 124.5v96q-149 -198 -428 -198zM774 258q143 0 226 73.5t83 190.5t-83 190.5t-226 73.5q-145 0 -229 -73.5t-84 -190.5t84 -190.5t229 -73.5z" />
    <glyph glyph-name="Gbreve" unicode="&#x11e;" horiz-adv-x="1869" 
d="M530 1858h166q2 -4 7.5 -11t28 -25t51.5 -31.5t82.5 -24.5t117.5 -11t116.5 10.5t83 25.5t51.5 30.5t28 26.5l8 10h164q-1 -6 -3.5 -15.5t-15.5 -38t-31.5 -54.5t-54 -57.5t-80.5 -54t-114.5 -38t-151.5 -15.5t-151.5 15t-115 39t-81 53.5t-54.5 58.5t-31.5 53t-15.5 39z
M993 -33q-262 0 -462.5 87.5t-316.5 263.5t-116 419t116 419t316.5 263.5t462.5 87.5q294 0 492 -107.5t282 -283.5l-370 -82q-119 174 -404 174q-225 0 -361 -126.5t-136 -344.5t136 -344.5t361 -126.5q158 0 268.5 60.5t110.5 140.5v115h-395v258h792v-383
q0 -143 -107.5 -256.5t-283.5 -173.5t-385 -60z" />
    <glyph glyph-name="gbreve" unicode="&#x11f;" horiz-adv-x="1591" 
d="M344 1444h166q2 -4 7.5 -11t27.5 -25t51 -31.5t82 -24.5t117 -11t117.5 10.5t83.5 25.5t51 30.5t29 26.5l7 10h164q-1 -6 -3.5 -15.5t-15.5 -38t-31 -54.5t-54 -57.5t-81 -54t-114.5 -38t-152.5 -15.5q-82 0 -151 15t-114 39t-80.5 53.5t-54.5 58.5t-31.5 53t-15.5 39z
M655 -20q-263 0 -418 150t-155 392t155.5 392.5t417.5 150.5q281 0 428 -199v178h379v-962q0 -120 -37 -216.5t-102.5 -162.5t-158.5 -110.5t-201 -64.5t-234 -20q-213 0 -363 59t-235 142l209 154q147 -101 375 -101q100 0 173.5 25t115 70t60.5 100.5t19 124.5v96
q-149 -198 -428 -198zM774 258q143 0 226 73.5t83 190.5t-83 190.5t-226 73.5q-145 0 -229 -73.5t-84 -190.5t84 -190.5t229 -73.5z" />
    <glyph glyph-name="Gdotaccent" unicode="&#x120;" horiz-adv-x="1869" 
d="M983 1585q-83 0 -135.5 53t-52.5 136t52.5 134.5t135.5 51.5t134.5 -51.5t51.5 -134.5q0 -84 -51.5 -136.5t-134.5 -52.5zM993 -33q-262 0 -462.5 87.5t-316.5 263.5t-116 419t116 419t316.5 263.5t462.5 87.5q294 0 492 -107.5t282 -283.5l-370 -82q-119 174 -404 174
q-225 0 -361 -126.5t-136 -344.5t136 -344.5t361 -126.5q158 0 268.5 60.5t110.5 140.5v115h-395v258h792v-383q0 -143 -107.5 -256.5t-283.5 -173.5t-385 -60z" />
    <glyph glyph-name="gdotaccent" unicode="&#x121;" horiz-adv-x="1591" 
d="M797 1171q-84 0 -136.5 52.5t-52.5 136.5q0 83 52 134.5t137 51.5q82 0 134 -51.5t52 -134.5t-52 -136t-134 -53zM655 -20q-263 0 -418 150t-155 392t155.5 392.5t417.5 150.5q284 0 428 -199v178h379v-962q0 -149 -56 -261.5t-157 -179.5t-231 -100t-287 -33
q-214 0 -364.5 59t-235.5 142l209 154q147 -101 375 -101q101 0 174.5 24.5t114.5 70t60 101t19 124.5v96q-146 -198 -428 -198zM774 258q143 0 226 73.5t83 190.5t-83 190.5t-226 73.5q-144 0 -228.5 -74t-84.5 -190t84.5 -190t228.5 -74z" />
    <glyph glyph-name="uni0122" unicode="&#x122;" horiz-adv-x="1869" 
d="M993 -33q-262 0 -462.5 87.5t-316.5 263.5t-116 419t116 419t316.5 263.5t462.5 87.5q294 0 492 -107.5t282 -283.5l-370 -82q-119 174 -404 174q-225 0 -361 -126.5t-136 -344.5t136 -344.5t361 -126.5q158 0 268.5 60.5t110.5 140.5v115h-395v258h792v-383
q0 -143 -107.5 -256.5t-283.5 -173.5t-385 -60zM657 -481l162 372h371l-240 -372h-293z" />
    <glyph glyph-name="uni0123" unicode="&#x123;" horiz-adv-x="1591" 
d="M614 1196l242 410h266l-166 -410h-342zM655 -20q-263 0 -418 150t-155 392t155.5 392.5t417.5 150.5q281 0 428 -199v178h379v-962q0 -120 -37 -216.5t-102.5 -162.5t-158.5 -110.5t-201 -64.5t-234 -20q-213 0 -363 59t-235 142l209 154q147 -101 375 -101
q100 0 173.5 25t115 70t60.5 100.5t19 124.5v96q-149 -198 -428 -198zM774 258q143 0 226 73.5t83 190.5t-83 190.5t-226 73.5q-145 0 -229 -73.5t-84 -190.5t84 -190.5t229 -73.5z" />
    <glyph glyph-name="Hcircumflex" unicode="&#x124;" horiz-adv-x="1830" 
d="M420 1573l354 323h279l354 -323h-281l-213 145l-215 -145h-278zM147 0v1475h398v-568h739v568h399v-1475h-399v608h-739v-608h-398z" />
    <glyph glyph-name="hcircumflex" unicode="&#x125;" horiz-adv-x="1505" 
d="M227 1599l355 324h278l354 -324h-280l-213 146l-215 -146h-279zM119 0v1556h379v-673q51 72 150.5 127t240.5 55q134 0 232 -40t156.5 -114.5t86 -173t27.5 -223.5v-514h-379v514q0 124 -58 198t-190 74q-135 0 -200.5 -77t-65.5 -199v-510h-379z" />
    <glyph glyph-name="Hbar" unicode="&#x126;" horiz-adv-x="2013" 
d="M238 0v1118h-203v168h203v189h397v-189h741v189h400v-189h200v-168h-200v-1118h-400v608h-741v-608h-397zM635 907h741v211h-741v-211z" />
    <glyph glyph-name="hbar" unicode="&#x127;" horiz-adv-x="1650" 
d="M264 0v1182h-196v207h196v167h379v-167h336v-207h-336v-299q51 72 150.5 127t240.5 55q134 0 232 -40t156.5 -114.5t86 -173t27.5 -223.5v-514h-379v514q0 124 -58 198t-190 74q-135 0 -200.5 -77t-65.5 -199v-510h-379z" />
    <glyph glyph-name="Itilde" unicode="&#x128;" horiz-adv-x="720" 
d="M102 1608h-170q0 6 1 15.5t7 37.5t16 53.5t31 56.5t49 53.5t73 38t100 15.5q61 0 107.5 -22t95.5 -62q19 -16 30 -24t35 -16.5t51 -8.5t47.5 8.5t30.5 21t16 25t8 20.5l1 9h170q0 -6 -1 -15.5t-6.5 -37.5t-15.5 -53.5t-30.5 -56.5t-48 -53.5t-72 -38t-99.5 -15.5
q-105 0 -200 77q-66 56 -119 56q-27 0 -48.5 -8.5t-32 -21t-17 -25t-7.5 -21.5zM162 0v1475h397v-1475h-397z" />
    <glyph glyph-name="itilde" unicode="&#x129;" horiz-adv-x="657" 
d="M66 1219h-170q0 6 1 15.5t7 37.5t15.5 53.5t30.5 56.5t49 53.5t73 38t100 15.5q61 0 107.5 -22t95.5 -62q18 -16 30 -24t36.5 -16.5t52.5 -8.5q26 0 46.5 8.5t30.5 21t16 25t7 21.5l2 8h170q0 -6 -1 -15.5t-6.5 -37.5t-15.5 -54t-30.5 -57t-48 -53.5t-72 -38t-98.5 -15.5
q-107 0 -203 78q-66 56 -119 56q-27 0 -48 -8.5t-31.5 -21t-17 -25t-7.5 -20.5zM139 0v1044h379v-1044h-379z" />
    <glyph glyph-name="Imacron" unicode="&#x12a;" horiz-adv-x="720" 
d="M-76 1606v182h885v-182h-885zM162 0v1475h397v-1475h-397z" />
    <glyph glyph-name="imacron" unicode="&#x12b;" horiz-adv-x="657" 
d="M-113 1217v182h885v-182h-885zM139 0v1044h379v-1044h-379z" />
    <glyph glyph-name="Ibreve" unicode="&#x12c;" horiz-adv-x="720" 
d="M-86 1833h166q2 -4 7.5 -11t27.5 -24.5t51 -31t82 -24.5t117 -11t116.5 10.5t82.5 25.5t51 30t29 25l7 11h166q-1 -6 -3.5 -15.5t-15.5 -38t-31.5 -54t-54.5 -57t-81 -54t-114.5 -38t-151.5 -15.5t-151 15t-114 39t-80.5 53t-54.5 58t-31.5 53t-15.5 39zM162 0v1475h397
v-1475h-397z" />
    <glyph glyph-name="ibreve" unicode="&#x12d;" horiz-adv-x="657" 
d="M-123 1444h166q2 -4 7.5 -11t28 -25t51.5 -31.5t82.5 -24.5t117.5 -11t116.5 10.5t82.5 25.5t51 30.5t28 26.5l8 10h164q-1 -6 -3.5 -15.5t-15.5 -38t-31 -54.5t-54 -57.5t-80.5 -54t-114 -38t-151.5 -15.5t-151.5 15t-115 39t-81 53.5t-54.5 58.5t-31.5 53t-16.5 39z
M139 0v1044h379v-1044h-379z" />
    <glyph glyph-name="Iogonek" unicode="&#x12e;" horiz-adv-x="720" 
d="M162 0v1475h397v-1475q-13 -1 -40.5 -9t-67.5 -24t-68.5 -45.5t-28.5 -66.5q0 -32 17.5 -52.5t50 -29t58 -11t59.5 -2.5v-178q-52 -2 -100.5 1t-103.5 15.5t-95.5 34t-67 60.5t-27.5 92q0 85 70.5 142t173.5 73h-227z" />
    <glyph glyph-name="iogonek" unicode="&#x12f;" horiz-adv-x="657" 
d="M330 1171q-83 0 -135 53t-52 136t52 134.5t135 51.5t134.5 -51.5t51.5 -134.5q0 -84 -51.5 -136.5t-134.5 -52.5zM139 0v1044h379v-1044q-13 -1 -40.5 -9t-67.5 -24t-68.5 -45.5t-28.5 -66.5q0 -32 17.5 -52.5t50 -29t58 -11t59.5 -2.5v-178q-42 -2 -82.5 0t-86.5 9
t-84.5 21.5t-71 36.5t-51 57t-18.5 79q0 85 70.5 142t173.5 73h-209z" />
    <glyph glyph-name="Idotaccent" unicode="&#x130;" horiz-adv-x="720" 
d="M367 1561q-83 0 -136 52.5t-53 135.5t52.5 134.5t136.5 51.5q83 0 134.5 -51.5t51.5 -134.5t-51.5 -135.5t-134.5 -52.5zM162 0v1475h397v-1475h-397z" />
    <glyph glyph-name="dotlessi" unicode="&#x131;" horiz-adv-x="657" 
d="M139 0v1044h379v-1044h-379z" />
    <glyph glyph-name="IJ" unicode="&#x132;" horiz-adv-x="2295" 
d="M162 0v1475h397v-1475h-397zM836 420l381 49q7 -34 23 -65.5t45.5 -64.5t81 -53t118.5 -20q266 0 266 279v930h399v-930q0 -149 -48.5 -261t-138 -180.5t-209 -102.5t-269.5 -34q-133 0 -241 28t-177.5 72t-120 105.5t-75 121.5t-35.5 126z" />
    <glyph glyph-name="ij" unicode="&#x133;" horiz-adv-x="1316" 
d="M330 1171q-83 0 -136 53t-53 136t52.5 134.5t136.5 51.5q83 0 134.5 -51.5t51.5 -134.5q0 -84 -51.5 -136.5t-134.5 -52.5zM987 1171q-83 0 -135.5 53t-52.5 136t52.5 134.5t135.5 51.5t135 -51.5t52 -134.5t-52 -136t-135 -53zM139 0v1044h379v-1044h-379zM399 -451
l84 252q84 -14 135 -14q106 0 143.5 53t37.5 183v1021h379v-1021q0 -135 -24.5 -228.5t-83 -159.5t-155.5 -96.5t-241 -30.5q-138 0 -275 41z" />
    <glyph glyph-name="Jcircumflex" unicode="&#x134;" horiz-adv-x="1558" 
d="M721 1573l352 323h279l354 -323h-279l-213 145l-215 -145h-278zM98 420l379 49q8 -34 24 -65.5t46 -64.5t81 -53t117 -20q269 0 269 279v930h397v-930q0 -149 -48.5 -261t-138 -180.5t-209.5 -102.5t-270 -34q-133 0 -241 28t-177.5 72t-119.5 105.5t-74.5 121.5
t-34.5 126z" />
    <glyph glyph-name="jcircumflex" unicode="&#x135;" horiz-adv-x="659" 
d="M-164 1184l352 323h279l354 -323h-278l-213 145l-215 -145h-279zM-258 -451l84 252q84 -14 137 -14q105 0 141.5 53t36.5 183v1021h379v-1021q0 -135 -24.5 -228.5t-82.5 -159.5t-155 -96.5t-240 -30.5q-30 0 -59.5 2t-55 5.5t-47 7t-42 8t-32.5 7.5t-25.5 7t-14.5 4z
" />
    <glyph glyph-name="uni0136" unicode="&#x136;" horiz-adv-x="1781" 
d="M147 0v1475h398v-654l712 654h484l-690 -629l692 -846h-449l-522 629l-227 -185v-444h-398zM559 -473l162 373h371l-240 -373h-293z" />
    <glyph glyph-name="uni0137" unicode="&#x137;" horiz-adv-x="1478" 
d="M129 0v1556h381v-905l455 393h473l-506 -444l518 -600h-430l-371 422l-139 -100v-322h-381zM379 -485l162 372h370l-239 -372h-293z" />
    <glyph glyph-name="kgreenlandic" unicode="&#x138;" horiz-adv-x="1478" 
d="M129 0v1044h381v-393l455 393h473l-506 -444l518 -600h-430l-371 422l-139 -100v-322h-381z" />
    <glyph glyph-name="Lacute" unicode="&#x139;" horiz-adv-x="1507" 
d="M152 1583l256 246h446l-340 -246h-362zM147 0v1475h398v-1176h925v-299h-1323z" />
    <glyph glyph-name="lacute" unicode="&#x13a;" horiz-adv-x="638" 
d="M115 1630l258 246h446l-342 -246h-362zM129 0v1556h381v-1556h-381z" />
    <glyph glyph-name="uni013B" unicode="&#x13b;" horiz-adv-x="1507" 
d="M147 0v1475h398v-1176h925v-299h-1323zM489 -473l162 373h371l-240 -373h-293z" />
    <glyph glyph-name="uni013C" unicode="&#x13c;" horiz-adv-x="638" 
d="M129 0v1556h381v-1556h-381zM-8 -473l162 373h370l-239 -373h-293z" />
    <glyph glyph-name="Lcaron" unicode="&#x13d;" horiz-adv-x="1507" 
d="M147 0v1475h398v-1176h925v-299h-1323zM729 989l78 486h299l-115 -486h-262z" />
    <glyph glyph-name="lcaron" unicode="&#x13e;" horiz-adv-x="1034" 
d="M129 0v1556h381v-1556h-381zM672 1071l78 485h299l-115 -485h-262z" />
    <glyph glyph-name="Ldot" unicode="&#x13f;" horiz-adv-x="1507" 
d="M147 0v1475h398v-1176h925v-299h-1323zM1098 662q-81 0 -133 51.5t-52 130.5q0 82 51.5 133t133.5 51q83 0 134.5 -51t51.5 -133q0 -79 -52 -130.5t-134 -51.5z" />
    <glyph glyph-name="ldot" unicode="&#x140;" horiz-adv-x="980" 
d="M129 0v1556h381v-1556h-381zM813 653q-82 0 -134 52t-52 131q0 82 51.5 133t134.5 51q82 0 133 -51t51 -133q0 -79 -51.5 -131t-132.5 -52z" />
    <glyph glyph-name="Lslash" unicode="&#x141;" horiz-adv-x="1591" 
d="M231 0v510l-196 -111v224l196 110v742h400v-519l200 115v-225l-200 -113v-434h923v-299h-1323z" />
    <glyph glyph-name="lslash" unicode="&#x142;" horiz-adv-x="933" 
d="M281 0v596l-211 -119v221l211 119v739h381v-524l206 115v-223l-206 -117v-807h-381z" />
    <glyph glyph-name="Nacute" unicode="&#x143;" horiz-adv-x="1863" 
d="M733 1583l256 246h447l-340 -246h-363zM545 0h-398v1475h461l711 -1014v1014h397v-1475h-461l-710 1014v-1014z" />
    <glyph glyph-name="nacute" unicode="&#x144;" horiz-adv-x="1515" 
d="M580 1194l258 246h444l-340 -246h-362zM129 0v1044h379v-161q51 72 150.5 127t240.5 55q134 0 232 -40t156.5 -114.5t86 -173t27.5 -223.5v-514h-379v514q0 124 -58 198t-190 74q-135 0 -200.5 -77t-65.5 -199v-510h-379z" />
    <glyph glyph-name="uni0145" unicode="&#x145;" horiz-adv-x="1863" 
d="M545 0h-398v1475h461l711 -1014v1014h397v-1475h-461l-710 1014v-1014zM606 -473l162 373h371l-240 -373h-293z" />
    <glyph glyph-name="uni0146" unicode="&#x146;" horiz-adv-x="1515" 
d="M129 0v1044h379v-161q51 72 150.5 127t240.5 55q134 0 232 -40t156.5 -114.5t86 -173t27.5 -223.5v-514h-379v514q0 124 -58 198t-190 74q-135 0 -200.5 -77t-65.5 -199v-510h-379zM440 -475l162 375h371l-240 -375h-293z" />
    <glyph glyph-name="Ncaron" unicode="&#x147;" horiz-adv-x="1863" 
d="M793 1583l-355 324h279l215 -146l213 146h280l-354 -324h-278zM545 0h-398v1475h461l711 -1014v1014h397v-1475h-461l-710 1014v-1014z" />
    <glyph glyph-name="ncaron" unicode="&#x148;" horiz-adv-x="1515" 
d="M639 1194l-354 324h278l215 -146l213 146h281l-354 -324h-279zM129 0v1044h379v-161q51 72 150.5 127t240.5 55q134 0 232 -40t156.5 -114.5t86 -173t27.5 -223.5v-514h-379v514q0 124 -58 198t-190 74q-135 0 -200.5 -77t-65.5 -199v-510h-379z" />
    <glyph glyph-name="napostrophe" unicode="&#x149;" horiz-adv-x="1773" 
d="M8 991l76 486h299l-115 -486h-260zM389 0v1044h379v-161q51 72 150.5 127t240.5 55q134 0 232 -40t156.5 -114.5t86 -173t27.5 -223.5v-514h-379v514q0 59 -12.5 106.5t-40 85.5t-76.5 59t-117 21q-137 0 -202.5 -77t-65.5 -199v-510h-379z" />
    <glyph glyph-name="Eng" unicode="&#x14a;" horiz-adv-x="1863" 
d="M147 0v1475h461l711 -1014v1014h397v-1391q0 -149 -48 -260.5t-137.5 -180t-209.5 -102t-270 -33.5q-126 0 -230 23.5t-170.5 59t-116.5 83t-74.5 88t-37.5 82.5l387 52q68 -105 242 -105q118 0 189 55t71 146v8h-56l-710 1016v-1016h-398z" />
    <glyph glyph-name="eng" unicode="&#x14b;" horiz-adv-x="1515" 
d="M129 0v1044h379v-161q51 72 150.5 127t240.5 55q134 0 232 -40t156.5 -114.5t86 -172.5t27.5 -222v-496q0 -135 -24.5 -227.5t-82.5 -158t-155 -96t-240 -30.5q-137 0 -274 41l84 252q84 -14 135 -14q106 0 142 52t36 181v496q0 58 -12.5 104.5t-40.5 85t-77.5 59.5
t-117.5 21q-134 0 -200 -77t-66 -197v-512h-379z" />
    <glyph glyph-name="Omacron" unicode="&#x14c;" horiz-adv-x="1998" 
d="M557 1606v182h885v-182h-885zM999 -33q-138 0 -265.5 27t-244 87t-203 148t-137.5 218.5t-51 289.5t51 289.5t137.5 218.5t203 148t244 87t265.5 27q137 0 264.5 -27t244.5 -87t203.5 -148t138 -218.5t51.5 -289.5t-51.5 -289.5t-138 -218.5t-203.5 -148t-244.5 -87
t-264.5 -27zM999 266q227 0 365.5 131t138.5 340t-138.5 340t-365.5 131q-226 0 -364.5 -131.5t-138.5 -339.5t138.5 -339.5t364.5 -131.5z" />
    <glyph glyph-name="omacron" unicode="&#x14d;" horiz-adv-x="1546" 
d="M332 1217v182h887v-182h-887zM774 -25q-315 0 -503.5 150.5t-188.5 398.5t188 397.5t504 149.5q317 0 504.5 -149.5t187.5 -397.5q0 -249 -187.5 -399t-504.5 -150zM774 254q146 0 229.5 75t83.5 195q0 119 -83.5 194t-229.5 75t-229.5 -75t-83.5 -194q0 -120 83.5 -195
t229.5 -75z" />
    <glyph glyph-name="Obreve" unicode="&#x14e;" horiz-adv-x="1998" 
d="M547 1833h166q2 -4 7.5 -11t27.5 -24.5t51 -31t81.5 -24.5t116.5 -11t117.5 10.5t84 25.5t51.5 30t28 25l8 11h164q-1 -6 -3.5 -15.5t-15.5 -38t-31.5 -54t-54 -57t-80.5 -54t-115 -38t-153 -15.5q-82 0 -151 15t-114 39t-80 53t-54 58t-31.5 53t-16.5 39zM999 -33
q-138 0 -265.5 27t-244 87t-203 148t-137.5 218.5t-51 289.5t51 289.5t137.5 218.5t203 148t244 87t265.5 27q137 0 264.5 -27t244.5 -87t203.5 -148t138 -218.5t51.5 -289.5t-51.5 -289.5t-138 -218.5t-203.5 -148t-244.5 -87t-264.5 -27zM999 266q227 0 365.5 131
t138.5 340t-138.5 340t-365.5 131q-226 0 -364.5 -131.5t-138.5 -339.5t138.5 -339.5t364.5 -131.5z" />
    <glyph glyph-name="obreve" unicode="&#x14f;" horiz-adv-x="1546" 
d="M322 1444h165q2 -4 7.5 -11t28 -25t51.5 -31.5t82.5 -24.5t117.5 -11t116.5 10.5t83 25.5t51.5 30.5t29 26.5l7 10h166q-1 -6 -3.5 -15.5t-16 -38t-32 -54.5t-54.5 -57.5t-81 -54t-114.5 -38t-151.5 -15.5t-151.5 15t-114.5 39t-80.5 53.5t-54.5 58.5t-31.5 53t-15.5 39z
M774 -25q-315 0 -503.5 150.5t-188.5 398.5t188 397.5t504 149.5q317 0 504.5 -149.5t187.5 -397.5q0 -249 -187.5 -399t-504.5 -150zM774 254q146 0 229.5 75t83.5 195q0 119 -83.5 194t-229.5 75t-229.5 -75t-83.5 -194q0 -120 83.5 -195t229.5 -75z" />
    <glyph glyph-name="Ohungarumlaut" unicode="&#x150;" horiz-adv-x="1998" 
d="M700 1585l146 348h258l-184 -348h-220zM1075 1585l148 348h256l-185 -348h-219zM999 -33q-138 0 -265.5 27t-244 87t-203 148t-137.5 218.5t-51 289.5t51 289.5t137.5 218.5t203 148t244 87t265.5 27q137 0 264.5 -27t244.5 -87t203.5 -148t138 -218.5t51.5 -289.5
t-51.5 -289.5t-138 -218.5t-203.5 -148t-244.5 -87t-264.5 -27zM999 266q227 0 365.5 131t138.5 340t-138.5 340t-365.5 131q-226 0 -364.5 -131.5t-138.5 -339.5t138.5 -339.5t364.5 -131.5z" />
    <glyph glyph-name="ohungarumlaut" unicode="&#x151;" horiz-adv-x="1546" 
d="M475 1196l146 348h258l-185 -348h-219zM850 1196l147 348h258l-184 -348h-221zM774 -25q-315 0 -503.5 150.5t-188.5 398.5t188 397.5t504 149.5q317 0 504.5 -149.5t187.5 -397.5q0 -249 -187.5 -399t-504.5 -150zM774 254q146 0 229.5 75t83.5 195q0 119 -83.5 194
t-229.5 75t-229.5 -75t-83.5 -194q0 -120 83.5 -195t229.5 -75z" />
    <glyph glyph-name="OE" unicode="&#x152;" horiz-adv-x="2940" 
d="M999 -33q-138 0 -265.5 27t-244 87t-203 148t-137.5 218.5t-51 289.5t51 289.5t137.5 218.5t203 148t244 87t265.5 27q219 0 437 -90v58h1368v-299h-969v-279h875v-287h-875v-311h981v-299h-1380v55q-215 -88 -437 -88zM999 266q149 0 262.5 56t174.5 149v535
q-61 92 -175 147t-262 55q-226 0 -364.5 -131.5t-138.5 -339.5t138.5 -339.5t364.5 -131.5z" />
    <glyph glyph-name="oe" unicode="&#x153;" horiz-adv-x="2471" 
d="M774 -25q-315 0 -503.5 150t-188.5 397q0 250 188 399.5t504 149.5q314 0 498 -160q174 160 473 160q114 0 215.5 -26.5t185 -81t142 -130.5t85 -180.5t13.5 -226.5h-918q5 -39 22.5 -72t51.5 -62t94 -46t140 -17q172 0 303 84l270 -104q-36 -43 -85 -80.5t-121 -74
t-172.5 -58t-215.5 -21.5q-306 0 -487 160q-87 -75 -214 -117.5t-280 -42.5zM1468 600h551q-5 92 -73.5 152.5t-200.5 60.5q-129 0 -197.5 -59.5t-79.5 -153.5zM774 254q146 0 228.5 74t82.5 194t-82.5 195.5t-228.5 75.5t-229.5 -75.5t-83.5 -195.5t83.5 -194t229.5 -74z
" />
    <glyph glyph-name="Racute" unicode="&#x154;" horiz-adv-x="1765" 
d="M616 1583l256 246h447l-340 -246h-363zM545 0h-398v1475h889q290 0 459.5 -131.5t169.5 -364.5q0 -160 -84.5 -271t-234.5 -163l323 -545h-436l-279 481h-409v-481zM545 1176v-396h438q142 0 212.5 51.5t70.5 145.5q0 96 -70.5 147.5t-212.5 51.5h-438z" />
    <glyph glyph-name="racute" unicode="&#x155;" horiz-adv-x="1077" 
d="M356 1194l258 246h447l-342 -246h-363zM129 0v1044h381v-153q48 68 136.5 121t209.5 53q91 0 156 -14v-279q-72 14 -174 14q-157 0 -242.5 -71t-85.5 -197v-518h-381z" />
    <glyph glyph-name="uni0156" unicode="&#x156;" horiz-adv-x="1765" 
d="M545 0h-398v1475h889q290 0 459.5 -131.5t169.5 -364.5q0 -160 -84.5 -271t-234.5 -163l323 -545h-436l-279 481h-409v-481zM545 1176v-396h438q142 0 212.5 51.5t70.5 145.5q0 96 -70.5 147.5t-212.5 51.5h-438zM520 -473l162 373h371l-240 -373h-293z" />
    <glyph glyph-name="uni0157" unicode="&#x157;" horiz-adv-x="1077" 
d="M129 0v1044h381v-153q48 68 136.5 121t209.5 53q91 0 156 -14v-279q-72 14 -174 14q-157 0 -242.5 -71t-85.5 -197v-518h-381zM-12 -475l162 375h370l-239 -375h-293z" />
    <glyph glyph-name="Rcaron" unicode="&#x158;" horiz-adv-x="1765" 
d="M676 1583l-354 324h278l215 -146l213 146h281l-355 -324h-278zM545 0h-398v1475h889q290 0 459.5 -131.5t169.5 -364.5q0 -160 -84.5 -271t-234.5 -163l323 -545h-436l-279 481h-409v-481zM545 1176v-396h438q142 0 212.5 51.5t70.5 145.5q0 96 -70.5 147.5t-212.5 51.5
h-438z" />
    <glyph glyph-name="rcaron" unicode="&#x159;" horiz-adv-x="1077" 
d="M416 1194l-355 324h279l217 -146l213 146h279l-355 -324h-278zM129 0v1044h381v-153q48 68 136.5 121t209.5 53q91 0 156 -14v-279q-72 14 -174 14q-157 0 -242.5 -71t-85.5 -197v-518h-381z" />
    <glyph glyph-name="Sacute" unicode="&#x15a;" horiz-adv-x="1636" 
d="M616 1583l256 246h447l-342 -246h-361zM92 313l334 103q15 -21 38.5 -41t70 -47.5t123.5 -44.5t173 -17q161 0 238.5 44t77.5 120q0 68 -80.5 107t-288.5 71q-181 28 -308 73t-198 106t-102 130t-31 154q0 199 183.5 317.5t504.5 118.5q258 0 430 -87.5t244 -227.5
l-336 -100q-26 31 -56 53t-101.5 42.5t-169.5 20.5q-137 0 -218 -37t-81 -104q0 -42 28.5 -71.5t112 -56.5t231.5 -48q316 -40 474.5 -147.5t158.5 -315.5t-187 -334.5t-526 -126.5q-130 0 -242.5 20.5t-191.5 54t-142 79.5t-101.5 93t-61.5 99z" />
    <glyph glyph-name="sacute" unicode="&#x15b;" horiz-adv-x="1286" 
d="M438 1194l256 246h447l-342 -246h-361zM72 205l274 98q100 -82 289 -82q201 0 201 88q0 39 -48 61t-172 44q-262 39 -380.5 115t-118.5 214q0 152 149 239t389 87q199 0 335 -63t198 -156l-273 -96q-109 69 -245 69q-86 0 -130 -21.5t-44 -58.5q0 -33 43 -52.5t161 -39.5
q100 -13 173 -29t140.5 -42t109.5 -61t66.5 -86.5t24.5 -117.5q0 -163 -150.5 -251.5t-414.5 -88.5q-214 0 -363 63.5t-214 166.5z" />
    <glyph glyph-name="Scircumflex" unicode="&#x15c;" horiz-adv-x="1636" 
d="M322 1573l352 323h280l355 -323h-281l-213 143l-215 -143h-278zM92 313l334 103q15 -21 38.5 -41t70 -47.5t123.5 -44.5t173 -17q161 0 238.5 44t77.5 120q0 68 -80.5 107t-288.5 71q-181 28 -308 73t-198 106t-102 130t-31 154q0 199 183.5 317.5t504.5 118.5
q258 0 430 -87.5t244 -227.5l-336 -100q-26 31 -56 53t-101.5 42.5t-169.5 20.5q-137 0 -218 -37t-81 -104q0 -42 28.5 -71.5t112 -56.5t231.5 -48q316 -40 474.5 -147.5t158.5 -315.5t-187 -334.5t-526 -126.5q-130 0 -242.5 20.5t-191.5 54t-142 79.5t-101.5 93t-61.5 99z
" />
    <glyph glyph-name="scircumflex" unicode="&#x15d;" horiz-adv-x="1286" 
d="M145 1184l353 323h278l354 -323h-278l-213 143l-215 -143h-279zM72 205l274 98q100 -82 289 -82q201 0 201 88q0 39 -48 61t-172 44q-262 39 -380.5 115t-118.5 214q0 152 149 239t389 87q199 0 335 -63t198 -156l-273 -96q-109 69 -245 69q-86 0 -130 -21.5t-44 -58.5
q0 -33 43 -52.5t161 -39.5q100 -13 173 -29t140.5 -42t109.5 -61t66.5 -86.5t24.5 -117.5q0 -163 -150.5 -251.5t-414.5 -88.5q-214 0 -363 63.5t-214 166.5z" />
    <glyph glyph-name="Scedilla" unicode="&#x15e;" horiz-adv-x="1636" 
d="M92 313l334 103q15 -21 38.5 -41t70 -47.5t123.5 -44.5t173 -17q161 0 238.5 44t77.5 120q0 68 -80.5 107t-288.5 71q-181 28 -308 73t-198 106t-102 130t-31 154q0 199 183.5 317.5t504.5 118.5q258 0 430 -87.5t244 -227.5l-336 -100q-92 116 -327 116q-137 0 -218 -37
t-81 -104q0 -42 28.5 -71.5t112 -56.5t231.5 -48q316 -40 474.5 -147.5t158.5 -315.5q0 -200 -171.5 -324.5t-485.5 -136.5l-27 -63q39 0 70.5 -2.5t70.5 -13t65 -28t44 -50t18 -76.5q0 -96 -88 -153.5t-231 -57.5q-71 0 -134 14.5t-91 28.5l-27 14l61 98q61 -18 170 -18
q59 0 99.5 15.5t40.5 48.5q0 59 -154 59q-59 0 -123 -8l84 194q-138 9 -252 42t-190 83t-125 104t-76 115z" />
    <glyph glyph-name="scedilla" unicode="&#x15f;" horiz-adv-x="1286" 
d="M72 205l274 98q100 -82 289 -82q201 0 201 88q0 39 -48 61t-172 44q-262 39 -380.5 115t-118.5 214q0 152 149 239t389 87q200 0 335.5 -62.5t199.5 -156.5l-275 -96q-105 69 -245 69q-86 0 -130 -21.5t-44 -58.5q0 -33 43 -52.5t163 -39.5q99 -13 172 -29t140 -42
t109 -61t66.5 -86.5t24.5 -117.5q0 -151 -128.5 -238.5t-358.5 -99.5l-31 -73q269 0 269 -170q0 -96 -88 -153.5t-232 -57.5q-71 0 -134 14.5t-91 28.5l-27 14l62 98q61 -18 170 -18q59 0 99 15.5t40 48.5q0 59 -154 59q-59 0 -123 -8l86 202q-185 12 -314 73.5t-187 154.5z
" />
    <glyph glyph-name="Scaron" unicode="&#x160;" horiz-adv-x="1636" 
d="M674 1583l-352 324h278l215 -146l213 146h281l-355 -324h-280zM92 313l334 103q15 -21 38.5 -41t70 -47.5t123.5 -44.5t173 -17q161 0 238.5 44t77.5 120q0 68 -80.5 107t-288.5 71q-181 28 -308 73t-198 106t-102 130t-31 154q0 199 183.5 317.5t504.5 118.5
q258 0 430 -87.5t244 -227.5l-336 -100q-26 31 -56 53t-101.5 42.5t-169.5 20.5q-137 0 -218 -37t-81 -104q0 -42 28.5 -71.5t112 -56.5t231.5 -48q316 -40 474.5 -147.5t158.5 -315.5t-187 -334.5t-526 -126.5q-130 0 -242.5 20.5t-191.5 54t-142 79.5t-101.5 93t-61.5 99z
" />
    <glyph glyph-name="scaron" unicode="&#x161;" horiz-adv-x="1286" 
d="M498 1194l-353 324h279l215 -146l213 146h278l-354 -324h-278zM72 205l274 98q100 -82 289 -82q201 0 201 88q0 39 -48 61t-172 44q-262 39 -380.5 115t-118.5 214q0 152 149 239t389 87q199 0 335 -63t198 -156l-273 -96q-109 69 -245 69q-86 0 -130 -21.5t-44 -58.5
q0 -33 43 -52.5t161 -39.5q100 -13 173 -29t140.5 -42t109.5 -61t66.5 -86.5t24.5 -117.5q0 -163 -150.5 -251.5t-414.5 -88.5q-214 0 -363 63.5t-214 166.5z" />
    <glyph glyph-name="uni0162" unicode="&#x162;" horiz-adv-x="1660" 
d="M631 0v1176h-594v299h1587v-299h-596v-1176h-397zM510 -475l160 375h370l-239 -375h-291z" />
    <glyph glyph-name="uni0163" unicode="&#x163;" horiz-adv-x="1114" 
d="M750 -25q-130 0 -220.5 33t-142 98.5t-74 151.5t-22.5 205v303h-223v278h223v291h379v-291h331v-278h-331v-303q0 -106 33.5 -157.5t132.5 -51.5q33 0 64.5 4t47.5 8l15 4l84 -227q-4 -3 -12 -7.5t-35.5 -16t-59 -20.5t-83 -16.5t-107.5 -7.5zM344 -481l162 372h368
l-237 -372h-293z" />
    <glyph glyph-name="Tcaron" unicode="&#x164;" horiz-adv-x="1660" 
d="M690 1583l-352 324h276l217 -146l211 146h281l-354 -324h-279zM631 0v1176h-594v299h1587v-299h-596v-1176h-397z" />
    <glyph glyph-name="tcaron" unicode="&#x165;" horiz-adv-x="1464" 
d="M1102 989l78 486h299l-115 -486h-262zM750 -25q-130 0 -220.5 33t-142 98.5t-74 151.5t-22.5 205v303h-223v278h223v291h379v-291h331v-278h-331v-303q0 -106 33.5 -157.5t132.5 -51.5q33 0 64.5 4t47.5 8l15 4l84 -227q-4 -3 -12 -7.5t-35.5 -16t-59 -20.5t-83 -16.5
t-107.5 -7.5z" />
    <glyph glyph-name="Tbar" unicode="&#x166;" horiz-adv-x="1660" 
d="M631 0v666h-252v206h252v304h-594v299h1587v-299h-596v-304h260v-206h-260v-666h-397z" />
    <glyph glyph-name="tbar" unicode="&#x167;" horiz-adv-x="1124" 
d="M756 -25q-102 0 -179 21t-129 59.5t-85 97t-48 129t-16 160.5h-207v207h207v117h-223v278h223v291h379v-291h332v-278h-332v-117h323v-207h-323q2 -95 36.5 -141.5t129.5 -46.5q33 0 64.5 4t47.5 8l15 4l84 -227q-4 -3 -12 -7.5t-35.5 -16t-59.5 -20.5t-84 -16.5
t-108 -7.5z" />
    <glyph glyph-name="Utilde" unicode="&#x168;" horiz-adv-x="1816" 
d="M645 1608h-170q0 6 1 15.5t7 37.5t16 53.5t31 56.5t49 53.5t73 38t100 15.5q61 0 107 -22t95 -62q18 -16 30 -24t36.5 -16.5t52.5 -8.5q42 0 67.5 21t30.5 42l5 21h170q0 -6 -1 -15.5t-7 -37.5t-15.5 -53.5t-30.5 -56.5t-48.5 -53.5t-72 -38t-98.5 -15.5q-103 0 -203 77
q-34 29 -60 42.5t-58 13.5q-27 0 -48.5 -8.5t-32 -21t-17 -25t-8.5 -21.5zM147 1475h398v-744q0 -465 364 -465q365 0 365 465v744h397v-744q0 -764 -762 -764t-762 764v744z" />
    <glyph glyph-name="utilde" unicode="&#x169;" 
d="M483 1219h-170q0 6 1 15.5t7 37.5t16 53.5t31 56.5t49 53.5t73 38t100 15.5q61 0 107.5 -22t95.5 -62q19 -16 30 -24t35.5 -16.5t52.5 -8.5q42 0 67.5 21t30.5 42l5 21h170q0 -6 -1 -15.5t-7 -37.5t-15.5 -54t-30.5 -57t-48.5 -53.5t-72 -38t-98.5 -15.5q-106 0 -202 78
q-66 56 -119 56q-27 0 -48.5 -8.5t-32 -21t-17 -25t-8.5 -20.5zM1391 1044v-1044h-379v164q-51 -74 -150 -129t-241 -55q-133 0 -231 40t-156.5 114t-86.5 172.5t-28 223.5v514h379v-514q0 -272 247 -272q135 0 201 77.5t66 199.5v509h379z" />
    <glyph glyph-name="Umacron" unicode="&#x16a;" horiz-adv-x="1816" 
d="M469 1606v182h885v-182h-885zM147 1475h398v-744q0 -465 364 -465q365 0 365 465v744h397v-744q0 -764 -762 -764t-762 764v744z" />
    <glyph glyph-name="umacron" unicode="&#x16b;" 
d="M305 1217v182h885v-182h-885zM1391 1044v-1044h-379v164q-51 -74 -150 -129t-241 -55q-133 0 -231 40t-156.5 114t-86.5 172.5t-28 223.5v514h379v-514q0 -272 247 -272q135 0 201 77.5t66 199.5v509h379z" />
    <glyph glyph-name="Ubreve" unicode="&#x16c;" horiz-adv-x="1816" 
d="M459 1833h166q2 -4 7.5 -11t27.5 -24.5t51 -31t81.5 -24.5t116.5 -11t117.5 10.5t84 25.5t51.5 30t28 25l8 11h164q-1 -6 -3.5 -15.5t-15.5 -38t-31.5 -54t-54 -57t-80.5 -54t-115 -38t-153 -15.5q-82 0 -151 15t-114 39t-80 53t-54 58t-31.5 53t-16.5 39zM147 1475h398
v-744q0 -465 364 -465q365 0 365 465v744h397v-744q0 -764 -762 -764t-762 764v744z" />
    <glyph glyph-name="ubreve" unicode="&#x16d;" 
d="M295 1444h166q2 -4 7.5 -11t28 -25t51.5 -31.5t82.5 -24.5t117.5 -11t116.5 10.5t82.5 25.5t51 30.5t28 26.5l8 10h164q-1 -6 -3.5 -15.5t-15.5 -38t-31 -54.5t-54 -57.5t-80.5 -54t-114 -38t-151.5 -15.5t-151.5 15t-115 39t-81 53.5t-54.5 58.5t-31.5 53t-16.5 39z
M1391 1044v-1044h-379v164q-51 -74 -150 -129t-241 -55q-133 0 -231 40t-156.5 114t-86.5 172.5t-28 223.5v514h379v-514q0 -272 247 -272q135 0 201 77.5t66 199.5v509h379z" />
    <glyph glyph-name="Uring" unicode="&#x16e;" horiz-adv-x="1816" 
d="M909 1532q-103 0 -165 61t-62 156t62 156t165 61t165.5 -61t62.5 -156t-62.5 -156t-165.5 -61zM909 1681q35 0 54.5 18.5t19.5 49.5q0 30 -20 49t-54 19t-53.5 -19t-19.5 -49q0 -31 19 -49.5t54 -18.5zM147 1475h398v-744q0 -465 366 -465q363 0 363 465v744h397v-744
q0 -764 -760 -764q-764 0 -764 764v744z" />
    <glyph glyph-name="uring" unicode="&#x16f;" 
d="M745 1143q-103 0 -165 60.5t-62 154.5q0 95 62 156t165 61t165.5 -61t62.5 -156q0 -94 -62.5 -154.5t-165.5 -60.5zM745 1290q36 0 55 19t19 49q0 32 -19 50.5t-55 18.5q-35 0 -54 -19t-19 -50q0 -30 19.5 -49t53.5 -19zM1391 1044v-1044h-379v164q-50 -73 -149.5 -128.5
t-239.5 -55.5q-134 0 -232.5 40t-157 114.5t-86.5 172.5t-28 223v514h379v-514q0 -123 58 -197.5t189 -74.5q135 0 201 77.5t66 199.5v509h379z" />
    <glyph glyph-name="Uhungarumlaut" unicode="&#x170;" horiz-adv-x="1816" 
d="M610 1585l148 348h256l-185 -348h-219zM985 1585l148 348h258l-187 -348h-219zM147 1475h398v-744q0 -465 364 -465q365 0 365 465v744h397v-744q0 -764 -762 -764t-762 764v744z" />
    <glyph glyph-name="uhungarumlaut" unicode="&#x171;" 
d="M449 1196l147 348h256l-184 -348h-219zM823 1196l148 348h256l-185 -348h-219zM1391 1044v-1044h-379v164q-51 -74 -150 -129t-241 -55q-133 0 -231 40t-156.5 114t-86.5 172.5t-28 223.5v514h379v-514q0 -272 247 -272q135 0 201 77.5t66 199.5v509h379z" />
    <glyph glyph-name="Uogonek" unicode="&#x172;" horiz-adv-x="1816" 
d="M147 1475h398v-744q0 -465 364 -465q365 0 365 465v744h397v-744q0 -667 -581 -751q-125 -44 -125 -125q0 -32 17.5 -52.5t49 -29t56.5 -11t59 -2.5v-178q-51 -2 -99.5 1t-103 15.5t-94.5 34t-67.5 60.5t-28.5 92q0 119 137 182q-744 9 -744 764v744z" />
    <glyph glyph-name="uogonek" unicode="&#x173;" 
d="M1391 1044v-1044q-13 -1 -41 -9t-68 -24t-68 -45.5t-28 -66.5q0 -32 17.5 -52.5t49 -29t56.5 -11t59 -2.5v-178q-51 -2 -99.5 1t-103 15.5t-94.5 34t-67.5 60.5t-28.5 92q0 85 71 142t175 73h-209v164q-48 -73 -148 -128.5t-241 -55.5q-134 0 -232.5 40t-157 114.5
t-86.5 172.5t-28 223v514h379v-514q0 -123 58 -197.5t189 -74.5q136 0 201.5 77.5t65.5 199.5v509h379z" />
    <glyph glyph-name="Wcircumflex" unicode="&#x174;" horiz-adv-x="2557" 
d="M778 1573l355 323h278l354 -323h-280l-213 145l-215 -145h-279zM498 0l-461 1475h422l317 -1092l318 1092h368l318 -1092l317 1092h424l-461 -1475h-497l-285 971l-283 -971h-497z" />
    <glyph glyph-name="wcircumflex" unicode="&#x175;" horiz-adv-x="2158" 
d="M588 1184l354 323h279l354 -323h-281l-213 145l-215 -145h-278zM442 0l-401 1044h410l247 -698l232 698h299l229 -698l250 698h408l-400 -1044h-422l-215 647l-217 -647h-420z" />
    <glyph glyph-name="Ycircumflex" unicode="&#x176;" horiz-adv-x="1744" 
d="M389 1573l352 323h279l354 -323h-278l-213 145l-217 -145h-277zM674 0v592l-647 883h448l397 -566l398 566h448l-647 -883v-592h-397z" />
    <glyph glyph-name="ycircumflex" unicode="&#x177;" horiz-adv-x="1476" 
d="M244 1184l354 323h279l354 -323h-281l-213 145l-215 -145h-278zM219 -492v267q116 0 190 59t126 178l-494 1032h410l288 -708l283 708h414l-494 -1032q-136 -281 -303 -392.5t-420 -111.5z" />
    <glyph glyph-name="Ydieresis" unicode="&#x178;" horiz-adv-x="1744" 
d="M614 1561q-84 0 -136 52t-52 136q0 83 51.5 134.5t136.5 51.5q82 0 134.5 -51.5t52.5 -134.5t-52.5 -135.5t-134.5 -52.5zM1155 1561q-83 0 -134.5 52.5t-51.5 135.5t51.5 134.5t134.5 51.5t134.5 -51.5t51.5 -134.5t-51.5 -135.5t-134.5 -52.5zM674 0v592l-649 883h450
l397 -566l398 566h448l-647 -883v-592h-397z" />
    <glyph glyph-name="Zacute" unicode="&#x179;" horiz-adv-x="1632" 
d="M625 1583l258 246h444l-340 -246h-362zM98 0v231l863 945h-846v299h1415v-230l-862 -946h868v-299h-1438z" />
    <glyph glyph-name="zacute" unicode="&#x17a;" horiz-adv-x="1296" 
d="M442 1194l258 246h445l-340 -246h-363zM82 0v213l614 553h-590v278h1100v-213l-614 -552h625v-279h-1135z" />
    <glyph glyph-name="Zdotaccent" unicode="&#x17b;" horiz-adv-x="1632" 
d="M825 1561q-84 0 -136 52t-52 136q0 83 51.5 134.5t136.5 51.5q83 0 135 -51.5t52 -134.5t-52 -135.5t-135 -52.5zM98 0v231l863 945h-848v299h1417v-230l-864 -946h870v-299h-1438z" />
    <glyph glyph-name="zdotaccent" unicode="&#x17c;" horiz-adv-x="1296" 
d="M643 1171q-84 0 -136 52.5t-52 136.5q0 83 51.5 134.5t136.5 51.5q83 0 134.5 -51.5t51.5 -134.5q0 -84 -51.5 -136.5t-134.5 -52.5zM82 0v213l616 553h-594v278h1102v-213l-614 -552h625v-279h-1135z" />
    <glyph glyph-name="Zcaron" unicode="&#x17d;" horiz-adv-x="1632" 
d="M684 1583l-354 324h278l215 -146l213 146h281l-354 -324h-279zM98 0v231l863 945h-846v299h1415v-230l-862 -946h868v-299h-1438z" />
    <glyph glyph-name="zcaron" unicode="&#x17e;" horiz-adv-x="1296" 
d="M502 1194l-355 324h279l215 -146l213 146h281l-355 -324h-278zM82 0v213l614 553h-590v278h1100v-213l-614 -552h625v-279h-1135z" />
    <glyph glyph-name="longs" unicode="&#x17f;" horiz-adv-x="935" 
d="M129 0v1090q0 236 113.5 357.5t365.5 121.5q90 0 165.5 -15.5t105.5 -31.5l30 -15l-86 -231q-55 14 -131 14q-101 0 -142.5 -51t-41.5 -149v-1090h-379z" />
    <glyph glyph-name="florin" unicode="&#x192;" horiz-adv-x="1654" 
d="M391 762l51 246h314l26 133q11 49 29 91t54.5 88.5t86 79t128 54t175.5 21.5h297l-53 -244h-186q-90 0 -127 -31.5t-49 -89.5l-21 -102h316l-52 -246h-313l-193 -920q-10 -48 -28 -91t-54.5 -89t-86.5 -78.5t-128.5 -54t-175.5 -21.5h-299l56 246h184q91 0 127.5 30.5
t48.5 90.5l187 887h-314z" />
    <glyph glyph-name="uni0218" unicode="&#x218;" horiz-adv-x="1636" 
d="M92 313l334 103q15 -21 38.5 -41t70 -47.5t123.5 -44.5t173 -17q161 0 238.5 44t77.5 120q0 68 -80.5 107t-288.5 71q-181 28 -308 73t-198 106t-102 130t-31 154q0 199 183.5 317.5t504.5 118.5q258 0 430 -87.5t244 -227.5l-336 -100q-26 31 -56 53t-101.5 42.5
t-169.5 20.5q-137 0 -218 -37t-81 -104q0 -42 28.5 -71.5t112 -56.5t231.5 -48q316 -40 474.5 -147.5t158.5 -315.5t-187 -334.5t-526 -126.5q-130 0 -242.5 20.5t-191.5 54t-142 79.5t-101.5 93t-61.5 99zM502 -481l162 372h370l-239 -372h-293z" />
    <glyph glyph-name="uni0219" unicode="&#x219;" horiz-adv-x="1286" 
d="M72 205l274 98q100 -82 289 -82q201 0 201 88q0 39 -48 61t-172 44q-262 39 -380.5 115t-118.5 214q0 152 149 239t389 87q199 0 335 -63t198 -156l-273 -96q-109 69 -245 69q-86 0 -130 -21.5t-44 -58.5q0 -33 43 -52.5t161 -39.5q100 -13 173 -29t140.5 -42t109.5 -61
t66.5 -86.5t24.5 -117.5q0 -163 -150.5 -251.5t-414.5 -88.5q-214 0 -363 63.5t-214 166.5zM309 -506l162 373h371l-240 -373h-293z" />
    <glyph glyph-name="uni021A" unicode="&#x21a;" horiz-adv-x="1660" 
d="M631 0v1176h-594v299h1587v-299h-596v-1176h-397zM510 -475l160 375h370l-239 -375h-291z" />
    <glyph glyph-name="uni021B" unicode="&#x21b;" horiz-adv-x="1114" 
d="M750 -25q-130 0 -220.5 33t-142 98.5t-74 151.5t-22.5 205v303h-223v278h223v291h379v-291h331v-278h-331v-303q0 -106 33.5 -157.5t132.5 -51.5q33 0 64.5 4t47.5 8l15 4l84 -227q-4 -3 -12 -7.5t-35.5 -16t-59 -20.5t-83 -16.5t-107.5 -7.5zM344 -481l162 372h368
l-237 -372h-293z" />
    <glyph glyph-name="uni0237" unicode="&#x237;" horiz-adv-x="659" 
d="M-258 -451l84 252q84 -14 137 -14q105 0 141.5 53t36.5 183v1021h379v-1021q0 -135 -24.5 -228.5t-82.5 -159.5t-155 -96.5t-240 -30.5q-30 0 -59.5 2t-55 5.5t-47 7t-42 8t-32.5 7.5t-25.5 7t-14.5 4z" />
    <glyph glyph-name="circumflex" unicode="&#x2c6;" horiz-adv-x="1191" 
d="M102 1151l355 324h278l355 -324h-281l-213 145l-215 -145h-279z" />
    <glyph glyph-name="caron" unicode="&#x2c7;" horiz-adv-x="1191" 
d="M457 1151l-355 324h279l215 -146l213 146h281l-355 -324h-278z" />
    <glyph glyph-name="uni02C9" unicode="&#x2c9;" horiz-adv-x="1089" 
d="M102 1292v183h885v-183h-885z" />
    <glyph glyph-name="breve" unicode="&#x2d8;" horiz-adv-x="1107" 
d="M102 1475h166q2 -4 7.5 -11t28 -25t51.5 -31.5t82.5 -24.5t117.5 -11t116.5 10.5t83 26t51.5 30.5t28 25l8 11h164q-1 -6 -3.5 -15.5t-15.5 -38t-31.5 -54.5t-54 -57.5t-80.5 -54t-114.5 -38t-151.5 -15.5q-65 0 -121.5 9.5t-98 25t-77 36t-58.5 43t-41.5 45.5t-29 43.5
t-17 36t-8.5 25.5z" />
    <glyph glyph-name="dotaccent" unicode="&#x2d9;" horiz-adv-x="579" 
d="M291 1153q-85 0 -137 52.5t-52 135.5q0 82 52.5 134.5t136.5 52.5q83 0 134.5 -52.5t51.5 -134.5q0 -83 -51.5 -135.5t-134.5 -52.5z" />
    <glyph glyph-name="ring" unicode="&#x2da;" horiz-adv-x="659" 
d="M330 1147q-103 0 -165.5 60.5t-62.5 154.5q0 95 62.5 156t165.5 61t165 -61t62 -156q0 -94 -62 -154.5t-165 -60.5zM330 1294q36 0 56 19t20 49q0 32 -20 51t-56 19q-35 0 -55.5 -19.5t-20.5 -50.5q0 -30 20.5 -49t55.5 -19z" />
    <glyph glyph-name="ogonek" unicode="&#x2db;" horiz-adv-x="620" 
d="M496 -240v-178q-42 -2 -82.5 0t-86.5 9t-84.5 21.5t-71 36.5t-51 57t-18.5 79q0 85 70.5 142t173.5 73h172q-14 -1 -42 -9t-68 -24t-68.5 -45.5t-28.5 -66.5q0 -32 17.5 -52.5t50 -29t58 -11t59.5 -2.5z" />
    <glyph glyph-name="tilde" unicode="&#x2dc;" horiz-adv-x="1075" 
d="M272 1253h-170q0 6 1 15.5t7 37.5t16 54t31 57t49 53.5t73 38t100 15.5q61 0 107.5 -22t95.5 -62q43 -34 68 -42q23 -7 50 -7q42 0 67.5 21t30.5 42l5 21h170q0 -6 -1 -15.5t-7 -37.5t-15.5 -54t-30.5 -57t-48.5 -53.5t-72 -38t-98.5 -15.5q-109 0 -200 78
q-36 29 -61.5 42t-59.5 13q-27 0 -48.5 -8.5t-32 -21t-17 -25t-7.5 -20.5z" />
    <glyph glyph-name="hungarumlaut" unicode="&#x2dd;" horiz-adv-x="983" 
d="M102 1126l148 349h256l-184 -349h-220zM479 1126l146 349h258l-185 -349h-219z" />
    <glyph glyph-name="uni0326" unicode="&#x326;" horiz-adv-x="737" 
d="M102 -469l162 373h371l-240 -373h-293z" />
    <glyph glyph-name="uni03A9" unicode="&#x3a9;" horiz-adv-x="1972" 
d="M147 0v299h390q-9 3 -25 8.5t-61.5 27.5t-87 49t-92 73t-87 99t-61.5 129.5t-25 160.5q0 198 113.5 349t315 231.5t460.5 80.5t460.5 -80.5t315 -231.5t113.5 -349q0 -84 -24.5 -159.5t-63 -129.5t-85.5 -99t-94 -73.5t-85.5 -48.5t-63.5 -28l-24 -9h391v-299h-717v256
q67 37 125 81.5t116.5 107.5t93 147t34.5 176q0 143 -64.5 243.5t-174 148.5t-253.5 48q-220 0 -355.5 -113.5t-135.5 -326.5q0 -75 24 -145t60.5 -123t87.5 -101.5t97.5 -81t98.5 -61.5v-256h-717z" />
    <glyph glyph-name="pi" unicode="&#x3c0;" horiz-adv-x="1828" 
d="M344 0v766h-240v278h1625v-278h-242v-412q0 -45 22 -62.5t70 -17.5h23v-274h-156q-80 0 -140 17.5t-97.5 48t-60.5 76.5t-31.5 96.5t-8.5 115.5v412h-383v-766h-381z" />
    <glyph glyph-name="uni0401" unicode="&#x401;" horiz-adv-x="1652" 
d="M549 1561q-83 0 -136 52.5t-53 135.5t52.5 134.5t136.5 51.5q83 0 134.5 -51.5t51.5 -134.5t-51.5 -135.5t-134.5 -52.5zM1090 1561q-83 0 -136 52.5t-53 135.5t52.5 134.5t136.5 51.5q83 0 134.5 -51.5t51.5 -134.5t-51.5 -135.5t-134.5 -52.5zM147 0v1475h1366v-299
h-968v-279h876v-287h-876v-311h981v-299h-1379z" />
    <glyph glyph-name="uni0402" unicode="&#x402;" horiz-adv-x="2035" 
d="M631 0v1176h-594v299h1587v-299h-596v-402q146 168 393 168q134 0 232 -39t156.5 -112.5t86 -171t27.5 -222.5v-102q-1 -131 -25.5 -223t-80 -155.5t-145.5 -94t-220 -31.5q-157 0 -250 35l82 252q92 -8 109 -8q90 0 120.5 52t30.5 181v94q0 267 -248 267
q-136 0 -202 -70t-66 -184v-410h-397z" />
    <glyph glyph-name="uni0403" unicode="&#x403;" horiz-adv-x="1462" 
d="M586 1567l256 245h446l-340 -245h-362zM147 0v1475h1278v-299h-880v-1176h-398z" />
    <glyph glyph-name="uni0404" unicode="&#x404;" horiz-adv-x="1845" 
d="M993 -33q-262 0 -462.5 87.5t-316.5 263.5t-116 419t116 419t316.5 263.5t462.5 87.5q291 0 494.5 -114.5t279.5 -290.5l-372 -80q-133 186 -402 186q-190 0 -320 -90.5t-163 -253.5h668v-239h-670q30 -170 161 -264.5t324 -94.5q73 0 136 14t103 33t76 47.5t52.5 48
t34.5 44.5l372 -80q-77 -176 -280 -291t-494 -115z" />
    <glyph glyph-name="uni0405" unicode="&#x405;" horiz-adv-x="1636" 
d="M92 313l334 103q15 -21 38.5 -41t70 -47.5t123.5 -44.5t173 -17q161 0 238.5 44t77.5 120q0 68 -80.5 107t-288.5 71q-181 28 -308 73t-198 106t-102 130t-31 154q0 199 183.5 317.5t504.5 118.5q258 0 430 -87.5t244 -227.5l-336 -100q-26 31 -56 53t-101.5 42.5
t-169.5 20.5q-137 0 -218 -37t-81 -104q0 -42 28.5 -71.5t112 -56.5t231.5 -48q316 -40 474.5 -147.5t158.5 -315.5t-187 -334.5t-526 -126.5q-130 0 -242.5 20.5t-191.5 54t-142 79.5t-101.5 93t-61.5 99z" />
    <glyph glyph-name="uni0406" unicode="&#x406;" horiz-adv-x="720" 
d="M162 0v1475h397v-1475h-397z" />
    <glyph glyph-name="uni0407" unicode="&#x407;" horiz-adv-x="720" 
d="M100 1561q-85 0 -137.5 52.5t-52.5 135.5t52.5 134.5t137.5 51.5q82 0 133.5 -51.5t51.5 -134.5t-51.5 -135.5t-133.5 -52.5zM641 1561q-85 0 -137.5 52.5t-52.5 135.5t52.5 134.5t137.5 51.5q82 0 134 -51.5t52 -134.5t-52 -135.5t-134 -52.5zM162 0v1475h397v-1475
h-397z" />
    <glyph glyph-name="uni0408" unicode="&#x408;" horiz-adv-x="1558" 
d="M98 420l379 49q8 -34 24 -65.5t46 -64.5t81 -53t117 -20q269 0 269 279v930h397v-930q0 -149 -48.5 -261t-138 -180.5t-209.5 -102.5t-270 -34q-133 0 -241 28t-177.5 72t-119.5 105.5t-74.5 121.5t-34.5 126z" />
    <glyph glyph-name="uni0409" unicode="&#x409;" horiz-adv-x="2908" 
d="M47 0v299q149 0 205.5 97.5t56.5 324.5v754h1401v-566h531q105 0 191.5 -17t148 -48t106.5 -72.5t71.5 -93.5t39 -106.5t12.5 -116.5q0 -75 -17.5 -139.5t-59 -124t-105.5 -101t-162.5 -66t-224.5 -24.5h-930v1176h-602v-545q0 -181 -40.5 -304t-126.5 -194.5t-205 -102
t-290 -30.5zM1710 283h449q141 0 198.5 44t57.5 128q0 85 -57 129.5t-199 44.5h-449v-346z" />
    <glyph glyph-name="uni040A" unicode="&#x40a;" horiz-adv-x="2881" 
d="M147 0v1475h398v-568h739v568h399v-566h531q126 0 225 -24.5t162.5 -66.5t105 -101t59 -124t17.5 -140q0 -94 -29 -172t-92.5 -143t-177.5 -101.5t-270 -36.5h-930v608h-739v-608h-398zM1683 281h449q142 0 199 44.5t57 129.5q0 84 -57.5 129t-198.5 45h-449v-348z" />
    <glyph glyph-name="uni040B" unicode="&#x40b;" horiz-adv-x="2035" 
d="M1923 0h-379v395q0 269 -248 269q-136 0 -202 -70t-66 -186v-408h-397v1176h-594v299h1587v-299h-596v-402q146 168 393 168q134 0 232 -39t156.5 -113t86 -171.5t27.5 -223.5v-395z" />
    <glyph glyph-name="uni040C" unicode="&#x40c;" horiz-adv-x="1781" 
d="M674 1583l256 246h446l-340 -246h-362zM147 0v1475h398v-654l712 654h484l-690 -629l692 -846h-449l-522 629l-227 -185v-444h-398z" />
    <glyph glyph-name="uni040E" unicode="&#x40e;" horiz-adv-x="1744" 
d="M420 1837h166q2 -4 7.5 -11t27.5 -24.5t51 -31t82.5 -24.5t117.5 -11t116.5 10.5t83 25.5t51.5 30t29 25l7 11h164q-1 -6 -3.5 -15.5t-15.5 -38t-31.5 -54t-54 -57t-80.5 -54t-114.5 -38t-151.5 -15.5t-151.5 15t-114.5 39t-80.5 53t-54.5 58t-31.5 53t-15.5 39zM301 0
v299q118 0 186 39.5t134 142.5l-594 994h426l419 -711l422 711h424l-583 -975q-48 -80 -83.5 -133t-82 -110.5t-90.5 -93.5t-103.5 -70t-127.5 -52.5t-154.5 -29.5t-192.5 -11z" />
    <glyph glyph-name="uni040F" unicode="&#x40f;" horiz-adv-x="1812" 
d="M147 0v1475h398v-1176h721v1176h399v-1475h-559v-340h-399v340h-560z" />
    <glyph glyph-name="uni0410" unicode="&#x410;" horiz-adv-x="1939" 
d="M37 0l688 1475h489l689 -1475h-420l-137 305h-752l-137 -305h-420zM721 588h498l-250 555z" />
    <glyph glyph-name="uni0411" unicode="&#x411;" horiz-adv-x="1771" 
d="M147 0v1475h1401v-299h-1003v-263h561q128 0 228 -25t163 -66.5t104 -100t57.5 -120.5t16.5 -134q0 -71 -16.5 -135t-57.5 -126t-104 -106.5t-163.5 -72t-227.5 -27.5h-959zM545 299h479q256 0 256 170t-256 170h-479v-340z" />
    <glyph glyph-name="uni0412" unicode="&#x412;" horiz-adv-x="1781" 
d="M147 0v1475h836q647 0 647 -402q0 -114 -65.5 -196.5t-149.5 -110.5q115 -29 193 -113t78 -215q0 -204 -166 -321t-506 -117h-867zM545 874h469q109 0 164 43t55 111q0 67 -59.5 107.5t-190.5 40.5h-438v-302zM545 299h477q134 0 200 46.5t66 121.5t-65 121.5t-181 46.5
h-497v-336z" />
    <glyph glyph-name="uni0413" unicode="&#x413;" horiz-adv-x="1462" 
d="M147 0v1475h1278v-299h-880v-1176h-398z" />
    <glyph glyph-name="uni0414" unicode="&#x414;" horiz-adv-x="2039" 
d="M70 -270v567h215q96 277 134 545.5t46 632.5h1302v-1178h205v-567h-397v270h-1098v-270h-407zM684 297h686v879h-524q-7 -242 -52 -478t-110 -401z" />
    <glyph glyph-name="uni0415" unicode="&#x415;" horiz-adv-x="1652" 
d="M147 0v1475h1366v-299h-968v-279h876v-287h-876v-311h981v-299h-1379z" />
    <glyph glyph-name="uni0416" unicode="&#x416;" horiz-adv-x="2635" 
d="M37 0l694 791l-682 684h449l618 -615v615h402v-615l616 615h451l-682 -684l694 -791h-432l-647 717v-717h-402v717l-647 -717h-432z" />
    <glyph glyph-name="uni0417" unicode="&#x417;" horiz-adv-x="1693" 
d="M98 391l389 27q2 -6 8 -15t32 -33t61.5 -42.5t102.5 -33.5t149 -15q169 0 262.5 48.5t93.5 131.5q0 43 -22.5 72.5t-65.5 48.5t-123 29t-176.5 14t-243.5 4v250q229 0 356.5 17t180.5 53t53 100q0 70 -84.5 109.5t-239.5 39.5q-74 0 -134 -14.5t-93 -35t-55.5 -41.5
t-29.5 -35l-7 -15l-389 26q2 9 6 23.5t24.5 57.5t49.5 82.5t85 87t126.5 82t179 58t237.5 23.5q345 0 533 -112.5t188 -303.5q0 -60 -18.5 -110t-46.5 -82.5t-66.5 -58t-72 -38.5t-68.5 -22q40 -8 76 -19.5t82 -37.5t78.5 -59.5t55.5 -88.5t23 -123q0 -144 -96.5 -249
t-266 -158t-392.5 -53q-109 0 -204.5 14t-164.5 38t-126.5 54.5t-95 64.5t-66.5 68.5t-44.5 65t-25 54.5t-12.5 38z" />
    <glyph glyph-name="uni0418" unicode="&#x418;" horiz-adv-x="1863" 
d="M1716 0h-397v1014l-711 -1014h-461v1475h398v-1014l710 1014h461v-1475z" />
    <glyph glyph-name="uni0419" unicode="&#x419;" horiz-adv-x="1865" 
d="M481 1817h166q2 -4 7.5 -11t27.5 -25t51 -31.5t82 -24.5t117 -11t117.5 10.5t84 26t51.5 30.5t29 25l7 11h163q-1 -6 -3.5 -15.5t-15.5 -38t-31 -54.5t-54 -57.5t-81 -54t-114.5 -38t-152.5 -15.5q-82 0 -151 15t-114 39t-80.5 53t-54.5 58.5t-31.5 53.5t-16.5 39z
M1716 0h-397v1016l-711 -1016h-461v1475h398v-1014l710 1014h461v-1475z" />
    <glyph glyph-name="uni041A" unicode="&#x41a;" horiz-adv-x="1781" 
d="M147 0v1475h398v-654l712 654h484l-690 -629l692 -846h-449l-522 629l-227 -185v-444h-398z" />
    <glyph glyph-name="uni041B" unicode="&#x41b;" horiz-adv-x="1849" 
d="M39 0v299q149 0 205.5 97.5t56.5 324.5v754h1401v-1475h-399v1176h-603v-545q0 -181 -40.5 -304t-126 -194.5t-204.5 -102t-290 -30.5z" />
    <glyph glyph-name="uni041C" unicode="&#x41c;" horiz-adv-x="2306" 
d="M147 0v1475h558l448 -977l449 977h557v-1475h-398v1059l-483 -1059h-250l-483 1059v-1059h-398z" />
    <glyph glyph-name="uni041D" unicode="&#x41d;" horiz-adv-x="1830" 
d="M147 0v1475h398v-568h739v568h399v-1475h-399v608h-739v-608h-398z" />
    <glyph glyph-name="uni041E" unicode="&#x41e;" horiz-adv-x="1998" 
d="M999 -33q-138 0 -265.5 27t-244 87t-203 148t-137.5 218.5t-51 289.5t51 289.5t137.5 218.5t203 148t244 87t265.5 27q137 0 264.5 -27t244.5 -87t203.5 -148t138 -218.5t51.5 -289.5t-51.5 -289.5t-138 -218.5t-203.5 -148t-244.5 -87t-264.5 -27zM999 266
q227 0 365.5 131t138.5 340t-138.5 340t-365.5 131q-226 0 -364.5 -131.5t-138.5 -339.5t138.5 -339.5t364.5 -131.5z" />
    <glyph glyph-name="uni041F" unicode="&#x41f;" horiz-adv-x="1806" 
d="M147 0v1475h1512v-1475h-399v1176h-715v-1176h-398z" />
    <glyph glyph-name="uni0420" unicode="&#x420;" horiz-adv-x="1734" 
d="M147 0v1475h846q304 0 474.5 -140t170.5 -385q0 -244 -172 -384t-473 -140h-448v-426h-398zM545 725h395q154 0 226.5 60.5t72.5 164.5t-72.5 165t-226.5 61h-395v-451z" />
    <glyph glyph-name="uni0421" unicode="&#x421;" horiz-adv-x="1845" 
d="M993 -33q-262 0 -462.5 87.5t-316.5 263.5t-116 419t116 419t316.5 263.5t462.5 87.5q292 0 494.5 -114t279.5 -289l-372 -82q-127 186 -402 186q-225 0 -361 -126.5t-136 -344.5t136 -344.5t361 -126.5q274 0 402 187l372 -80q-77 -176 -279.5 -291t-494.5 -115z" />
    <glyph glyph-name="uni0422" unicode="&#x422;" horiz-adv-x="1660" 
d="M631 0v1176h-594v299h1587v-299h-596v-1176h-397z" />
    <glyph glyph-name="uni0423" unicode="&#x423;" horiz-adv-x="1744" 
d="M301 0v299q118 0 186 39.5t134 142.5l-594 994h426l419 -711l422 711h424l-583 -975q-48 -80 -83.5 -133t-82 -110.5t-90.5 -93.5t-103.5 -70t-127.5 -52.5t-154.5 -29.5t-192.5 -11z" />
    <glyph glyph-name="uni0424" unicode="&#x424;" horiz-adv-x="2205" 
d="M98 741q0 95 30 175t86 138t128.5 103t165.5 74.5t189 47t206 26.5v170h397v-170q133 -10 246.5 -33t219 -67t179.5 -105.5t118 -153t44 -205.5t-44 -205.5t-118 -153t-179.5 -105.5t-219 -66.5t-246.5 -32.5v-178h-397v178q-133 10 -246 33t-218.5 67t-179 105
t-117.5 152.5t-44 205.5zM1300 1006v-529q95 6 166.5 22.5t128 46.5t86 79t29.5 116t-29.5 116.5t-85.5 79.5t-128 46.5t-167 22.5zM496 741q0 -67 29 -116t85.5 -78.5t127 -46t165.5 -23.5v529q-95 -7 -165.5 -23.5t-127 -46.5t-85.5 -79t-29 -116z" />
    <glyph glyph-name="uni0425" unicode="&#x425;" horiz-adv-x="1841" 
d="M37 0l600 770l-563 705h436l410 -512l409 512h436l-561 -705l600 -770h-436l-448 571l-449 -571h-434z" />
    <glyph glyph-name="uni0426" unicode="&#x426;" horiz-adv-x="1937" 
d="M147 0v1475h398v-1176h721v1176h399v-1176h207v-569h-397v270h-1328z" />
    <glyph glyph-name="uni0427" unicode="&#x427;" horiz-adv-x="1808" 
d="M1266 0v549q-67 -86 -182.5 -145.5t-284.5 -59.5q-323 0 -486 163.5t-163 485.5v482h397v-476q0 -179 82 -270.5t266 -91.5q371 0 371 367v471h397v-1475h-397z" />
    <glyph glyph-name="uni0428" unicode="&#x428;" horiz-adv-x="2447" 
d="M147 0v1475h398v-1176h479v1176h399v-1176h480v1176h397v-1475h-2153z" />
    <glyph glyph-name="uni0429" unicode="&#x429;" horiz-adv-x="2572" 
d="M147 0v1475h398v-1176h479v1176h399v-1176h480v1176h397v-1176h207v-569h-398v270h-1962z" />
    <glyph glyph-name="uni042A" unicode="&#x42a;" horiz-adv-x="2189" 
d="M563 0v1176h-528v299h926v-512h555q129 0 230 -26.5t165.5 -70t106 -105.5t58.5 -127.5t17 -141.5q0 -75 -17 -143t-59 -133t-106 -112t-165 -75.5t-230 -28.5h-953zM961 299h473q264 0 264 195q0 194 -264 194h-473v-389z" />
    <glyph glyph-name="uni042B" unicode="&#x42b;" horiz-adv-x="2420" 
d="M1876 0v1475h397v-1475h-397zM147 0v1475h398v-512h553q129 0 230 -26.5t165.5 -70t106 -105.5t58.5 -127.5t17 -141.5q0 -75 -17 -143t-59 -133t-106 -112t-165 -75.5t-230 -28.5h-951zM545 299h471q264 0 264 195q0 194 -264 194h-471v-389z" />
    <glyph glyph-name="uni042C" unicode="&#x42c;" horiz-adv-x="1771" 
d="M147 0v1475h398v-512h553q129 0 230 -26.5t165.5 -70t106 -105.5t58.5 -127.5t17 -141.5q0 -75 -17 -143t-59 -133t-106 -112t-165 -75.5t-230 -28.5h-951zM545 299h471q264 0 264 195q0 194 -264 194h-471v-389z" />
    <glyph glyph-name="uni042D" unicode="&#x42d;" horiz-adv-x="1865" 
d="M872 -33q-291 0 -494 115t-280 291l373 80q18 -25 34.5 -44.5t52 -48t75.5 -47.5t103 -33t136 -14q193 0 324.5 95t161.5 264h-670v239h668q-33 163 -163.5 253.5t-320.5 90.5q-90 0 -162.5 -19t-119.5 -52t-71.5 -58t-47.5 -57l-373 80q76 176 279.5 290.5t494.5 114.5
q262 0 462.5 -87.5t316.5 -263.5t116 -419t-116 -419t-316.5 -263.5t-462.5 -87.5z" />
    <glyph glyph-name="uni042E" unicode="&#x42e;" horiz-adv-x="2752" 
d="M1753 -31q-124 0 -240.5 22t-225.5 71t-194.5 120.5t-146 176.5t-82.5 233h-319v-592h-398v1477h398v-586h319q22 128 83 232.5t146.5 175.5t194.5 119.5t225 70.5t240 22q137 0 264.5 -27t245 -87.5t204 -148t138 -219t51.5 -290.5t-51.5 -289.5t-138 -218.5t-204 -148
t-245 -87t-264.5 -27zM1753 268q226 0 365 131.5t139 339.5q0 210 -139 341.5t-365 131.5t-365 -131.5t-139 -341.5q0 -208 139 -339.5t365 -131.5z" />
    <glyph glyph-name="uni042F" unicode="&#x42f;" horiz-adv-x="1765" 
d="M1620 0h-399v481h-408l-278 -481h-435l322 545q-150 52 -234 163t-84 271q0 233 168.5 364.5t458.5 131.5h889v-1475zM1221 780v396h-437q-142 0 -212 -51.5t-70 -147.5q0 -94 70 -145.5t212 -51.5h437z" />
    <glyph glyph-name="uni0430" unicode="&#x430;" horiz-adv-x="1404" 
d="M911 0v129q-51 -72 -156 -110.5t-233 -38.5q-212 0 -326 81t-114 234q0 71 29.5 126.5t80 89.5t118 59t143.5 34.5t156.5 16.5t157 5t144.5 -1q-2 88 -58 129t-198 41q-181 0 -387 -68l-162 207q93 49 244 90t346 41q144 0 249.5 -24t171.5 -65t105.5 -106t54.5 -136.5
t15 -166.5v-567h-381zM911 459q-43 2 -93.5 1t-100.5 -3t-96.5 -12t-81.5 -25t-56.5 -41.5t-21.5 -61.5q0 -53 50 -82.5t148 -29.5q122 0 187 50t65 130v74z" />
    <glyph glyph-name="uni0431" unicode="&#x431;" horiz-adv-x="1546" 
d="M1219 1307q-36 -12 -84 -23t-112.5 -23.5t-102.5 -21.5q-49 -12 -81 -20.5t-75 -22t-72.5 -27t-63.5 -32t-57.5 -40.5t-46 -49.5t-37 -62t-22.5 -74.5q162 154 405 154q168 0 303 -66.5t213 -191t78 -285.5q0 -247 -185.5 -394.5t-502.5 -147.5q-112 0 -210.5 21
t-188.5 71t-154.5 125t-102.5 190.5t-38 261.5q0 105 14.5 195t39 160.5t64.5 131t82 105t102 83t113.5 64.5t127 50.5t132.5 40.5t140 34q45 11 156.5 35.5t165.5 38.5v-280zM772 258q144 0 228.5 74t84.5 190t-84.5 190t-228.5 74q-143 0 -226 -73.5t-83 -190.5t83 -190.5
t226 -73.5z" />
    <glyph glyph-name="uni0432" unicode="&#x432;" horiz-adv-x="1505" 
d="M129 0v1044h764q122 0 213 -17t145 -43.5t86.5 -66t44 -78t11.5 -85.5q0 -93 -45.5 -142.5t-96.5 -62.5q76 -26 125 -83.5t49 -146.5q0 -54 -14 -98.5t-49.5 -86.5t-92.5 -71t-148.5 -46t-211.5 -17h-780zM510 631h369q135 0 135 86q0 44 -37 65t-119 21h-348v-172z
M510 254h364q91 0 133 23.5t42 74.5q0 53 -39 76t-121 23h-379v-197z" />
    <glyph glyph-name="uni0433" unicode="&#x433;" horiz-adv-x="1181" 
d="M129 0v1044h987v-278h-606v-766h-381z" />
    <glyph glyph-name="uni0434" unicode="&#x434;" horiz-adv-x="1716" 
d="M70 -209v488h194q67 156 96.5 329.5t42.5 435.5h1072v-765h176v-488h-379v209h-821v-209h-381zM645 279h455v487h-367q-13 -294 -88 -487z" />
    <glyph glyph-name="uni0435" unicode="&#x435;" horiz-adv-x="1468" 
d="M82 522q0 248 179 397.5t480 149.5q114 0 215.5 -26.5t185 -81t142 -130t85 -180t13.5 -225.5h-917q5 -39 22.5 -72t51.5 -62t93.5 -46t139.5 -17q172 0 303 84l271 -104q-36 -43 -85 -80.5t-121 -74t-172.5 -58t-215.5 -21.5q-315 0 -492.5 148.5t-177.5 398.5zM465 600
h551q-5 92 -74 151.5t-201 59.5q-128 0 -196.5 -59t-79.5 -152z" />
    <glyph glyph-name="uni0436" unicode="&#x436;" horiz-adv-x="2228" 
d="M29 0l512 565l-490 479h438l435 -421v421h379v-421l434 421h438l-492 -479l515 -565h-435l-460 489v-489h-379v489l-463 -489h-432z" />
    <glyph glyph-name="uni0437" unicode="&#x437;" horiz-adv-x="1390" 
d="M84 309l340 37q1 -4 5 -9.5t22 -21t43.5 -27t75.5 -21t112 -9.5q119 0 184.5 27.5t65.5 74.5q0 56 -87 74.5t-319 18.5v157q210 0 291.5 21t81.5 76q0 40 -59 63t-170 23q-55 0 -100 -9t-71 -21.5t-44 -25t-25 -21.5l-6 -9l-342 36q2 7 6 18.5t23 46t45 65.5t75 68.5
t109 65t151.5 46t198.5 18.5q279 0 434.5 -85t155.5 -224q0 -104 -61 -160t-146 -70q32 -5 61.5 -14t62.5 -27t57.5 -41.5t40.5 -60.5t16 -82q0 -142 -160.5 -234.5t-454.5 -92.5q-94 0 -175.5 11.5t-139 30.5t-105 43.5t-77.5 51.5t-53 54.5t-34 52t-18 43.5t-8 31z" />
    <glyph glyph-name="uni0438" unicode="&#x438;" horiz-adv-x="1568" 
d="M129 0v1044h381v-686l430 686h500v-1044h-379v686l-432 -686h-500z" />
    <glyph glyph-name="uni0439" unicode="&#x439;" horiz-adv-x="1568" 
d="M328 1444h166q2 -4 7.5 -11t27.5 -25t51 -31.5t82.5 -24.5t117.5 -11t116.5 10.5t83 25.5t51.5 30.5t29 26.5l7 10h166q-1 -6 -3.5 -15.5t-16 -38t-32 -54.5t-54.5 -57.5t-81 -54t-114.5 -38t-151.5 -15.5t-151.5 15t-114.5 39t-80.5 53.5t-54.5 58.5t-31.5 53t-15.5 39z
M129 0v1044h381v-684l430 684h500v-1044h-379v686l-432 -686h-500z" />
    <glyph glyph-name="uni043A" unicode="&#x43a;" horiz-adv-x="1478" 
d="M129 0v1044h381v-393l455 393h473l-506 -444l518 -600h-430l-371 422l-139 -100v-322h-381z" />
    <glyph glyph-name="uni043B" unicode="&#x43b;" horiz-adv-x="1548" 
d="M63 0v279q96 0 127 45.5t31 179.5v540h1198v-1044h-381v766h-436v-287q0 -265 -121.5 -372t-417.5 -107z" />
    <glyph glyph-name="uni043C" unicode="&#x43c;" horiz-adv-x="1908" 
d="M129 0v1044h504l323 -671l322 671h504v-1044h-381v692l-332 -692h-227l-332 692v-692h-381z" />
    <glyph glyph-name="uni043D" unicode="&#x43d;" horiz-adv-x="1548" 
d="M129 0v1044h381v-360h530v360h379v-1044h-379v406h-530v-406h-381z" />
    <glyph glyph-name="uni043E" unicode="&#x43e;" horiz-adv-x="1546" 
d="M774 -25q-315 0 -503.5 150.5t-188.5 398.5t188 397.5t504 149.5q317 0 504.5 -149.5t187.5 -397.5q0 -249 -187.5 -399t-504.5 -150zM774 254q146 0 229.5 75t83.5 195q0 119 -83.5 194t-229.5 75t-229.5 -75t-83.5 -194q0 -120 83.5 -195t229.5 -75z" />
    <glyph glyph-name="uni043F" unicode="&#x43f;" horiz-adv-x="1505" 
d="M129 0v1044h1247v-1044h-381v766h-485v-766h-381z" />
    <glyph glyph-name="uni0440" unicode="&#x440;" horiz-adv-x="1589" 
d="M936 1065q264 0 418.5 -150t154.5 -393q0 -242 -154.5 -392t-418.5 -150q-279 0 -428 198v-670h-379v1536h379v-178q147 199 428 199zM819 786q-145 0 -228 -73.5t-83 -190.5t83 -190.5t228 -73.5q143 0 227 74t84 190t-84 190t-227 74z" />
    <glyph glyph-name="uni0441" unicode="&#x441;" horiz-adv-x="1382" 
d="M82 524q0 249 178 398t488 149q117 0 216.5 -26.5t168.5 -72t116 -99t74 -115.5l-305 -72q-29 40 -94.5 73.5t-161.5 33.5q-139 0 -219 -72.5t-80 -196.5q0 -125 80 -197.5t219 -72.5q96 0 161 34t95 74l305 -73q-27 -62 -74 -115.5t-116 -99.5t-168.5 -72.5
t-216.5 -26.5q-310 0 -488 149.5t-178 399.5z" />
    <glyph glyph-name="uni0442" unicode="&#x442;" horiz-adv-x="1376" 
d="M500 0v766h-430v278h1241v-278h-432v-766h-379z" />
    <glyph glyph-name="uni0443" unicode="&#x443;" horiz-adv-x="1476" 
d="M219 -492v267q116 0 190 59t126 178l-494 1032h410l288 -708l283 708h414l-494 -1032q-136 -281 -303 -392.5t-420 -111.5z" />
    <glyph glyph-name="uni0444" unicode="&#x444;" horiz-adv-x="2011" 
d="M817 -492v474q-357 29 -546 167.5t-189 372.5t189 373t546 168v412h381v-412q357 -29 545 -168t188 -373t-188 -372.5t-545 -167.5v-474h-381zM463 522q0 -107 79.5 -173.5t274.5 -86.5v520q-195 -20 -274.5 -86.5t-79.5 -173.5zM1198 782v-520q195 20 274.5 86.5
t79.5 173.5t-79.5 173.5t-274.5 86.5z" />
    <glyph glyph-name="uni0445" unicode="&#x445;" horiz-adv-x="1449" 
d="M31 0l436 553l-412 491h416l254 -325l254 325h416l-410 -491l436 -553h-411l-285 360l-285 -360h-409z" />
    <glyph glyph-name="uni0446" unicode="&#x446;" horiz-adv-x="1619" 
d="M129 0v1044h381v-765h485v765h379v-765h178v-488h-378v209h-1045z" />
    <glyph glyph-name="uni0447" unicode="&#x447;" 
d="M1010 0v369q-57 -78 -155.5 -124t-231.5 -46q-504 0 -504 540v305h381v-305q0 -128 55.5 -195t187.5 -67q137 0 202 70t65 196v301h381v-1044h-381z" />
    <glyph glyph-name="uni0448" unicode="&#x448;" horiz-adv-x="2164" 
d="M129 0v1044h381v-765h383v765h379v-765h385v765h379v-1044h-1907z" />
    <glyph glyph-name="uni0449" unicode="&#x449;" horiz-adv-x="2281" 
d="M129 0v1044h381v-765h383v765h379v-765h385v765h379v-765h178v-488h-379v209h-1706z" />
    <glyph glyph-name="uni044A" unicode="&#x44a;" horiz-adv-x="1796" 
d="M422 0v791h-352v253h731v-270h354q297 0 429 -98t132 -289t-132 -289t-429 -98h-733zM801 254h354q96 0 139 33.5t43 99.5t-43 99.5t-139 33.5h-354v-266z" />
    <glyph glyph-name="uni044B" unicode="&#x44b;" horiz-adv-x="2107" 
d="M1599 0v1044h379v-1044h-379zM129 0v1044h381v-270h354q151 0 259.5 -26t174.5 -76.5t96.5 -120.5t30.5 -164t-30.5 -164t-96.5 -120.5t-174.5 -76.5t-259.5 -26h-735zM510 254h354q94 0 137 33.5t43 99.5t-43 99.5t-137 33.5h-354v-266z" />
    <glyph glyph-name="uni044C" unicode="&#x44c;" horiz-adv-x="1505" 
d="M129 0v1044h381v-270h354q151 0 259.5 -26t174.5 -76.5t96.5 -120.5t30.5 -164t-30.5 -164t-96.5 -120.5t-174.5 -76.5t-259.5 -26h-735zM510 254h354q94 0 137 33.5t43 99.5t-43 99.5t-137 33.5h-354v-266z" />
    <glyph glyph-name="uni044D" unicode="&#x44d;" horiz-adv-x="1402" 
d="M82 289l307 71q30 -40 94 -73t162 -33q116 0 191.5 50.5t95.5 137.5h-420v166h416q-22 86 -95.5 135.5t-187.5 49.5q-97 0 -161.5 -34t-94.5 -75l-307 74q27 62 74 115.5t116 99t168.5 72t216.5 26.5q305 0 485.5 -150.5t180.5 -398.5q0 -246 -180.5 -396.5
t-485.5 -150.5q-117 0 -216.5 26.5t-168.5 72.5t-116 99.5t-74 115.5z" />
    <glyph glyph-name="uni044E" unicode="&#x44e;" horiz-adv-x="2144" 
d="M1372 -25q-266 0 -444 109t-230 297h-190v-381h-379v1047h379v-388h188q50 191 229 301.5t447 110.5q316 0 504 -149.5t188 -399.5q0 -247 -188.5 -397t-503.5 -150zM1372 254q146 0 228.5 74t82.5 194t-82.5 195.5t-228.5 75.5t-229.5 -75.5t-83.5 -195.5t83.5 -194
t229.5 -74z" />
    <glyph glyph-name="uni044F" unicode="&#x44f;" horiz-adv-x="1521" 
d="M76 0l258 354q-104 30 -182 114t-78 204q0 175 144.5 273.5t383.5 98.5h791v-1044h-381v311h-314l-225 -311h-397zM1012 553v238h-410q-147 0 -147 -119q0 -56 39 -87.5t110 -31.5h408z" />
    <glyph glyph-name="uni0451" unicode="&#x451;" horiz-adv-x="1468" 
d="M473 1171q-84 0 -136 52.5t-52 136.5q0 83 51.5 134.5t136.5 51.5q83 0 134.5 -51.5t51.5 -134.5q0 -84 -51.5 -136.5t-134.5 -52.5zM1014 1171q-83 0 -135 53t-52 136t52 134.5t135 51.5t134.5 -51.5t51.5 -134.5q0 -84 -51.5 -136.5t-134.5 -52.5zM82 522
q0 248 179 397.5t480 149.5q143 0 265.5 -43t212.5 -122.5t135 -203t30 -274.5h-919q5 -39 22.5 -72t51.5 -62t93.5 -46t139.5 -17q172 0 303 84l273 -104q-37 -43 -86.5 -80.5t-121.5 -74t-172.5 -58t-215.5 -21.5q-315 0 -492.5 148.5t-177.5 398.5zM465 600h551
q-5 92 -74 151.5t-201 59.5q-128 0 -196.5 -59t-79.5 -152z" />
    <glyph glyph-name="uni0452" unicode="&#x452;" horiz-adv-x="1667" 
d="M281 0v1161h-207v207h207v188h378v-188h320v-207h-320v-278q51 72 151 127t241 55q134 0 232 -40t156 -114.5t85.5 -172.5t27.5 -222v-496q0 -135 -24.5 -227.5t-82 -158t-154.5 -96t-240 -30.5q-138 0 -275 41l82 248q50 -10 137 -10q109 0 144 51.5t35 181.5v496
q0 58 -12.5 104.5t-40.5 85t-77.5 59.5t-117.5 21q-69 0 -121.5 -22t-83.5 -60.5t-46.5 -86.5t-15.5 -105v-512h-378z" />
    <glyph glyph-name="uni0453" unicode="&#x453;" horiz-adv-x="1181" 
d="M420 1194l258 246h446l-342 -246h-362zM129 0v1044h987v-278h-606v-766h-381z" />
    <glyph glyph-name="uni0454" unicode="&#x454;" horiz-adv-x="1382" 
d="M1323 289q-27 -62 -74 -115.5t-116 -99.5t-168.5 -72.5t-216.5 -26.5q-305 0 -485.5 150.5t-180.5 396.5q0 248 180.5 398.5t485.5 150.5q117 0 216.5 -26.5t168.5 -72t116 -99t74 -115.5l-307 -74q-30 41 -94.5 75t-161.5 34q-114 0 -187.5 -49.5t-95.5 -135.5h416v-166
h-420q20 -87 95.5 -137.5t191.5 -50.5q98 0 162 33t94 73z" />
    <glyph glyph-name="uni0455" unicode="&#x455;" horiz-adv-x="1286" 
d="M72 205l274 98q100 -82 289 -82q201 0 201 88q0 39 -48 61t-172 44q-262 39 -380.5 115t-118.5 214q0 152 149 239t389 87q199 0 335 -63t198 -156l-273 -96q-109 69 -245 69q-86 0 -130 -21.5t-44 -58.5q0 -33 43 -52.5t161 -39.5q100 -13 173 -29t140.5 -42t109.5 -61
t66.5 -86.5t24.5 -117.5q0 -163 -150.5 -251.5t-414.5 -88.5q-214 0 -363 63.5t-214 166.5z" />
    <glyph glyph-name="uni0456" unicode="&#x456;" horiz-adv-x="657" 
d="M330 1171q-83 0 -136 53t-53 136t52.5 134.5t136.5 51.5q83 0 134.5 -51.5t51.5 -134.5q0 -84 -51.5 -136.5t-134.5 -52.5zM139 0v1044h379v-1044h-379z" />
    <glyph glyph-name="uni0457" unicode="&#x457;" horiz-adv-x="657" 
d="M63 1171q-85 0 -137.5 52.5t-52.5 136.5q0 83 52.5 134.5t137.5 51.5q82 0 133.5 -51.5t51.5 -134.5t-51.5 -136t-133.5 -53zM604 1171q-84 0 -136 52.5t-52 136.5q0 83 51.5 134.5t136.5 51.5q82 0 134.5 -51.5t52.5 -134.5t-52.5 -136t-134.5 -53zM139 0v1044h379
v-1044h-379z" />
    <glyph glyph-name="uni0458" unicode="&#x458;" horiz-adv-x="659" 
d="M330 1171q-83 0 -135 53t-52 136t52 134.5t135 51.5t134.5 -51.5t51.5 -134.5q0 -84 -51.5 -136.5t-134.5 -52.5zM-258 -451l84 252q84 -14 137 -14q105 0 141.5 53t36.5 183v1021h379v-1021q0 -135 -24.5 -228.5t-82.5 -159.5t-155 -96.5t-240 -30.5q-30 0 -59.5 2
t-55 5.5t-47 7t-42 8t-32.5 7.5t-25.5 7t-14.5 4z" />
    <glyph glyph-name="uni0459" unicode="&#x459;" horiz-adv-x="2373" 
d="M63 0v279q96 0 127 45.5t31 179.5v540h1198v-358h314q293 0 427 -84.5t134 -257.5q0 -175 -134 -259.5t-427 -84.5h-695v766h-436v-287q0 -265 -121.5 -372t-417.5 -107zM1419 229h314q98 0 140 26t42 89q0 61 -42.5 87t-139.5 26h-314v-228z" />
    <glyph glyph-name="uni045A" unicode="&#x45a;" horiz-adv-x="2375" 
d="M129 0v1047h381v-363h530v363h379v-361h316q292 0 425.5 -85t133.5 -259q0 -173 -133.5 -257.5t-425.5 -84.5h-695v406h-530v-406h-381zM1419 229h316q96 0 138 26t42 87q0 62 -42 88.5t-138 26.5h-316v-228z" />
    <glyph glyph-name="uni045B" unicode="&#x45b;" horiz-adv-x="1650" 
d="M264 0v1182h-196v207h196v167h379v-167h336v-207h-336v-299q51 72 150.5 127t240.5 55q134 0 232 -40t156.5 -114.5t86 -173t27.5 -223.5v-514h-379v514q0 124 -58 198t-190 74q-135 0 -200.5 -77t-65.5 -199v-510h-379z" />
    <glyph glyph-name="uni045C" unicode="&#x45c;" horiz-adv-x="1478" 
d="M526 1176l258 245h447l-342 -245h-363zM129 0v1044h381v-393l455 393h473l-506 -444l518 -600h-430l-371 422l-139 -100v-322h-381z" />
    <glyph glyph-name="uni045E" unicode="&#x45e;" horiz-adv-x="1476" 
d="M285 1444h166q2 -4 7.5 -11t27.5 -25t51 -31.5t82.5 -24.5t117.5 -11t116.5 10.5t83 25.5t51.5 30.5t28 26.5l8 10h164q-1 -6 -3.5 -15.5t-15.5 -38t-31.5 -54.5t-54 -57.5t-80.5 -54t-114.5 -38t-151.5 -15.5t-151.5 15t-114.5 39t-80.5 53.5t-54.5 58.5t-31.5 53
t-16.5 39zM219 -492v267q116 0 190 59t126 178l-494 1032h410l288 -708l283 708h414l-494 -1032q-136 -281 -303 -392.5t-420 -111.5z" />
    <glyph glyph-name="uni045F" unicode="&#x45f;" horiz-adv-x="1513" 
d="M129 0v1044h381v-765h496v765h378v-1044h-438v-324h-379v324h-438z" />
    <glyph glyph-name="uni0490" unicode="&#x490;" horiz-adv-x="1462" 
d="M147 0v1475h967v229h311v-528h-880v-1176h-398z" />
    <glyph glyph-name="uni0491" unicode="&#x491;" horiz-adv-x="1181" 
d="M129 0v1044h702v220h283v-498h-604v-766h-381z" />
    <glyph glyph-name="Wgrave" unicode="&#x1e80;" horiz-adv-x="2557" 
d="M768 1829h446l259 -246h-363zM498 0l-461 1475h422l317 -1092l318 1092h368l318 -1092l317 1092h424l-461 -1475h-497l-285 971l-283 -971h-497z" />
    <glyph glyph-name="wgrave" unicode="&#x1e81;" horiz-adv-x="2158" 
d="M578 1440h446l258 -246h-362zM442 0l-401 1044h410l247 -698l232 698h299l229 -698l250 698h408l-400 -1044h-422l-215 647l-217 -647h-420z" />
    <glyph glyph-name="Wacute" unicode="&#x1e82;" horiz-adv-x="2557" 
d="M1073 1583l258 246h445l-340 -246h-363zM498 0l-461 1475h422l317 -1092l318 1092h368l318 -1092l317 1092h424l-461 -1475h-497l-285 971l-283 -971h-497z" />
    <glyph glyph-name="wacute" unicode="&#x1e83;" horiz-adv-x="2158" 
d="M881 1194l258 246h444l-340 -246h-362zM442 0l-401 1044h410l247 -698l232 698h299l229 -698l250 698h408l-400 -1044h-422l-215 647l-217 -647h-420z" />
    <glyph glyph-name="Wdieresis" unicode="&#x1e84;" horiz-adv-x="2557" 
d="M1006 1561q-83 0 -135 52.5t-52 135.5t52 134.5t135 51.5t134.5 -51.5t51.5 -134.5t-51.5 -135.5t-134.5 -52.5zM1546 1561q-83 0 -134.5 52.5t-51.5 135.5t51.5 134.5t134.5 51.5q84 0 136.5 -51.5t52.5 -134.5t-53 -135.5t-136 -52.5zM498 0l-461 1475h424l317 -1092
l318 1092h368l318 -1092l317 1092h422l-459 -1475h-499l-283 971l-285 -971h-497z" />
    <glyph glyph-name="wdieresis" unicode="&#x1e85;" horiz-adv-x="2158" 
d="M815 1171q-84 0 -136 52.5t-52 136.5q0 83 51.5 134.5t136.5 51.5q83 0 134.5 -51.5t51.5 -134.5q0 -84 -51.5 -136.5t-134.5 -52.5zM1356 1171q-83 0 -136 53t-53 136t52.5 134.5t136.5 51.5q83 0 134.5 -51.5t51.5 -134.5q0 -84 -51.5 -136.5t-134.5 -52.5zM442 0
l-401 1044h410l247 -698l232 698h299l229 -698l250 698h410l-402 -1044h-422l-215 647l-217 -647h-420z" />
    <glyph glyph-name="endash" unicode="&#x2013;" horiz-adv-x="1748" 
d="M102 526v265h1545v-265h-1545z" />
    <glyph glyph-name="emdash" unicode="&#x2014;" horiz-adv-x="2142" 
d="M102 526v265h1938v-265h-1938z" />
    <glyph glyph-name="quoteleft" unicode="&#x2018;" horiz-adv-x="667" 
d="M598 1475l-188 -508h-342l266 508h264z" />
    <glyph glyph-name="quoteright" unicode="&#x2019;" horiz-adv-x="667" 
d="M68 967l188 508h342l-266 -508h-264z" />
    <glyph glyph-name="quotesinglbase" unicode="&#x201a;" horiz-adv-x="667" 
d="M68 -213l188 508h342l-266 -508h-264z" />
    <glyph glyph-name="quotedblleft" unicode="&#x201c;" horiz-adv-x="1132" 
d="M1065 1475l-188 -508h-342l266 508h264zM598 1475l-188 -508h-342l266 508h264z" />
    <glyph glyph-name="quotedblright" unicode="&#x201d;" horiz-adv-x="1132" 
d="M68 967l188 508h342l-266 -508h-264zM535 967l188 508h342l-266 -508h-264z" />
    <glyph glyph-name="quotedblbase" unicode="&#x201e;" horiz-adv-x="1132" 
d="M68 -213l188 508h342l-266 -508h-264zM535 -213l188 508h342l-266 -508h-264z" />
    <glyph glyph-name="dagger" unicode="&#x2020;" horiz-adv-x="1128" 
d="M424 -492v1301h-320v240h320v426h285v-426h319v-240h-319v-1301h-285z" />
    <glyph glyph-name="daggerdbl" unicode="&#x2021;" horiz-adv-x="1128" 
d="M424 -492v426h-320v240h320v635h-320v240h320v426h285v-426h319v-240h-319v-635h319v-240h-319v-426h-285z" />
    <glyph glyph-name="bullet" unicode="&#x2022;" horiz-adv-x="944" 
d="M147 748q0 150 89.5 241.5t236.5 91.5t236.5 -91.5t89.5 -241.5q0 -151 -90 -242.5t-236 -91.5t-236 91.5t-90 242.5z" />
    <glyph glyph-name="ellipsis" unicode="&#x2026;" horiz-adv-x="1650" 
d="M305 -16q-83 0 -134.5 51t-51.5 131t51.5 131t134.5 51t135 -51t52 -131t-52 -131t-135 -51zM829 -16q-83 0 -134.5 51t-51.5 131t51.5 131t134.5 51t135 -51t52 -131t-52 -131t-135 -51zM1352 -16q-83 0 -135 51t-52 131t52 131t135 51t134.5 -51t51.5 -131t-51.5 -131
t-134.5 -51z" />
    <glyph glyph-name="perthousand" unicode="&#x2030;" horiz-adv-x="3115" 
d="M520 750q-191 0 -306.5 105t-115.5 267t115.5 267.5t306.5 105.5q189 0 304.5 -105.5t115.5 -267.5t-115.5 -267t-304.5 -105zM426 0l1053 1475h301l-1055 -1475h-299zM332 1122q0 -70 48.5 -111.5t139.5 -41.5q90 0 138.5 42t48.5 111q0 70 -48.5 112t-138.5 42
q-91 0 -139.5 -42t-48.5 -112zM1696 -20q-191 0 -306.5 105t-115.5 267t115.5 267.5t306.5 105.5t306.5 -105.5t115.5 -267.5t-115.5 -267t-306.5 -105zM2597 -20q-191 0 -306.5 105t-115.5 267t115.5 267.5t306.5 105.5q189 0 304.5 -105.5t115.5 -267.5t-115.5 -267
t-304.5 -105zM1507 352q0 -70 49 -111.5t140 -41.5t139.5 41.5t48.5 111.5t-48.5 112t-139.5 42t-140 -42t-49 -112zM2408 352q0 -70 49 -111.5t140 -41.5q90 0 138 41.5t48 111.5t-48 112t-138 42q-91 0 -140 -42t-49 -112z" />
    <glyph glyph-name="guilsinglleft" unicode="&#x2039;" horiz-adv-x="999" 
d="M109 557v148l776 512v-353l-371 -233l371 -232v-354z" />
    <glyph glyph-name="guilsinglright" unicode="&#x203a;" horiz-adv-x="999" 
d="M129 45v354l371 232l-371 233v353l778 -512v-148z" />
    <glyph glyph-name="fraction" unicode="&#x2044;" horiz-adv-x="1460" 
d="M102 0l1006 1475h250l-1006 -1475h-250z" />
    <glyph glyph-name="uni2070" unicode="&#x2070;" horiz-adv-x="925" 
d="M463 1065q-180 0 -294 105t-114 276q0 170 114 274.5t294 104.5t293.5 -104.5t113.5 -274.5q0 -171 -113.5 -276t-293.5 -105zM463 1257q94 0 145 52t51 137q0 84 -51 136t-145 52t-144.5 -51.5t-50.5 -136.5t50.5 -137t144.5 -52z" />
    <glyph glyph-name="uni2074" unicode="&#x2074;" horiz-adv-x="956" 
d="M55 1217v151l426 447h273v-418h145v-180h-145v-144h-232v144h-467zM293 1397h229v239z" />
    <glyph glyph-name="uni2075" unicode="&#x2075;" horiz-adv-x="870" 
d="M55 1233l207 45q6 -5 19 -12.5t60 -20t103 -12.5q75 0 107.5 19t32.5 57q0 37 -31.5 54t-108.5 17q-69 0 -162.5 -6t-152.5 -12l-59 -6l43 459h647v-177h-428l-10 -94q76 6 165 6q157 0 242.5 -63t85.5 -178q0 -117 -95.5 -181.5t-277.5 -64.5q-89 0 -161.5 17.5
t-112.5 42.5t-67.5 50t-36.5 43z" />
    <glyph glyph-name="uni2076" unicode="&#x2076;" horiz-adv-x="890" 
d="M788 1677l-204 -49q-35 29 -117 29q-91 0 -132 -35.5t-56 -103.5q99 51 192 51q176 0 270.5 -67t94.5 -183t-104.5 -186t-287.5 -70q-201 0 -293.5 82.5t-95.5 236.5q0 209 98.5 326t307.5 117q68 0 127 -15t94 -37t60.5 -44t35.5 -37zM283 1319q0 -38 41.5 -60
t119.5 -22q77 0 118.5 22t41.5 60q0 37 -41.5 58.5t-118.5 21.5q-78 0 -119.5 -21.5t-41.5 -58.5z" />
    <glyph glyph-name="uni2077" unicode="&#x2077;" horiz-adv-x="839" 
d="M174 1067l348 561h-467v187h729v-160l-364 -588h-246z" />
    <glyph glyph-name="uni2078" unicode="&#x2078;" horiz-adv-x="892" 
d="M446 1063q-177 0 -284 61.5t-107 173.5q0 69 42 111.5t100 54.5q-48 10 -84.5 46.5t-36.5 93.5q0 103 100.5 162t269.5 59t269 -59t100 -162q0 -57 -36.5 -93.5t-84.5 -46.5q58 -12 101 -54.5t43 -111.5q0 -112 -107.5 -173.5t-284.5 -61.5zM446 1530q140 0 140 59
q0 60 -140 60q-137 0 -137 -60q0 -59 137 -59zM446 1233q162 0 162 72q0 69 -162 69q-161 0 -161 -69q0 -72 161 -72z" />
    <glyph glyph-name="uni2079" unicode="&#x2079;" horiz-adv-x="890" 
d="M102 1210l205 50q35 -29 115 -29q91 0 132 36t56 103q-101 -49 -192 -49q-174 0 -268.5 66.5t-94.5 181.5q0 116 103.5 185t287.5 69q381 0 388 -316q0 -209 -98.5 -326.5t-305.5 -117.5q-68 0 -127 15t-94.5 36.5t-61 43.5t-35.5 37zM606 1569q0 38 -41.5 60t-118.5 22
q-76 0 -117.5 -22t-41.5 -60q0 -36 41.5 -58t117.5 -22t118 22t42 58z" />
    <glyph glyph-name="uni207A" unicode="&#x207a;" horiz-adv-x="679" 
d="M250 1153v176h-195v166h195v176h180v-176h195v-166h-195v-176h-180z" />
    <glyph glyph-name="uni207B" unicode="&#x207b;" horiz-adv-x="634" 
d="M55 1329v168h525v-168h-525z" />
    <glyph glyph-name="uni207C" unicode="&#x207c;" horiz-adv-x="634" 
d="M55 1479v168h525v-168h-525zM55 1237v168h525v-168h-525z" />
    <glyph glyph-name="uni207D" unicode="&#x207d;" horiz-adv-x="454" 
d="M301 1030q-5 2 -14 5.5t-34.5 18.5t-48.5 33.5t-51.5 51t-49 70t-34.5 91.5t-14 115t13.5 115t35.5 91.5t48 69.5t52 51.5t48 33t36 18.5l13 6l98 -110q-6 -4 -17 -11t-38 -32.5t-47.5 -55t-37.5 -77t-17 -99.5t16 -99t39 -77.5t46.5 -53.5t39.5 -33l16 -11z" />
    <glyph glyph-name="uni207E" unicode="&#x207e;" horiz-adv-x="454" 
d="M156 1800q10 -4 26.5 -11.5t58 -38.5t73.5 -70.5t58.5 -110.5t26.5 -154q0 -61 -13.5 -115t-35 -91.5t-47 -69.5t-51.5 -51.5t-47.5 -33t-34.5 -18.5l-14 -6l-101 111q7 4 17.5 11t38 32.5t48.5 54.5t38.5 76.5t17.5 99.5t-16.5 99t-40 77.5t-47 54t-39.5 34.5l-17 10z
" />
    <glyph glyph-name="uni207F" unicode="&#x207f;" horiz-adv-x="931" 
d="M55 733v740h215v-115q21 23 38.5 39t51.5 39.5t80 36t99 12.5q163 0 250.5 -105t87.5 -290v-357h-215v357q0 204 -189 204q-94 0 -148.5 -52t-54.5 -152v-357h-215z" />
    <glyph glyph-name="uni2080" unicode="&#x2080;" horiz-adv-x="925" 
d="M463 -348q-180 0 -294 105t-114 276q0 169 114 274t294 105t293.5 -105t113.5 -274q0 -171 -113.5 -276t-293.5 -105zM463 -158q94 0 145 53t51 138q0 83 -51 135.5t-145 52.5q-93 0 -144 -52.5t-51 -135.5q0 -85 50.5 -138t144.5 -53z" />
    <glyph glyph-name="uni2081" unicode="&#x2081;" horiz-adv-x="571" 
d="M285 -340v471l-117 -92l-150 129l306 233h192v-741h-231z" />
    <glyph glyph-name="uni2082" unicode="&#x2082;" horiz-adv-x="888" 
d="M80 -340v158l369 192q78 41 113.5 73.5t35.5 66.5q0 33 -35.5 54t-107.5 21q-41 0 -74.5 -9t-52.5 -22t-32 -26t-18 -22l-4 -9l-219 15q2 11 8 28.5t35 62t69 79t117.5 62.5t174.5 28q177 0 273.5 -68t96.5 -176q0 -89 -49.5 -141t-152.5 -101l-131 -73h338v-193h-754z
" />
    <glyph glyph-name="uni2083" unicode="&#x2083;" horiz-adv-x="903" 
d="M55 -123l221 14q1 -2 4.5 -6t17 -13.5t31 -16.5t50.5 -13t72 -6q165 0 165 70q0 37 -62.5 50t-217.5 13v131q140 0 201 15.5t61 52.5q0 57 -149 57q-56 0 -96 -13.5t-52 -26.5l-12 -13l-226 16q1 5 4 13t15 31t28.5 44.5t48 47t69.5 44.5t96 31.5t125 12.5q182 0 281 -62
t99 -157q0 -111 -116 -142q55 -11 95 -49.5t40 -110.5q0 -78 -53 -133t-140.5 -81.5t-199.5 -26.5q-60 0 -112 8t-89 21t-68 30t-51 36t-35.5 37.5t-23.5 35.5t-13 30t-7 21z" />
    <glyph glyph-name="uni2084" unicode="&#x2084;" horiz-adv-x="956" 
d="M55 -197v154l426 444h273v-417h145v-181h-145v-143h-232v143h-467zM293 -16h229v239z" />
    <glyph glyph-name="uni2085" unicode="&#x2085;" horiz-adv-x="870" 
d="M55 -180l207 43q6 -5 19 -12t60 -19t103 -12q76 0 108 18.5t32 57.5q0 37 -31.5 54t-108.5 17q-69 0 -162.5 -6.5t-152.5 -12.5l-59 -7l43 460h647v-176h-428l-10 -94q76 6 165 6q157 0 242.5 -63t85.5 -178q0 -117 -95.5 -181.5t-277.5 -64.5q-89 0 -161.5 17.5
t-112.5 42.5t-67.5 50t-36.5 42z" />
    <glyph glyph-name="uni2086" unicode="&#x2086;" horiz-adv-x="890" 
d="M788 264l-204 -49q-35 29 -117 29q-91 0 -132 -36.5t-56 -103.5q2 1 12.5 6t14 6.5t14.5 6t17 7t18 6.5t20.5 6t21 4.5t23.5 4t24.5 2.5t26.5 1q176 0 270.5 -67t94.5 -183t-104 -185t-288 -69q-201 0 -293.5 82t-95.5 235q0 209 99 327t307 118q68 0 127 -15t94 -37
t60.5 -44t35.5 -37zM283 -96q0 -38 41.5 -60t119.5 -22q77 0 118.5 22t41.5 60t-41.5 60t-118.5 22q-78 0 -119.5 -22t-41.5 -60z" />
    <glyph glyph-name="uni2087" unicode="&#x2087;" horiz-adv-x="839" 
d="M174 -346l348 561h-467v186h729v-159l-364 -588h-246z" />
    <glyph glyph-name="uni2088" unicode="&#x2088;" horiz-adv-x="892" 
d="M446 -350q-178 0 -284.5 61t-106.5 174q0 68 42 110t100 56q-48 11 -84.5 46t-36.5 93q0 102 101 162t269 60t268.5 -60t100.5 -162q0 -58 -36.5 -93t-84.5 -46q59 -14 101.5 -56t42.5 -110q0 -113 -107 -174t-285 -61zM446 117q140 0 140 59q0 60 -140 60
q-137 0 -137 -60q0 -59 137 -59zM446 -180q162 0 162 69q0 72 -162 72q-161 0 -161 -72q0 -69 161 -69z" />
    <glyph glyph-name="uni2089" unicode="&#x2089;" horiz-adv-x="890" 
d="M102 -205l205 51q35 -28 115 -28q91 0 132 35.5t56 103.5q-94 -51 -192 -51q-174 0 -268.5 67t-94.5 183t104 186t287 70q381 0 388 -320q0 -209 -98.5 -325.5t-305.5 -116.5q-68 0 -127 15t-94.5 36t-61 42.5t-35.5 36.5zM606 156q0 38 -41.5 60t-118.5 22
q-76 0 -117.5 -22t-41.5 -60q0 -37 41 -58.5t118 -21.5t118.5 21.5t41.5 58.5z" />
    <glyph glyph-name="uni208A" unicode="&#x208a;" horiz-adv-x="679" 
d="M250 -238v177h-195v165h195v177h180v-177h195v-165h-195v-177h-180z" />
    <glyph glyph-name="uni208B" unicode="&#x208b;" horiz-adv-x="634" 
d="M55 -61v167h525v-167h-525z" />
    <glyph glyph-name="uni208C" unicode="&#x208c;" horiz-adv-x="634" 
d="M55 45v168h525v-168h-525zM55 -197v166h525v-166h-525z" />
    <glyph glyph-name="uni208D" unicode="&#x208d;" horiz-adv-x="454" 
d="M301 -344q-5 2 -14 5.5t-34.5 18.5t-48.5 33.5t-51.5 51t-49 70t-34.5 91.5t-14 115t13.5 115t35.5 91.5t48 69.5t52 51.5t48 33t36 18.5l13 6l98 -111q-6 -4 -17 -11t-38 -32.5t-47.5 -54.5t-37.5 -76.5t-17 -99.5t16 -99t39 -77.5t46.5 -53.5t39.5 -33l16 -11z" />
    <glyph glyph-name="uni208E" unicode="&#x208e;" horiz-adv-x="454" 
d="M156 426q10 -4 26.5 -11.5t58 -38.5t73.5 -70.5t58.5 -110.5t26.5 -154q0 -61 -13.5 -115t-35 -91.5t-47 -69.5t-51.5 -51.5t-47.5 -33t-34.5 -18.5l-14 -6l-101 111q7 4 17.5 11t38 32.5t48.5 54.5t38.5 76.5t17.5 99.5t-16.5 99t-40 77.5t-47 53.5t-39.5 33l-17 11z
" />
    <glyph glyph-name="colonmonetary" unicode="&#x20a1;" horiz-adv-x="1845" 
d="M483 -266l78 309q-218 87 -340.5 264.5t-122.5 429.5q0 175 61.5 317.5t173 238.5t264 150t335.5 62l57 234h105l-58 -232q101 -3 195 -22l65 254h103l-70 -281q161 -50 273 -143t165 -211l-372 -82q-61 85 -144 129l-223 -885q246 13 367 187l372 -80
q-77 -176 -279.5 -291t-494.5 -115h-39l-59 -233h-107l62 241q-90 8 -193 35l-69 -276h-105zM924 270l233 918q-83 20 -196 20l-224 -886q89 -44 187 -52zM647 381l205 813q-165 -37 -260.5 -157t-95.5 -300q0 -227 151 -356z" />
    <glyph glyph-name="franc" unicode="&#x20a3;" horiz-adv-x="1753" 
d="M98 203v168h211v1104h1333v-299h-933v-359h841v-299h-841v-147h338v-168h-338v-203h-400v203h-211z" />
    <glyph glyph-name="lira" unicode="&#x20a4;" horiz-adv-x="1738" 
d="M98 739v156h195q-8 41 -8 96q0 75 25 145.5t81 136t137 114.5t202 78.5t267 29.5q125 0 230.5 -26t174 -65t120.5 -92t79 -99.5t41 -94.5l-364 -65q-15 24 -21.5 34t-31.5 35.5t-51 38t-73 24t-104 11.5q-86 0 -149 -19t-98 -52t-51.5 -72.5t-16.5 -85.5q0 -34 6 -72h522
v-156h-485q29 -94 29 -96h456v-156h-446q-6 -34 -20 -64.5t-30.5 -50t-32 -34t-25.5 -20.5l-11 -7h965v-311h-1383v289q5 3 12.5 9t29 26t39 42t35 55t24.5 66h-269v156h258q-4 19 -13 54t-11 42h-234z" />
    <glyph glyph-name="peseta" unicode="&#x20a7;" horiz-adv-x="2076" 
d="M98 874v142h213v459h844q283 0 451.5 -121.5t191.5 -337.5h182v-142h-182q-26 -210 -195.5 -329t-447.5 -119h-446v-426h-398v874h-213zM709 1016h686q-45 160 -291 160h-395v-160zM709 725h395q241 0 289 149h-684v-149z" />
    <glyph glyph-name="dong" unicode="&#x20ab;" horiz-adv-x="1753" 
d="M655 -20q-263 0 -418 150t-155 392t155.5 392.5t417.5 150.5q281 0 428 -199v316h-307v207h307v167h379v-167h226v-207h-226v-1182h-379v178q-149 -198 -428 -198zM774 258q143 0 226 73.5t83 190.5t-83 190.5t-226 73.5q-145 0 -229 -73.5t-84 -190.5t84 -190.5
t229 -73.5zM236 -313v207h1245v-207h-1245z" />
    <glyph glyph-name="Euro" unicode="&#x20ac;" horiz-adv-x="2142" 
d="M98 500l119 202h178v48v53h-297l119 182h209q74 256 304 395.5t558 139.5q292 0 495.5 -114.5t280.5 -289.5l-372 -82q-18 25 -34.5 44.5t-52.5 48t-76.5 47.5t-103.5 33t-137 14q-153 0 -268 -61.5t-174 -174.5h510l-119 -182h-442q-2 -16 -2 -53q0 -32 2 -48h561
l-119 -202h-383q62 -106 174 -163.5t260 -57.5q74 0 137 14t103.5 33t76 47t52.5 47.5t35 44.5l372 -80q-76 -176 -280 -290.5t-496 -114.5q-213 0 -387 59t-296.5 177t-174.5 284h-332z" />
    <glyph glyph-name="uni20BA" unicode="&#x20ba;" horiz-adv-x="1746" 
d="M98 782v199l287 96v398h397v-263l414 140v-195l-414 -141v-105l414 140v-195l-414 -141v-416h29q195 9 317.5 122.5t122.5 307.5h398q0 -160 -55.5 -292t-164.5 -230.5t-282 -152.5t-397 -54h-365v580l-287 -97v197l287 96v105z" />
    <glyph glyph-name="uni20BD" unicode="&#x20bd;" horiz-adv-x="1953" 
d="M98 168v168h269v92h-269v168h269v881h843q304 0 474.5 -140t170.5 -385t-171.5 -384.5t-473.5 -139.5h-446v-92h479v-168h-479v-166h-397v166h-269zM764 725h395q154 0 225.5 60.5t71.5 166.5q0 105 -71.5 165.5t-225.5 60.5h-395v-453z" />
    <glyph glyph-name="uni2113" unicode="&#x2113;" horiz-adv-x="1359" 
d="M784 -20q-131 0 -226 30t-148 84t-78 118.5t-27 143.5v105q-86 -15 -176 -15v211q89 0 176 19v387q0 197 117 314.5t348 117.5q119 0 205.5 -32.5t135 -90t71 -127.5t22.5 -155q0 -205 -138 -355.5t-388 -224.5v-131q0 -61 37.5 -96t118.5 -35q47 0 84.5 12.5t55 24.5
t46.5 37l199 -99q-22 -43 -57 -82.5t-87.5 -77.5t-128 -60.5t-162.5 -22.5zM678 741q111 44 167 128.5t56 224.5q0 127 -113 127q-54 0 -82 -33t-28 -94v-353z" />
    <glyph glyph-name="uni2116" unicode="&#x2116;" horiz-adv-x="3151" 
d="M545 0h-398v1475h461l711 -1016v1016h397v-1475h-461l-710 1014v-1014zM2484 348q-269 0 -430.5 135.5t-161.5 352.5t161.5 352t430.5 135q268 0 428 -135t160 -352t-160.5 -352.5t-427.5 -135.5zM2484 612q127 0 200 62t73 162t-73 161.5t-200 61.5q-130 0 -203 -61.5
t-73 -161.5t73.5 -162t202.5 -62zM1933 0v244h1098v-244h-1098z" />
    <glyph glyph-name="prescription" unicode="&#x211e;" horiz-adv-x="2109" 
d="M147 0v1475h846q298 0 471.5 -141t173.5 -384q0 -241 -182 -375l98 -116l175 194h352l-289 -327l289 -326h-352l-175 195l-176 -195h-352l291 326l-107 118q-94 -18 -217 -18h-448v-426h-398zM545 725h395q150 0 224.5 60.5t74.5 164.5q0 103 -75 164.5t-224 61.5h-395
v-451z" />
    <glyph glyph-name="trademark" unicode="&#x2122;" horiz-adv-x="1710" 
d="M309 864v459h-241v152h641v-152h-242v-459h-158zM827 864v611h195l213 -437l213 437h194v-611h-153v404l-199 -404h-110l-199 404v-404h-154z" />
    <glyph glyph-name="uni2126" unicode="&#x2126;" horiz-adv-x="1972" 
d="M147 0v299h390q-9 3 -25 8.5t-61.5 27.5t-87 49t-92 73t-87 99t-61.5 129.5t-25 160.5q0 198 113.5 349t315 231.5t460.5 80.5t460.5 -80.5t315 -231.5t113.5 -349q0 -84 -24.5 -159.5t-63 -129.5t-85.5 -99t-94 -73.5t-85.5 -48.5t-63.5 -28l-24 -9h391v-299h-717v256
q67 37 125 81.5t116.5 107.5t93 147t34.5 176q0 143 -64.5 243.5t-174 148.5t-253.5 48q-220 0 -355.5 -113.5t-135.5 -326.5q0 -75 24 -145t60.5 -123t87.5 -101.5t97.5 -81t98.5 -61.5v-256h-717z" />
    <glyph glyph-name="estimated" unicode="&#x212e;" horiz-adv-x="1738" 
d="M403 690v-461q78 -74 198.5 -117.5t266.5 -43.5q100 0 197.5 18.5t165 45.5t121.5 54t80 46l26 18l62 -70q-9 -8 -27 -21.5t-80.5 -48t-132.5 -61t-182 -48t-230 -21.5q-187 0 -335.5 60t-242.5 163.5t-143 238.5t-49 289q0 128 30.5 241.5t93.5 209.5t153.5 165.5
t216.5 108.5t276 39q254 0 430.5 -101.5t260.5 -280.5t81 -423h-1237zM403 778h926v473q-78 72 -197.5 114t-263.5 42q-145 0 -266.5 -45.5t-198.5 -122.5v-461z" />
    <glyph glyph-name="onethird" unicode="&#x2153;" horiz-adv-x="1976" 
d="M285 0l1005 1475h250l-1005 -1475h-250zM414 735v469l-117 -92l-150 131l306 232h192v-740h-231zM1036 219l221 12q1 -2 4.5 -6t17.5 -13.5t32 -16.5t51 -13t72 -6q165 0 165 70q0 37 -62.5 50t-217.5 13v133q141 0 201.5 15t60.5 51q0 57 -149 57q-36 0 -65.5 -5.5
t-46 -12.5t-28.5 -14.5t-16 -12.5l-4 -6l-225 14q1 5 3.5 13t14.5 31t28.5 44.5t47.5 47t69 44.5t96 31.5t126 12.5q181 0 280.5 -61.5t99.5 -155.5q0 -57 -32 -93.5t-86 -50.5q56 -9 96.5 -47.5t40.5 -112.5q0 -116 -111 -178.5t-284 -62.5q-76 0 -139 12.5t-103 33
t-71 44.5t-46.5 48.5t-25.5 45t-13 32.5z" />
    <glyph glyph-name="twothirds" unicode="&#x2154;" horiz-adv-x="2283" 
d="M172 733v160l369 192q79 41 114 72.5t35 65.5q0 33 -35.5 54t-107.5 21q-41 0 -74.5 -9t-52 -22t-31.5 -26t-17 -22l-5 -9l-220 15q2 11 8 28.5t35 62t69 79t117.5 62.5t174.5 28q177 0 274 -68t97 -176q0 -89 -50 -141t-153 -101l-131 -73h338v-193h-754zM578 0
l1005 1475h250l-1006 -1475h-249zM1343 209l222 14q4 -6 13.5 -15t54.5 -24.5t108 -15.5q166 0 166 70q0 37 -63 50t-218 13v131q140 0 201 15.5t61 52.5q0 57 -149 57q-36 0 -65.5 -5.5t-46 -12.5t-28.5 -14.5t-16 -12.5l-4 -6l-225 14q2 9 7.5 24t32.5 53.5t65.5 68
t112.5 53.5t167 24q182 0 281.5 -61.5t99.5 -155.5q0 -57 -32.5 -93t-86.5 -50q56 -11 96.5 -49.5t40.5 -110.5q0 -116 -111 -179.5t-284 -63.5q-76 0 -139 12.5t-103 33t-71 44.5t-46.5 48.5t-25.5 45t-12 32.5z" />
    <glyph glyph-name="oneeighth" unicode="&#x215b;" horiz-adv-x="1976" 
d="M285 0l1003 1475h250l-1003 -1475h-250zM414 733v469l-117 -90l-150 129l306 234h192v-742h-231zM1440 -14q-178 0 -285.5 62t-107.5 175q0 68 42 110t101 56q-49 11 -86 46t-37 93q0 102 102 162t271 60q167 0 267.5 -60t100.5 -162q0 -58 -36 -93.5t-84 -45.5
q58 -14 99.5 -56t41.5 -110q0 -113 -106.5 -175t-282.5 -62zM1440 453q139 0 139 59t-139 59q-140 0 -140 -59t140 -59zM1440 158q159 0 159 69q0 72 -159 72q-162 0 -162 -72q0 -69 162 -69z" />
    <glyph glyph-name="threeeighths" unicode="&#x215c;" horiz-adv-x="2172" 
d="M147 956l222 13q1 -2 4 -6t16.5 -13.5t31 -17t50.5 -13.5t72 -6q166 0 166 70q0 37 -63.5 50.5t-217.5 13.5v131q141 0 201.5 15.5t60.5 51.5q0 58 -149 58q-35 0 -64.5 -5.5t-46.5 -13t-28.5 -15t-15.5 -13.5l-5 -5l-225 15q1 5 4 13t15 31t28.5 44t47.5 47t69 44.5
t96 31t125 12.5q182 0 281.5 -61.5t99.5 -155.5q0 -57 -31.5 -93.5t-85.5 -50.5q56 -11 95.5 -49t39.5 -110q0 -78 -53 -133.5t-140.5 -82t-199.5 -26.5q-76 0 -139.5 12.5t-103.5 33t-71 45t-46.5 48.5t-25 44.5t-11.5 33.5zM475 0l1008 1475h248l-1006 -1475h-250z
M1636 -12q-178 0 -284.5 61t-106.5 174q0 70 41 112t100 54q-49 11 -85.5 46.5t-36.5 94.5q0 102 101.5 161t270.5 59q168 0 269.5 -59t101.5 -161q0 -59 -37 -94.5t-86 -46.5q59 -12 101.5 -54.5t42.5 -111.5q0 -113 -107 -174t-285 -61zM1636 455q140 0 140 59t-140 59
q-137 0 -137 -59t137 -59zM1636 158q162 0 162 71q0 70 -162 70q-161 0 -161 -70q0 -71 161 -71z" />
    <glyph glyph-name="fiveeighths" unicode="&#x215d;" horiz-adv-x="2156" 
d="M455 0l1007 1475h250l-1007 -1475h-250zM147 893l207 43q7 -5 20 -12t60 -19t103 -12q76 0 107.5 18.5t31.5 57.5q0 38 -31.5 54.5t-107.5 16.5q-69 0 -163 -6.5t-153 -13.5l-59 -6l43 461h647v-177h-428l-10 -96q102 8 166 8q157 0 242 -63t85 -178q0 -117 -95 -181.5
t-277 -64.5q-89 0 -161.5 17.5t-112.5 42.5t-68 50t-37 43zM1620 -12q-178 0 -284.5 61t-106.5 174q0 69 41 110.5t100 55.5q-48 11 -84.5 46.5t-36.5 94.5q0 102 101.5 161t269.5 59q169 0 270 -59t101 -161q0 -59 -37 -94.5t-86 -46.5q60 -14 101.5 -55.5t41.5 -110.5
q0 -113 -106.5 -174t-284.5 -61zM1620 455q139 0 139 59t-139 59q-137 0 -137 -59t137 -59zM1620 158q162 0 162 71q0 70 -162 70t-162 -70q0 -71 162 -71z" />
    <glyph glyph-name="seveneighths" unicode="&#x215e;" horiz-adv-x="1970" 
d="M240 0l1007 1475h248l-1006 -1475h-249zM266 727l348 561h-467v187h730v-160l-365 -588h-246zM1432 -14q-178 0 -285 62t-107 175q0 69 42 111.5t100 54.5q-48 10 -84.5 46.5t-36.5 94.5q0 102 101.5 161t269.5 59q169 0 269.5 -59t100.5 -161q0 -58 -37.5 -94t-85.5 -47
q59 -12 101.5 -54.5t42.5 -111.5q0 -113 -106.5 -175t-284.5 -62zM1432 455q139 0 139 59t-139 59q-138 0 -138 -59t138 -59zM1432 158q161 0 161 69q0 72 -161 72q-162 0 -162 -72q0 -69 162 -69z" />
    <glyph glyph-name="arrowleft" unicode="&#x2190;" horiz-adv-x="1765" 
d="M731 106l-584 519l584 518v-264l-135 -121h1022v-269h-1022l135 -118v-265z" />
    <glyph glyph-name="arrowup" unicode="&#x2191;" horiz-adv-x="1290" 
d="M776 0h-264v1010l-109 -131h-256l498 606l498 -606h-256l-111 131v-1010z" />
    <glyph glyph-name="arrowright" unicode="&#x2192;" horiz-adv-x="1765" 
d="M1618 625l-584 -519v265l135 118h-1022v269h1022l-135 121v264z" />
    <glyph glyph-name="arrowdown" unicode="&#x2193;" horiz-adv-x="1290" 
d="M512 1475h264v-1010l111 131h256l-498 -606l-498 606h256l109 -131v1010z" />
    <glyph glyph-name="uni2196" unicode="&#x2196;" horiz-adv-x="1427" 
d="M207 444l-57 791l768 -59l-183 -187l-176 12l723 -745l-184 -188l-723 745l14 -182z" />
    <glyph glyph-name="uni2198" unicode="&#x2198;" horiz-adv-x="1427" 
d="M1221 987l57 -792l-768 59l182 186l176 -12l-721 746l183 188l723 -746l-15 183z" />
    <glyph glyph-name="partialdiff" unicode="&#x2202;" horiz-adv-x="1599" 
d="M303 1149l-141 227q73 38 241.5 80.5t374.5 42.5q725 0 725 -807q0 -350 -189 -533.5t-554 -183.5q-322 0 -492 136t-170 360q0 211 163.5 341t440.5 130q185 0 428 -65q-20 179 -113.5 259t-264.5 85q-56 0 -113 -5.5t-99.5 -12t-86 -15.5t-68.5 -16t-51.5 -14.5
t-30.5 -8.5zM1133 645q-209 43 -340 43q-156 0 -237 -58t-81 -159q0 -100 77 -158.5t216 -58.5q97 0 169 31t114 86t62 123.5t20 150.5z" />
    <glyph glyph-name="uni2206" unicode="&#x2206;" horiz-adv-x="1939" 
d="M37 0l688 1475h489l689 -1475h-1866zM584 299h772l-387 846z" />
    <glyph glyph-name="product" unicode="&#x220f;" horiz-adv-x="1759" 
d="M147 0v1475h1465v-1475h-398v1176h-669v-1176h-398z" />
    <glyph glyph-name="summation" unicode="&#x2211;" horiz-adv-x="1660" 
d="M147 0v248l490 489l-479 492v246h1370v-299h-856l430 -439l-438 -438h872v-299h-1389z" />
    <glyph glyph-name="minus" unicode="&#x2212;" horiz-adv-x="1282" 
d="M102 545v278h1078v-278h-1078z" />
    <glyph glyph-name="uni2215" unicode="&#x2215;" horiz-adv-x="1460" 
d="M102 0l1006 1475h250l-1006 -1475h-250z" />
    <glyph glyph-name="uni2219" unicode="&#x2219;" horiz-adv-x="944" 
d="M147 748q0 150 89.5 241.5t236.5 91.5t236.5 -91.5t89.5 -241.5q0 -151 -90 -242.5t-236 -91.5t-236 91.5t-90 242.5z" />
    <glyph glyph-name="radical" unicode="&#x221a;" horiz-adv-x="1939" 
d="M709 0l-406 774h-201v219h435l333 -645l627 1266h342l-788 -1614h-342z" />
    <glyph glyph-name="infinity" unicode="&#x221e;" horiz-adv-x="2250" 
d="M1126 473q-77 -95 -202 -159t-277 -64q-241 0 -393 126t-152 324q0 200 152 326.5t393 126.5q151 0 276.5 -66t202.5 -163q77 97 203 163t277 66q242 0 393 -126.5t151 -326.5q0 -199 -151 -324.5t-393 -125.5q-152 0 -277.5 64.5t-202.5 158.5zM1004 700
q-123 181 -314 181q-125 0 -192.5 -52.5t-67.5 -128.5t67.5 -127t192.5 -51q193 0 314 178zM1249 700q121 -178 314 -178q125 0 192.5 51t67.5 127t-67.5 128.5t-192.5 52.5q-191 0 -314 -181z" />
    <glyph glyph-name="integral" unicode="&#x222b;" horiz-adv-x="1273" 
d="M102 -295l246 137q35 -39 60 -39q22 0 32.5 22t10.5 73v1460q0 178 93.5 283.5t270.5 105.5q60 0 114 -15.5t87 -33t68.5 -50t47 -47t32.5 -42.5q5 -6 7 -9l-245 -137q-35 39 -60 39q-22 0 -32.5 -21.5t-10.5 -72.5v-1460q0 -178 -94.5 -284t-271.5 -106q-73 0 -135 20
t-104 54t-64.5 58.5t-44.5 54.5q-5 7 -7 10z" />
    <glyph glyph-name="approxequal" unicode="&#x2248;" horiz-adv-x="1189" 
d="M102 735v250q37 37 102.5 60.5t145.5 23.5q113 0 277 -80q116 -59 213 -59q186 0 247 69v-249q-37 -38 -101.5 -61t-145.5 -23q-121 0 -275 77q-118 62 -215 62q-183 0 -248 -70zM102 297v250q37 37 102.5 60.5t145.5 23.5q113 0 277 -80q116 -59 213 -59q186 0 247 69
v-250q-37 -38 -101.5 -61t-145.5 -23q-119 0 -275 78q-118 62 -215 62q-183 0 -248 -70z" />
    <glyph glyph-name="notequal" unicode="&#x2260;" horiz-adv-x="1193" 
d="M199 176l114 178h-211v264h381l78 119h-459v264h629l115 179h145l-114 -179h215v-264h-385l-78 -119h463v-264h-633l-115 -178h-145z" />
    <glyph glyph-name="lessequal" unicode="&#x2264;" horiz-adv-x="1339" 
d="M109 748v178l1118 452v-305l-639 -237l639 -236v-305zM109 0v231h1118v-231h-1118z" />
    <glyph glyph-name="greaterequal" unicode="&#x2265;" horiz-adv-x="1339" 
d="M129 295v305l637 236l-637 237v305l1118 -452v-178zM129 0v231h1118v-231h-1118z" />
    <glyph glyph-name="uni2318" unicode="&#x2318;" horiz-adv-x="1806" 
d="M375 0q-94 0 -161 66.5t-67 160.5q0 93 67.5 161.5t160.5 68.5h74v563h-74q-93 0 -160.5 67t-67.5 160q0 94 67 161t161 67q93 0 160 -67.5t67 -160.5v-73h602v73q0 93 67.5 160.5t160.5 67.5q94 0 161.5 -67t67.5 -161q0 -92 -67.5 -159.5t-161.5 -67.5h-72v-563h72
q93 0 161 -68.5t68 -161.5q0 -94 -67.5 -160.5t-161.5 -66.5q-93 0 -160.5 67t-67.5 160v74h-602v-74q0 -93 -67 -160t-160 -67zM449 1174v73q0 31 -19.5 52.5t-54.5 21.5q-36 0 -54 -21t-18 -53t18 -52.5t54 -20.5h74zM1360 1174h72q36 0 54.5 20.5t18.5 52.5t-18.5 53
t-54.5 21q-34 0 -53 -21.5t-19 -52.5v-73zM602 457h602v563h-602v-563zM449 301h-74q-36 0 -54 -21t-18 -53q0 -31 18 -51t54 -20q35 0 54.5 20t19.5 51v74zM1360 301v-74q0 -31 19 -51t53 -20q36 0 54.5 20t18.5 51q0 32 -18.5 53t-54.5 21h-72z" />
    <glyph glyph-name="filledbox" unicode="&#x25a0;" horiz-adv-x="1736" 
d="M147 0v1475h1444v-1475h-1444z" />
    <glyph glyph-name="uni25A1" unicode="&#x25a1;" horiz-adv-x="1736" 
d="M147 0v1475h1444v-1475h-1444zM291 129h1155v1217h-1155v-1217z" />
    <glyph glyph-name="triagup" unicode="&#x25b2;" horiz-adv-x="1783" 
d="M147 2l746 1489l745 -1489h-1491z" />
    <glyph glyph-name="uni25B6" unicode="&#x25b6;" horiz-adv-x="1781" 
d="M147 -6v1491l1489 -746z" />
    <glyph glyph-name="triagrt" unicode="&#x25ba;" horiz-adv-x="1781" 
d="M147 -6v1491l1489 -746z" />
    <glyph glyph-name="triagdn" unicode="&#x25bc;" horiz-adv-x="1783" 
d="M893 -14l-746 1489h1491z" />
    <glyph glyph-name="triaglf" unicode="&#x25c4;" horiz-adv-x="1781" 
d="M147 739l1489 746v-1491z" />
    <glyph glyph-name="uni25C6" unicode="&#x25c6;" horiz-adv-x="1787" 
d="M147 739l748 746l747 -746l-747 -743z" />
    <glyph glyph-name="lozenge" unicode="&#x25ca;" horiz-adv-x="1099" 
d="M489 0l-342 737l342 738h123l342 -738l-342 -737h-123zM551 190l254 547l-254 547l-256 -547z" />
    <glyph glyph-name="uni25CF" unicode="&#x25cf;" horiz-adv-x="1280" 
d="M641 213q-134 0 -247.5 67t-180 181t-66.5 248q0 99 39.5 190.5t105.5 157.5t157.5 105.5t191.5 39.5t191.5 -39.5t157.5 -105.5t105.5 -157.5t39.5 -190.5q0 -134 -66.5 -248t-180 -181t-247.5 -67z" />
    <glyph glyph-name="smileface" unicode="&#x263a;" horiz-adv-x="1806" 
d="M903 -20q-163 0 -305.5 61t-240.5 164t-154 241.5t-56 290.5t56 290.5t154 242t240.5 164.5t305.5 61q164 0 307 -61t241 -164.5t154 -242t56 -290.5t-56 -290.5t-154 -241.5t-241 -164t-307 -61zM903 111q183 0 328.5 87t223 229.5t77.5 309.5q0 168 -77.5 310.5
t-223 229.5t-328.5 87q-182 0 -327 -87t-222.5 -229.5t-77.5 -310.5q0 -167 77.5 -309.5t222.5 -229.5t327 -87zM557 911q0 49 34.5 83t82.5 34t82.5 -34t34.5 -83q0 -47 -34.5 -80.5t-82.5 -33.5t-82.5 33.5t-34.5 80.5zM1018 911q0 49 34 83t83 34q47 0 80.5 -34t33.5 -83
q0 -47 -33.5 -80.5t-80.5 -33.5q-49 0 -83 33.5t-34 80.5zM494 555l92 88q40 -68 100.5 -109.5t111.5 -54t105 -12.5q39 0 78 7.5t83.5 25.5t86 54.5t72.5 88.5l92 -88q-59 -102 -176.5 -161.5t-235.5 -59.5q-116 0 -233 60t-176 161z" />
    <glyph glyph-name="invsmileface" unicode="&#x263b;" horiz-adv-x="1806" 
d="M903 -20q-163 0 -305.5 61t-240.5 164t-154 241.5t-56 290.5t56 290.5t154 242t240.5 164.5t305.5 61q164 0 307 -61t241 -164.5t154 -242t56 -290.5t-56 -290.5t-154 -241.5t-241 -164t-307 -61zM557 911q0 -47 34.5 -80.5t82.5 -33.5t82.5 33.5t34.5 80.5
q0 49 -34.5 83t-82.5 34t-82.5 -34t-34.5 -83zM1018 911q0 -47 34 -80.5t83 -33.5q47 0 80.5 33.5t33.5 80.5q0 49 -33.5 83t-80.5 34q-49 0 -83 -34t-34 -83zM586 643l-92 -88q59 -101 176 -161t233 -60q118 0 235.5 59.5t176.5 161.5l-92 88q-31 -52 -72.5 -88.5
t-86 -54.5t-83.5 -25.5t-78 -7.5q-54 0 -105 12.5t-111.5 54t-100.5 109.5z" />
    <glyph glyph-name="female" unicode="&#x2640;" horiz-adv-x="1320" 
d="M401 127v129h195v215q-192 25 -320.5 170t-128.5 340q0 140 69 258.5t187.5 187t258.5 68.5q139 0 257.5 -68.5t187.5 -187t69 -258.5q0 -195 -129.5 -340t-321.5 -170v-215h195v-129h-195v-197h-129v197h-195zM662 598q158 0 269 112t113 271q0 158 -112 270.5
t-270 112.5q-159 0 -271 -112t-112 -271t112 -271t271 -112z" />
    <glyph glyph-name="male" unicode="&#x2642;" horiz-adv-x="1601" 
d="M977 901l252 252l-185 -41l-112 113l524 61l-63 -522l-111 110l39 187l-252 -252q109 -140 109 -317q0 -139 -69.5 -257t-188 -186.5t-256.5 -68.5q-140 0 -259 69t-188.5 188t-69.5 259q0 139 69.5 257.5t189 187.5t258.5 69q176 0 313 -109zM664 111q158 0 270.5 112.5
t112.5 272.5q0 159 -112 270t-271 111q-160 0 -272.5 -111t-112.5 -270q0 -160 112.5 -272.5t272.5 -112.5z" />
    <glyph glyph-name="spade" unicode="&#x2660;" horiz-adv-x="1482" 
d="M909 0h-336q8 14 20.5 41.5t39 124.5t39.5 209q-104 -74 -238 -74q-139 0 -213 92q-50 62 -62.5 129t-6 113.5t55 120t73.5 103t98 108.5q9 11 14 16q91 100 195 247t153 259q51 -112 155 -259.5t194 -246.5q121 -130 164 -190q117 -165 67 -303q-18 -49 -57 -97
q-74 -92 -213 -92q-134 0 -238 74q12 -112 36 -206t42 -131z" />
    <glyph glyph-name="club" unicode="&#x2663;" horiz-adv-x="1675" 
d="M1006 0h-336q8 23 21 65.5t40 168.5t39 247q-35 -35 -57 -54t-62.5 -46t-88 -40t-103.5 -13q-103 0 -188 65t-113 166q-20 76 2.5 155.5t82 139.5t140.5 80q48 10 92 10q63 0 135 -16q-78 131 -78 260q0 127 90 217t216 90q128 0 217.5 -89.5t89.5 -217.5
q0 -129 -78 -260q72 16 135 16q44 0 92 -10q81 -20 140.5 -80t82.5 -139.5t3 -155.5q-28 -101 -113 -166t-188 -65q-56 0 -104 13t-88 39.5t-62.5 46t-57.5 54.5q12 -121 36.5 -241t43.5 -180z" />
    <glyph glyph-name="heart" unicode="&#x2665;" horiz-adv-x="1884" 
d="M944 -4q-93 40 -196 117.5t-198.5 179.5t-179.5 219t-138 241.5t-75.5 241.5t9 225.5t115.5 186.5q103 94 254 94q120 0 231 -62t178 -175q67 113 178.5 175t231.5 62q152 0 252 -94q98 -91 123 -222.5t-14.5 -270t-122 -283.5t-191 -269t-228.5 -221.5t-229 -144.5z" />
    <glyph glyph-name="diamond" unicode="&#x2666;" horiz-adv-x="1323" 
d="M662 -14l-515 749l515 748l516 -748z" />
    <glyph glyph-name="uni2713" unicode="&#x2713;" horiz-adv-x="1814" 
d="M524 0l-377 803h312l203 -441q44 124 107.5 262t146 288.5t188 299.5t215.5 263h350q-108 -110 -213.5 -250.5t-187.5 -277.5t-156.5 -277.5t-127 -259t-91 -211.5t-57.5 -146l-19 -53h-293z" />
    <glyph glyph-name="uniF8FF" unicode="&#xf8ff;" horiz-adv-x="792" 
 />
    <glyph glyph-name="zero.onum" horiz-adv-x="1445" 
d="M725 -25q-290 0 -466.5 149t-176.5 400q0 249 176.5 398t466.5 149q289 0 465 -149t176 -398q0 -251 -176 -400t-465 -149zM725 254q125 0 192.5 72t67.5 198q0 125 -68 197t-192 72q-125 0 -192.5 -72t-67.5 -197q0 -126 67 -198t193 -72z" />
    <glyph glyph-name="one.onum" horiz-adv-x="1011" 
d="M504 0v698l-258 -145l-205 215l496 276h346v-1044h-379z" />
    <glyph glyph-name="two.onum" horiz-adv-x="1443" 
d="M141 0v207l600 297q113 59 159 99t46 81q0 52 -54 80.5t-157 28.5q-98 0 -164 -40.5t-88 -86.5l-350 45q10 40 33 83t71 94t113 90.5t167 66t224 26.5q264 0 424 -91t160 -251q0 -117 -84.5 -196.5t-267.5 -151.5l-195 -102h551v-279h-1188z" />
    <glyph glyph-name="three.onum" horiz-adv-x="1458" 
d="M82 -84l346 43q8 -17 25 -36t49.5 -43.5t89 -40t125.5 -15.5q130 0 213.5 51.5t83.5 144.5q0 109 -119 153t-367 44v227q428 0 428 199q0 69 -62 109.5t-173 40.5q-58 0 -107.5 -14t-80 -35t-48.5 -39.5t-26 -34.5l-348 41q8 31 27 69t66.5 92t111.5 96t172.5 72.5
t238.5 30.5q273 0 440.5 -113.5t167.5 -285.5q0 -78 -27.5 -139.5t-75 -100.5t-99.5 -62.5t-111 -35.5q50 -8 96.5 -22t95 -41.5t84 -64t58 -92.5t22.5 -124q0 -205 -182 -323t-475 -118q-145 0 -261 31.5t-181.5 74t-111.5 98.5t-62.5 93.5t-22.5 69.5z" />
    <glyph glyph-name="four.onum" horiz-adv-x="1636" 
d="M82 0v258l813 786h399v-765h260v-279h-260v-369h-379v369h-833zM461 279h454v450z" />
    <glyph glyph-name="five.onum" horiz-adv-x="1447" 
d="M82 -164l274 105q13 -16 34 -32t60 -38.5t100 -36.5t132 -14q155 0 231 56t76 155q0 100 -76 155.5t-231 55.5q-116 0 -258 -21t-226 -42l-85 -21l49 886h1106v-278h-764l-19 -301q168 55 320 55q267 0 415 -131.5t148 -357.5t-173 -358t-495 -132q-115 0 -214 21.5
t-164.5 53t-117.5 73.5t-79 77.5t-43 69.5z" />
    <glyph glyph-name="six.onum" horiz-adv-x="1546" 
d="M772 -25q-353 0 -521.5 175.5t-168.5 498.5q0 408 190 630t527 222q122 0 224 -25.5t169 -67.5t109 -83.5t67 -85.5l-301 -98q-108 82 -256 82q-159 0 -251.5 -107t-104.5 -303q36 36 83 67t137 60t191 29q279 0 439.5 -137t160.5 -359q0 -226 -183 -362t-511 -136z
M776 254q149 0 230 59t81 160q0 100 -81.5 158.5t-229.5 58.5q-150 0 -230.5 -58.5t-80.5 -158.5q0 -102 80.5 -160.5t230.5 -58.5z" />
    <glyph glyph-name="seven.onum" horiz-adv-x="1386" 
d="M231 -438l676 1204h-825v278h1225v-253l-686 -1229h-390z" />
    <glyph glyph-name="eight.onum" horiz-adv-x="1560" 
d="M373 768q-92 20 -169 99.5t-77 199.5q0 198 172.5 316t482.5 118q313 0 485.5 -117.5t172.5 -316.5q0 -63 -23.5 -117.5t-61.5 -90.5t-79 -59t-82 -32q50 -13 97 -38t92 -64.5t72.5 -100.5t27.5 -135q0 -223 -183.5 -339t-517.5 -116t-517 116t-183 339q0 74 27.5 135
t73 100.5t93 64.5t97.5 38zM500 1042q0 -83 74 -132.5t208 -49.5q136 0 210.5 49.5t74.5 132.5q0 82 -75 131.5t-210 49.5q-134 0 -208 -50t-74 -131zM455 453q0 -91 86 -145t241 -54q156 0 242 54t86 145q0 92 -86 145t-242 53t-241.5 -53t-85.5 -145z" />
    <glyph glyph-name="nine.onum" horiz-adv-x="1546" 
d="M776 1071q352 0 521 -179t169 -503q0 -416 -190 -647t-526 -231q-122 0 -224.5 25.5t-169.5 67.5t-109 83.5t-67 85.5l301 98q108 -82 256 -82q160 0 252.5 109.5t104.5 310.5q-59 -59 -163 -107.5t-249 -48.5q-278 0 -439 142t-161 366q0 227 183.5 368.5t510.5 141.5z
M772 793q-148 0 -229.5 -63.5t-81.5 -168.5q0 -103 82 -166t229 -63q148 0 229.5 63t81.5 166q0 105 -81 168.5t-230 63.5z" />
    <glyph glyph-name="zero.tnum" horiz-adv-x="1722" 
d="M860 -33q-165 0 -304 48t-244.5 140.5t-165.5 241.5t-60 340t60 340t165.5 241.5t244.5 140.5t304 48q163 0 301.5 -48t244.5 -140.5t166 -241.5t60 -340t-60 -340t-166 -241.5t-244.5 -140.5t-301.5 -48zM860 266q99 0 173.5 37.5t117.5 103.5t63.5 148.5t20.5 181.5
t-20.5 181.5t-63.5 148.5t-117.5 103.5t-173.5 37.5q-100 0 -174.5 -37t-118 -103.5t-64 -149t-20.5 -181.5t20.5 -181.5t64 -149t118 -103.5t174.5 -37z" />
    <glyph glyph-name="one.tnum" horiz-adv-x="1722" 
d="M317 0v299h381v754l-262 -185l-233 215l553 392h340v-1176h379v-299h-1158z" />
    <glyph glyph-name="two.tnum" horiz-adv-x="1722" 
d="M166 0v246l686 459q70 48 107.5 75.5t80 63.5t62.5 62.5t33.5 58.5t13.5 67q0 79 -72.5 127.5t-202.5 48.5q-67 0 -122.5 -14.5t-91.5 -36t-64.5 -52t-43 -57t-24.5 -55.5l-360 49q12 54 37.5 109t79.5 121.5t127 116.5t189.5 84t256.5 34q332 0 511 -125.5t179 -337.5
q0 -91 -33.5 -170.5t-98 -145t-139 -116.5t-175.5 -104l-338 -209h792v-299h-1390z" />
    <glyph glyph-name="three.tnum" horiz-adv-x="1722" 
d="M135 387l367 25q2 -6 7 -16t30 -35t61 -44t106 -35t158 -16q160 0 254 46.5t94 131.5q0 100 -126 136t-406 36v267q251 0 370 37.5t119 134.5q0 72 -81 112.5t-228 40.5q-81 0 -145 -17t-98 -41t-56 -48t-29 -41l-6 -17l-368 25q1 6 3 15.5t12.5 39.5t25 59t42.5 68.5
t63 73.5t89.5 68.5t119 58.5t153 39.5t190.5 15.5q318 0 503 -112.5t185 -304.5q0 -68 -22.5 -123.5t-63 -94t-89.5 -64t-109 -40.5q47 -9 90.5 -24.5t87 -43t75.5 -64.5t52 -91t20 -119q0 -212 -195 -335.5t-534 -123.5q-109 0 -203.5 14.5t-162 38.5t-123.5 55.5t-92 66.5
t-63 70t-41 66.5t-23 55.5t-11 38z" />
    <glyph glyph-name="four.tnum" horiz-adv-x="1722" 
d="M45 299v279l930 897h428v-877h274v-299h-274v-299h-397v299h-961zM465 598h541v528z" />
    <glyph glyph-name="five.tnum" horiz-adv-x="1722" 
d="M131 330l371 59q30 -45 120 -84t232 -39q161 0 247.5 53t86.5 146q0 197 -348 197q-128 0 -295.5 -22t-270.5 -44l-104 -23l53 902h1245v-299h-884l-19 -275q213 47 385 47q313 0 474 -128.5t161 -354.5q0 -224 -188.5 -361t-540.5 -137q-145 0 -265.5 24t-198.5 61
t-135.5 87t-86 96.5t-39.5 94.5z" />
    <glyph glyph-name="six.tnum" horiz-adv-x="1722" 
d="M1507 1290l-301 -133q-3 2 -18.5 10t-25 12t-27.5 11.5t-35.5 12t-41 9t-51.5 7t-59 2.5q-397 0 -452 -379q67 66 179 111.5t263 45.5q135 0 246 -26.5t187.5 -72t129 -109.5t77 -137.5t24.5 -155.5q0 -88 -26 -165t-83 -145t-142 -116.5t-210 -76.5t-279 -28
q-193 0 -336 49t-231.5 142t-131 220.5t-42.5 291.5q0 213 56 374.5t159.5 262t243.5 150.5t315 50q107 0 202 -16t158.5 -39t117.5 -55t82.5 -56.5t51.5 -50.5zM526 506q0 -101 87.5 -170.5t250.5 -69.5q165 0 252.5 66t87.5 166t-87.5 165.5t-252.5 65.5
q-159 0 -248.5 -63t-89.5 -160z" />
    <glyph glyph-name="seven.tnum" horiz-adv-x="1722" 
d="M395 0l707 1176h-948v299h1405v-265l-728 -1210h-436z" />
    <glyph glyph-name="eight.tnum" horiz-adv-x="1722" 
d="M391 774q-42 9 -84 31.5t-79.5 58t-61 89t-23.5 116.5q0 200 195 319t524 119q328 0 522.5 -119t194.5 -319q0 -83 -40.5 -148.5t-94.5 -99.5t-113 -47q49 -14 96 -40t92.5 -67t73 -103t27.5 -136q0 -151 -96 -256t-264 -155t-398 -50q-232 0 -401 50t-265 155t-96 256
q0 74 27.5 136t73 103t93 67t97.5 40zM539 1044q0 -79 84 -120t239 -41q154 0 238 41t84 120t-84.5 121.5t-237.5 42.5q-154 0 -238.5 -42.5t-84.5 -121.5zM496 453q0 -90 94 -138.5t272 -48.5q175 0 270 49t95 138q0 90 -94.5 138t-270.5 48q-179 0 -272.5 -47.5
t-93.5 -138.5z" />
    <glyph glyph-name="nine.tnum" horiz-adv-x="1722" 
d="M215 184l301 133q2 -1 18.5 -9.5t25 -12t27.5 -11.5t36 -12t40.5 -9t51.5 -7t59 -2q398 0 453 379q-68 -66 -180 -112t-263 -46q-168 0 -297.5 40t-208 110t-118 159t-39.5 193q0 88 25.5 165t83 144.5t142 116t209.5 76.5t279 28q380 0 561 -183.5t181 -518.5
q0 -213 -56 -375t-160 -262.5t-244 -150.5t-315 -50q-107 0 -202 16t-158.5 39t-117.5 55t-82.5 56.5t-51.5 50.5zM1196 969q0 102 -87.5 170.5t-250.5 68.5q-166 0 -253 -65t-87 -166q0 -100 87.5 -166t252.5 -66q159 0 248.5 63.5t89.5 160.5z" />
    <glyph glyph-name="zero.tonum" horiz-adv-x="1540" 
d="M774 -25q-290 0 -466.5 149t-176.5 400q0 249 176.5 398t466.5 149q289 0 465 -149t176 -398q0 -251 -176 -400t-465 -149zM774 254q125 0 192.5 72t67.5 198q0 125 -68 197t-192 72q-125 0 -192.5 -72t-67.5 -197q0 -126 67 -198t193 -72z" />
    <glyph glyph-name="one.tonum" horiz-adv-x="1540" 
d="M276 0v279h351v419l-258 -145l-205 217l493 274h349v-765h350v-279h-1080z" />
    <glyph glyph-name="two.tonum" horiz-adv-x="1540" 
d="M186 0v207l602 297q112 59 157.5 99t45.5 81q0 52 -53 80.5t-156 28.5q-99 0 -165.5 -40.5t-88.5 -86.5l-350 45q11 40 33.5 82.5t71 94t113 91t167 66t225.5 26.5q264 0 423 -91t159 -251q0 -118 -84 -197t-268 -151l-195 -102h553v-279h-1190z" />
    <glyph glyph-name="three.tonum" horiz-adv-x="1540" 
d="M131 -84l346 43q8 -17 25 -36t49.5 -43.5t89 -40t125.5 -15.5q130 0 212.5 51.5t82.5 144.5q0 109 -118 153t-368 44v227q431 0 431 199q0 69 -63 109.5t-175 40.5q-58 0 -107.5 -14t-79.5 -35t-48 -39.5t-25 -34.5l-348 41q8 31 27 69t66.5 92t111.5 96t172.5 72.5
t238.5 30.5q272 0 440 -113.5t168 -285.5q0 -78 -28 -139.5t-76 -100.5t-100 -62.5t-111 -35.5q51 -7 97.5 -21.5t95 -42t83.5 -64t57.5 -92.5t22.5 -124q0 -205 -182 -323t-475 -118q-105 0 -195 16.5t-152 42t-113 61t-81.5 69.5t-52 70.5t-30.5 61.5t-13 46z" />
    <glyph glyph-name="four.tonum" horiz-adv-x="1540" 
d="M47 0v258l813 786h400v-765h260v-279h-260v-369h-379v369h-834zM424 279h457v450z" />
    <glyph glyph-name="five.tonum" horiz-adv-x="1540" 
d="M141 -164l273 105q14 -16 34.5 -32t59.5 -38.5t100 -36.5t133 -14q155 0 230.5 56t75.5 155q0 100 -75.5 155.5t-230.5 55.5q-116 0 -258.5 -21t-226.5 -42l-84 -21l47 886h1106v-278h-764l-18 -301q168 55 319 55q268 0 415.5 -131.5t147.5 -357.5t-172 -358t-493 -132
q-115 0 -214 21.5t-164.5 53t-117.5 73.5t-79.5 77.5t-43.5 69.5z" />
    <glyph glyph-name="six.tonum" horiz-adv-x="1540" 
d="M770 -25q-353 0 -521.5 175.5t-168.5 498.5q0 408 190 630t527 222q123 0 225.5 -25.5t169.5 -67.5t109 -83.5t67 -85.5l-301 -98q-108 82 -258 82q-159 0 -251.5 -107t-104.5 -303q36 36 83 67t137 60t191 29q281 0 441.5 -137t160.5 -359q0 -226 -183 -362t-513 -136z
M776 254q149 0 230 59t81 160q0 100 -81.5 158.5t-229.5 58.5q-151 0 -232 -58.5t-81 -158.5q0 -102 81 -160.5t232 -58.5z" />
    <glyph glyph-name="seven.tonum" horiz-adv-x="1540" 
d="M305 -438l676 1204h-825v278h1224v-253l-686 -1229h-389z" />
    <glyph glyph-name="eight.tonum" horiz-adv-x="1540" 
d="M365 768q-41 9 -83 32t-80 59.5t-61.5 90.5t-23.5 117q0 198 173.5 316t483.5 118q311 0 483.5 -117.5t172.5 -316.5q0 -63 -23.5 -117.5t-61 -90.5t-79 -59t-82.5 -32q50 -13 97 -38t92 -64.5t72.5 -100.5t27.5 -135q0 -223 -183 -339t-516 -116q-334 0 -517 116
t-183 339q0 74 27.5 135t73 100.5t93 64.5t97.5 38zM489 1042q0 -83 74.5 -132.5t210.5 -49.5q134 0 208.5 49.5t74.5 132.5q0 81 -74.5 131t-208.5 50q-135 0 -210 -49.5t-75 -131.5zM446 453q0 -91 85.5 -145t242.5 -54q154 0 240 54t86 145q0 92 -85.5 145t-240.5 53
q-157 0 -242.5 -53t-85.5 -145z" />
    <glyph glyph-name="nine.tonum" horiz-adv-x="1540" 
d="M778 1071q178 0 310.5 -47.5t214 -138t121.5 -214t40 -282.5q0 -416 -189.5 -647t-522.5 -231q-99 0 -186.5 17.5t-148 44.5t-110 63t-79 69.5t-48.5 67.5l303 98q102 -82 256 -82q158 0 250.5 109.5t102.5 310.5q-57 -59 -160.5 -107.5t-249.5 -48.5q-278 0 -439 142
t-161 366q0 111 46 204t133 161.5t219.5 106.5t297.5 38zM772 793q-148 0 -229.5 -63.5t-81.5 -168.5q0 -103 82 -166t229 -63q148 0 229.5 63t81.5 166q0 105 -81 168.5t-230 63.5z" />
    <glyph glyph-name="kreska" horiz-adv-x="645" 
d="M102 1130l78 345h363l-142 -345h-299z" />
    <glyph glyph-name="slashcompup" horiz-adv-x="1656" 
d="M102 0l1262 1475h190l-1259 -1475h-193z" />
    <glyph glyph-name="slashcompsmcp" horiz-adv-x="1531" 
d="M102 0l1155 1204h175l-1160 -1204h-170z" />
    <glyph glyph-name="slashcomplw" horiz-adv-x="1464" 
d="M102 0l1086 1006h174l-1086 -1006h-174z" />
    <glyph glyph-name="slashcompsm" horiz-adv-x="1003" 
d="M102 397v221l799 449v-223z" />
    <glyph glyph-name="barcomp" horiz-adv-x="2146" 
d="M102 1053v168h1942v-168h-1942z" />
    <glyph glyph-name="barcompsmcp" horiz-adv-x="1914" 
d="M102 1077v119h1710v-119h-1710z" />
    <glyph glyph-name="barcompsm" horiz-adv-x="1116" 
d="M102 573v207h912v-207h-912z" />
    <glyph glyph-name="quoterightcomp" horiz-adv-x="581" 
d="M102 989l78 486h299l-114 -486h-263z" />
    <glyph glyph-name="quotecomp" horiz-adv-x="645" 
d="M68 1065l241 410h269l-168 -410h-342z" />
    <glyph glyph-name="zero.num" horiz-adv-x="925" 
d="M463 725q-180 0 -294 105t-114 276q0 169 114 274t294 105t293.5 -105t113.5 -274q0 -171 -113.5 -276t-293.5 -105zM463 918q94 0 145 52t51 136q0 83 -51 135.5t-145 52.5q-93 0 -144 -52.5t-51 -135.5q0 -85 50.5 -136.5t144.5 -51.5z" />
    <glyph glyph-name="one.num" horiz-adv-x="571" 
d="M285 733v471l-117 -92l-150 129l306 234h192v-742h-231z" />
    <glyph glyph-name="two.num" horiz-adv-x="888" 
d="M80 733v160l369 192q79 41 114 72.5t35 65.5q0 33 -35.5 54t-107.5 21q-41 0 -74.5 -9t-52.5 -22t-32 -26t-18 -22l-4 -9l-219 15q2 11 8 28.5t35 62t69 79t117.5 62.5t174.5 28q177 0 273.5 -68t96.5 -176q0 -89 -49.5 -141t-152.5 -101l-131 -73h338v-193h-754z" />
    <glyph glyph-name="three.num" horiz-adv-x="903" 
d="M55 950l221 15q1 -2 4.5 -6t17 -13.5t31 -17t50.5 -13.5t72 -6q165 0 165 70q0 37 -62.5 50t-217.5 13v132q141 0 201.5 15.5t60.5 51.5q0 57 -149 57q-35 0 -64.5 -5.5t-46.5 -13t-28.5 -15.5t-15.5 -14l-5 -5l-226 17q1 5 4 13t15 31t28.5 44t48 47t69.5 44.5t96 31
t125 12.5q181 0 280.5 -61.5t99.5 -155.5q0 -113 -116 -144q56 -11 95.5 -49t39.5 -110q0 -78 -53 -133.5t-140.5 -82t-199.5 -26.5q-60 0 -112 8t-89 21t-68 30t-51 35.5t-35.5 37.5t-23.5 36t-13 30t-7 21z" />
    <glyph glyph-name="four.num" horiz-adv-x="956" 
d="M55 877v153l426 445h273v-418h145v-180h-145v-144h-232v144h-467zM293 1057h229v239z" />
    <glyph glyph-name="five.num" horiz-adv-x="870" 
d="M55 893l207 43q6 -5 19 -12t60 -19t103 -12q76 0 108 18.5t32 57.5q0 37 -31.5 54t-108.5 17q-69 0 -162.5 -6.5t-152.5 -13.5l-59 -6l43 461h647v-177h-428l-10 -96q102 8 165 8q157 0 242.5 -63t85.5 -178q0 -117 -95.5 -181.5t-277.5 -64.5q-89 0 -161.5 17.5
t-112.5 42.5t-67.5 50t-36.5 43z" />
    <glyph glyph-name="six.num" horiz-adv-x="890" 
d="M788 1339l-204 -51q-35 29 -117 29q-91 0 -132 -36.5t-56 -104.5q99 51 192 51q175 0 270 -66.5t95 -181.5q0 -116 -104.5 -186t-287.5 -70q-382 0 -389 317q0 210 98.5 327.5t307.5 117.5q68 0 127 -15t94 -36.5t60.5 -43t35.5 -36.5zM283 979q0 -38 41.5 -60t119.5 -22
q77 0 118.5 22t41.5 60q0 36 -42 58t-118 22q-77 0 -119 -22t-42 -58z" />
    <glyph glyph-name="seven.num" horiz-adv-x="839" 
d="M174 727l348 561h-467v187h729v-160l-364 -588h-246z" />
    <glyph glyph-name="eight.num" horiz-adv-x="892" 
d="M446 723q-178 0 -284.5 61t-106.5 174q0 69 42 111.5t100 54.5q-48 10 -84.5 47t-36.5 95q0 102 100.5 160.5t269.5 58.5t269 -58.5t100 -160.5q0 -58 -36.5 -95t-84.5 -47q58 -12 101 -54.5t43 -111.5q0 -113 -107 -174t-285 -61zM446 1190q140 0 140 59q0 60 -140 60
q-137 0 -137 -60q0 -59 137 -59zM446 893q162 0 162 72q0 69 -162 69q-161 0 -161 -69q0 -72 161 -72z" />
    <glyph glyph-name="nine.num" horiz-adv-x="890" 
d="M102 870l205 50q35 -29 115 -29q91 0 132 35.5t56 103.5q-94 -51 -192 -51q-174 0 -268.5 67t-94.5 183t104 186t287 70q381 0 388 -320q0 -209 -98.5 -325.5t-305.5 -116.5q-68 0 -127 15t-94.5 36.5t-61 43.5t-35.5 37zM606 1229q0 38 -41.5 60t-118.5 22
q-76 0 -117.5 -22t-41.5 -60t41.5 -60t117.5 -22q77 0 118.5 22t41.5 60z" />
    <glyph glyph-name="zero.dnom" horiz-adv-x="925" 
d="M463 -6q-180 0 -294 105t-114 276q0 169 114 274t294 105t293.5 -105t113.5 -274q0 -171 -113.5 -276t-293.5 -105zM463 186q94 0 145 52t51 137q0 83 -51 135.5t-145 52.5q-93 0 -144 -52.5t-51 -135.5q0 -85 50.5 -137t144.5 -52z" />
    <glyph glyph-name="one.dnom" horiz-adv-x="608" 
d="M322 0v471l-117 -92l-150 129l305 233h193v-741h-231z" />
    <glyph glyph-name="two.dnom" horiz-adv-x="888" 
d="M80 2v158l369 192q80 41 114.5 72t34.5 65q0 33 -35.5 54.5t-107.5 21.5q-41 0 -74.5 -9t-52.5 -22t-32 -26t-18 -22l-4 -9l-219 15q2 11 8 28.5t35 62t69 79t117.5 62.5t174.5 28q177 0 273.5 -68t96.5 -176q0 -89 -49.5 -141t-152.5 -101l-131 -73h338v-191h-754z" />
    <glyph glyph-name="three.dnom" horiz-adv-x="903" 
d="M55 219l221 12q1 -2 4.5 -6t17 -13.5t31 -16.5t50.5 -13t72 -6q165 0 165 70q0 37 -62.5 50t-217.5 13v133q141 0 201.5 15t60.5 51q0 57 -149 57q-35 0 -64.5 -5.5t-46.5 -12.5t-28.5 -14.5t-15.5 -12.5l-5 -6l-226 14q1 5 4 13t15 31t28.5 44.5t48 47t69.5 44.5
t96 31.5t125 12.5q181 0 280.5 -61.5t99.5 -155.5q0 -113 -116 -144q55 -9 95 -47.5t40 -112.5q0 -78 -53 -133t-140.5 -81.5t-199.5 -26.5q-60 0 -112 8t-89 21t-68 30.5t-51 36.5t-35.5 37.5t-23.5 36t-13 30.5t-7 21z" />
    <glyph glyph-name="four.dnom" horiz-adv-x="956" 
d="M55 145v152l426 444h273v-417h145v-179h-145v-143h-232v143h-467zM293 324h229v239z" />
    <glyph glyph-name="five.dnom" horiz-adv-x="870" 
d="M55 160l207 43q6 -5 19 -12t60 -19t103 -12q76 0 108 17.5t32 55.5t-32 55t-108 17q-69 0 -162.5 -6t-152.5 -12l-59 -6l43 458h647v-176h-428l-10 -94q102 8 165 8q158 0 243 -64t85 -180t-95.5 -180.5t-277.5 -64.5q-89 0 -161.5 17.5t-112.5 43t-67.5 51t-36.5 42.5z
" />
    <glyph glyph-name="six.dnom" horiz-adv-x="890" 
d="M788 604l-204 -51q-35 29 -117 29q-91 0 -132 -36t-56 -104q101 52 192 52q176 0 270.5 -67t94.5 -183t-104.5 -186t-287.5 -70q-201 0 -293.5 82.5t-95.5 236.5q0 209 98.5 326t307.5 117q68 0 127 -15t94 -36.5t60.5 -43t35.5 -36.5zM283 244q0 -38 41.5 -60t119.5 -22
q77 0 118.5 22t41.5 60q0 37 -41.5 58.5t-118.5 21.5q-78 0 -119.5 -21.5t-41.5 -58.5z" />
    <glyph glyph-name="seven.dnom" horiz-adv-x="839" 
d="M174 0l348 561h-467v187h729v-162l-364 -586h-246z" />
    <glyph glyph-name="eight.dnom" horiz-adv-x="892" 
d="M446 -12q-177 0 -284 61.5t-107 173.5q0 69 42 111.5t100 54.5q-48 10 -84.5 46.5t-36.5 94.5q0 102 100.5 161t269.5 59q168 0 268.5 -59t100.5 -161q0 -58 -36.5 -94.5t-84.5 -46.5q58 -12 101 -54.5t43 -111.5q0 -112 -107.5 -173.5t-284.5 -61.5zM446 455
q140 0 140 59t-140 59q-137 0 -137 -59t137 -59zM446 158q162 0 162 71q0 70 -162 70q-161 0 -161 -70q0 -71 161 -71z" />
    <glyph glyph-name="nine.dnom" horiz-adv-x="890" 
d="M102 137l205 49q35 -28 115 -28q91 0 132 36t56 103q-101 -49 -192 -49q-174 0 -268.5 67t-94.5 183t103.5 185t287.5 69q381 0 388 -318q0 -209 -98.5 -326.5t-305.5 -117.5q-68 0 -127 15t-94.5 37t-61 43.5t-35.5 36.5zM606 498q0 38 -41.5 60t-118.5 22
q-76 0 -117.5 -22t-41.5 -60t41.5 -60t117.5 -22q77 0 118.5 22t41.5 60z" />
    <glyph glyph-name="Cacute.polish" horiz-adv-x="1845" 
d="M809 1585l78 344h362l-141 -344h-299zM993 -33q-262 0 -462.5 87.5t-316.5 263.5t-116 419t116 419t316.5 263.5t462.5 87.5q292 0 494.5 -114t279.5 -289l-372 -82q-127 186 -402 186q-225 0 -361 -126.5t-136 -344.5t136 -344.5t361 -126.5q274 0 402 187l372 -80
q-77 -176 -279.5 -291t-494.5 -115z" />
    <glyph glyph-name="Nacute.polish" horiz-adv-x="1863" 
d="M772 1585l78 344h362l-141 -344h-299zM545 0h-398v1475h461l711 -1014v1014h397v-1475h-461l-710 1014v-1014z" />
    <glyph glyph-name="Oacute.polish" horiz-adv-x="1998" 
d="M840 1585l78 344h362l-141 -344h-299zM999 -33q-138 0 -265.5 27t-244 87t-203 148t-137.5 218.5t-51 289.5t51 289.5t137.5 218.5t203 148t244 87t265.5 27q137 0 264.5 -27t244.5 -87t203.5 -148t138 -218.5t51.5 -289.5t-51.5 -289.5t-138 -218.5t-203.5 -148
t-244.5 -87t-264.5 -27zM999 266q227 0 365.5 131t138.5 340t-138.5 340t-365.5 131q-226 0 -364.5 -131.5t-138.5 -339.5t138.5 -339.5t364.5 -131.5z" />
    <glyph glyph-name="Sacute.polish" horiz-adv-x="1636" 
d="M655 1585l76 344h365l-142 -344h-299zM92 313l334 103q15 -21 38.5 -41t70 -47.5t123.5 -44.5t173 -17q161 0 238.5 44t77.5 120q0 68 -80.5 107t-288.5 71q-181 28 -308 73t-198 106t-102 130t-31 154q0 199 183.5 317.5t504.5 118.5q258 0 430 -87.5t244 -227.5
l-336 -100q-26 31 -56 53t-101.5 42.5t-169.5 20.5q-137 0 -218 -37t-81 -104q0 -42 28.5 -71.5t112 -56.5t231.5 -48q316 -40 474.5 -147.5t158.5 -315.5t-187 -334.5t-526 -126.5q-130 0 -242.5 20.5t-191.5 54t-142 79.5t-101.5 93t-61.5 99z" />
    <glyph glyph-name="Zacute.polish" horiz-adv-x="1632" 
d="M664 1583l77 346h363l-141 -346h-299zM98 0v231l863 945h-846v299h1415v-230l-862 -946h868v-299h-1438z" />
    <glyph glyph-name="cacute.polish" horiz-adv-x="1382" 
d="M551 1196l78 344h362l-141 -344h-299zM82 524q0 249 178 398t488 149q117 0 216.5 -26.5t168.5 -72t116 -99t74 -115.5l-305 -72q-29 40 -94.5 73.5t-161.5 33.5q-139 0 -219 -72.5t-80 -196.5q0 -125 80 -197.5t219 -72.5q96 0 161 34t95 74l305 -73q-27 -62 -74 -115.5
t-116 -99.5t-168.5 -72.5t-216.5 -26.5q-310 0 -488 149.5t-178 399.5z" />
    <glyph glyph-name="idotaccent" horiz-adv-x="657" 
d="M330 1171q-83 0 -136 53t-53 136t52.5 134.5t136.5 51.5q83 0 134.5 -51.5t51.5 -134.5q0 -84 -51.5 -136.5t-134.5 -52.5zM139 0v1044h379v-1044h-379z" />
    <glyph glyph-name="nacute.polish" horiz-adv-x="1515" 
d="M618 1196l78 344h363l-141 -344h-300zM129 0v1044h379v-161q51 72 150.5 127t240.5 55q134 0 232 -40t156.5 -114.5t86 -173t27.5 -223.5v-514h-379v514q0 124 -58 198t-190 74q-135 0 -200.5 -77t-65.5 -199v-510h-379z" />
    <glyph glyph-name="oacute.polish" horiz-adv-x="1546" 
d="M614 1196l76 344h365l-142 -344h-299zM774 -25q-315 0 -503.5 150.5t-188.5 398.5t188 397.5t504 149.5q317 0 504.5 -149.5t187.5 -397.5q0 -249 -187.5 -399t-504.5 -150zM774 254q146 0 229.5 75t83.5 195q0 119 -83.5 194t-229.5 75t-229.5 -75t-83.5 -194
q0 -120 83.5 -195t229.5 -75z" />
    <glyph glyph-name="sacute.polish" horiz-adv-x="1286" 
d="M479 1196l76 344h365l-142 -344h-299zM72 205l274 98q100 -82 289 -82q201 0 201 88q0 39 -48 61t-172 44q-262 39 -380.5 115t-118.5 214q0 152 149 239t389 87q199 0 335 -63t198 -156l-273 -96q-109 69 -245 69q-86 0 -130 -21.5t-44 -58.5q0 -33 43 -52.5t161 -39.5
q100 -13 173 -29t140.5 -42t109.5 -61t66.5 -86.5t24.5 -117.5q0 -163 -150.5 -251.5t-414.5 -88.5q-214 0 -363 63.5t-214 166.5z" />
    <glyph glyph-name="zacute.polish" horiz-adv-x="1296" 
d="M481 1196l78 344h363l-142 -344h-299zM82 0v213l614 553h-590v278h1100v-213l-614 -552h625v-279h-1135z" />
    <glyph glyph-name="a.smcp" horiz-adv-x="1617" 
d="M16 0l541 1229h504l541 -1229h-406l-106 246h-562l-106 -246h-406zM629 479h360l-180 416z" />
    <glyph glyph-name="agrave.smcp" horiz-adv-x="1617" 
d="M305 1585h447l258 -246h-363zM16 0l541 1229h504l541 -1229h-406l-106 246h-562l-106 -246h-406zM629 479h360l-180 416z" />
    <glyph glyph-name="aacute.smcp" horiz-adv-x="1617" 
d="M608 1339l258 246h445l-340 -246h-363zM16 0l541 1229h504l541 -1229h-406l-106 246h-562l-106 -246h-406zM629 479h360l-180 416z" />
    <glyph glyph-name="acircumflex.smcp" horiz-adv-x="1617" 
d="M315 1329l355 324h278l355 -324h-281l-213 146l-215 -146h-279zM16 0l541 1229h504l541 -1229h-406l-106 246h-562l-106 -246h-406zM629 479h360l-180 416z" />
    <glyph glyph-name="amacron.smcp" horiz-adv-x="1617" 
d="M367 1362v182h884v-182h-884zM16 0l541 1229h504l541 -1229h-406l-106 246h-562l-106 -246h-406zM629 479h360l-180 416z" />
    <glyph glyph-name="atilde.smcp" horiz-adv-x="1617" 
d="M545 1364h-170q0 6 1 15.5t7 37.5t15.5 53.5t30.5 56.5t49 53.5t73 38t100 15.5q61 0 107.5 -22t95.5 -62q22 -17 31.5 -24t34.5 -16t53 -9q26 0 46.5 8.5t30.5 21t16 25t8 20.5l1 9h170q0 -6 -1 -15.5t-6.5 -37.5t-15.5 -53.5t-30.5 -56.5t-48 -53.5t-72 -38
t-98.5 -15.5q-110 0 -201 78q-36 29 -61.5 42t-59.5 13q-27 0 -48 -8.5t-31.5 -21t-17 -25t-8.5 -21.5zM16 0l541 1229h504l541 -1229h-406l-106 246h-562l-106 -246h-406zM629 479h360l-180 416z" />
    <glyph glyph-name="adieresis.smcp" horiz-adv-x="1617" 
d="M543 1317q-85 0 -137 52.5t-52 135.5t52 135t137 52q83 0 134.5 -52t51.5 -135t-51.5 -135.5t-134.5 -52.5zM1083 1317q-83 0 -134.5 52.5t-51.5 135.5t51.5 135t134.5 52t135 -52t52 -135t-52 -135.5t-135 -52.5zM16 0l541 1229h504l541 -1229h-404l-108 246h-562
l-106 -246h-406zM629 479h360l-180 416z" />
    <glyph glyph-name="aring.smcp" horiz-adv-x="1617" 
d="M809 1288q-103 0 -165 60.5t-62 154.5q0 96 62 156.5t165 60.5t165 -60.5t62 -156.5q0 -94 -62 -154.5t-165 -60.5zM809 1436q35 0 54.5 18.5t19.5 48.5q0 31 -19.5 50.5t-54.5 19.5t-54.5 -19.5t-19.5 -50.5q0 -30 19.5 -48.5t54.5 -18.5zM16 0l541 1229h502l540 -1229
h-403l-106 246h-564l-106 -246h-404zM629 479h358l-178 416z" />
    <glyph glyph-name="abreve.smcp" horiz-adv-x="1617" 
d="M356 1589h166q2 -4 7.5 -11t28 -24.5t51.5 -31t82.5 -24.5t117.5 -11t116.5 10.5t83 25.5t51.5 30t28 25l8 11h164q-1 -6 -3.5 -15.5t-15.5 -38t-31.5 -54t-54 -57t-80.5 -54t-114.5 -38t-151.5 -15.5t-151.5 15t-115 39t-81 53t-54.5 58t-31.5 53t-15.5 39zM16 0
l541 1229h504l541 -1229h-406l-106 246h-562l-106 -246h-406zM629 479h360l-180 416z" />
    <glyph glyph-name="aogonek.smcp" horiz-adv-x="1617" 
d="M16 0l543 1229h502l543 -1229q-14 -1 -42 -9t-68 -24t-68.5 -45.5t-28.5 -66.5q0 -32 17.5 -52.5t49.5 -29t57.5 -11t59.5 -2.5v-178q-42 -2 -82 0t-86.5 9t-84.5 21.5t-70.5 36.5t-51 57t-18.5 79q0 85 70.5 142t173.5 73h-234l-106 246h-564l-106 -246h-406zM629 479
h360l-180 416z" />
    <glyph glyph-name="b.smcp" horiz-adv-x="1554" 
d="M127 0v1229h774q148 0 255 -26t166.5 -73t86.5 -104.5t27 -128.5q0 -98 -57.5 -160.5t-139.5 -87.5q113 -28 176.5 -106.5t63.5 -186.5q0 -77 -28.5 -139t-90 -112t-169 -77.5t-253.5 -27.5h-811zM506 713h395q84 0 120 29.5t36 88.5q0 58 -40 86.5t-143 28.5h-368v-233z
M506 283h393q115 0 159 32t44 93q0 60 -43.5 92t-143.5 32h-409v-249z" />
    <glyph glyph-name="c.smcp" horiz-adv-x="1540" 
d="M836 -25q-157 0 -293.5 41.5t-240.5 120t-164 202t-60 277.5t60 277t164 201.5t240.5 119.5t293.5 41q108 0 205 -20t168.5 -52.5t129 -76t92.5 -88t52 -90.5l-324 -88q-17 22 -39.5 42t-60 42t-94 35.5t-123.5 13.5q-107 0 -192.5 -38.5t-139 -121t-53.5 -197.5
q0 -172 109.5 -265t275.5 -93q212 0 317 133l324 -88q-22 -58 -73.5 -114t-130 -105t-194 -79t-249.5 -30z" />
    <glyph glyph-name="cacute.smcp" horiz-adv-x="1540" 
d="M625 1341l258 246h444l-340 -246h-362zM836 -25q-157 0 -293.5 41.5t-240.5 120t-164 202t-60 277.5t60 277t164 201.5t240.5 119.5t293.5 41q108 0 205 -20t168.5 -52.5t129 -76t92.5 -88t52 -90.5l-324 -88q-17 22 -39.5 42t-60 42t-94 35.5t-123.5 13.5
q-107 0 -192.5 -38.5t-139 -121t-53.5 -197.5q0 -172 109.5 -265t275.5 -93q212 0 317 133l324 -88q-22 -58 -73.5 -114t-130 -105t-194 -79t-249.5 -30z" />
    <glyph glyph-name="ccaron.smcp" horiz-adv-x="1540" 
d="M684 1341l-354 324h278l215 -145l213 145h281l-354 -324h-279zM836 -25q-157 0 -293.5 41.5t-240.5 120t-164 202t-60 277.5t60 277t164 201.5t240.5 119.5t293.5 41q108 0 205 -20t168.5 -52.5t129 -76t92.5 -88t52 -90.5l-324 -88q-17 22 -39.5 42t-60 42t-94 35.5
t-123.5 13.5q-107 0 -192.5 -38.5t-139 -121t-53.5 -197.5q0 -172 109.5 -265t275.5 -93q212 0 317 133l324 -88q-22 -58 -73.5 -114t-130 -105t-194 -79t-249.5 -30z" />
    <glyph glyph-name="ccircumflex.smcp" horiz-adv-x="1540" 
d="M330 1331l354 324h279l354 -324h-281l-213 144l-215 -144h-278zM836 -25q-157 0 -293.5 41.5t-240.5 120t-164 202t-60 277.5t60 277t164 201.5t240.5 119.5t293.5 41q108 0 205 -20t168.5 -52.5t129 -76t92.5 -88t52 -90.5l-324 -88q-17 22 -39.5 42t-60 42t-94 35.5
t-123.5 13.5q-107 0 -192.5 -38.5t-139 -121t-53.5 -197.5q0 -172 109.5 -265t275.5 -93q212 0 317 133l324 -88q-22 -58 -73.5 -114t-130 -105t-194 -79t-249.5 -30z" />
    <glyph glyph-name="cdotaccent.smcp" horiz-adv-x="1540" 
d="M823 1319q-83 0 -135.5 52t-52.5 134q0 83 52.5 135t135.5 52t135 -52t52 -135q0 -82 -52 -134t-135 -52zM838 -25q-158 0 -294.5 41.5t-241 120t-164.5 202t-60 277.5t60 277t164.5 201.5t241 119.5t294.5 41q108 0 205 -20t168.5 -52.5t129 -76t92.5 -88t52 -90.5
l-324 -88q-106 133 -317 133q-167 0 -277 -93t-110 -264q0 -172 110 -265t277 -93q207 0 317 133l324 -88q-22 -58 -73.5 -114t-130 -105t-194 -79t-249.5 -30z" />
    <glyph glyph-name="ccedilla.smcp" horiz-adv-x="1540" 
d="M547 -420l61 98q64 -18 170 -18q60 0 100 15.5t40 48.5q0 59 -154 59q-59 0 -123 -8l88 205q-139 13 -256 60.5t-206 125.5t-139 193.5t-50 256.5q0 154 60 277t164 201.5t240.5 119.5t293.5 41q134 0 250 -30t194.5 -79t130.5 -104.5t74 -113.5l-326 -88
q-17 22 -39.5 42t-60 42t-94 35.5t-123.5 13.5q-107 0 -192.5 -38.5t-139 -121t-53.5 -197.5q0 -172 109.5 -265t275.5 -93q212 0 317 133l326 -88q-22 -55 -70 -109t-121.5 -102t-181 -80t-231.5 -37l-31 -71q39 0 70.5 -2.5t70.5 -13t65 -28t44 -50t18 -76.5
q0 -96 -87.5 -153.5t-229.5 -57.5q-72 0 -135.5 14.5t-91.5 28.5z" />
    <glyph glyph-name="cacute.polish.smcp" horiz-adv-x="1540" 
d="M664 1341l77 345h363l-141 -345h-299zM836 -25q-157 0 -293.5 41.5t-240.5 120t-164 202t-60 277.5t60 277t164 201.5t240.5 119.5t293.5 41q108 0 205 -20t168.5 -52.5t129 -76t92.5 -88t52 -90.5l-324 -88q-17 22 -39.5 42t-60 42t-94 35.5t-123.5 13.5
q-107 0 -192.5 -38.5t-139 -121t-53.5 -197.5q0 -172 109.5 -265t275.5 -93q212 0 317 133l324 -88q-22 -58 -73.5 -114t-130 -105t-194 -79t-249.5 -30z" />
    <glyph glyph-name="d.smcp" horiz-adv-x="1538" 
d="M127 0v1229h629q337 0 520.5 -160t183.5 -455q0 -294 -183.5 -454t-520.5 -160h-629zM506 283h250q325 0 325 331q0 332 -325 332h-250v-663z" />
    <glyph glyph-name="dcaron.smcp" horiz-adv-x="1538" 
d="M549 1339l-354 324h278l215 -145l213 145h279l-353 -324h-278zM127 0v1229h629q337 0 520.5 -160t183.5 -455q0 -294 -183.5 -454t-520.5 -160h-629zM506 283h250q325 0 325 331q0 332 -325 332h-250v-663z" />
    <glyph glyph-name="dcroat.smcp" horiz-adv-x="1685" 
d="M274 0v516h-237v207h237v506h629q337 0 521 -160t184 -455q0 -294 -184 -454t-521 -160h-629zM653 283h250q326 0 326 331q0 332 -326 332h-250v-223h293v-207h-293v-233z" />
    <glyph glyph-name="eth.smcp" horiz-adv-x="1685" 
d="M274 0v516h-237v207h237v506h629q337 0 521 -160t184 -455q0 -294 -184 -454t-521 -160h-629zM653 283h250q326 0 326 331q0 332 -326 332h-250v-223h293v-207h-293v-233z" />
    <glyph glyph-name="e.smcp" horiz-adv-x="1394" 
d="M127 0v1229h1161v-283h-782v-205h700v-233h-700v-225h782v-283h-1161z" />
    <glyph glyph-name="egrave.smcp" horiz-adv-x="1394" 
d="M180 1585h447l258 -246h-363zM127 0v1229h1161v-283h-782v-205h700v-233h-700v-225h782v-283h-1161z" />
    <glyph glyph-name="eacute.smcp" horiz-adv-x="1394" 
d="M483 1339l258 246h445l-340 -246h-363zM127 0v1229h1161v-283h-782v-205h700v-233h-700v-225h782v-283h-1161z" />
    <glyph glyph-name="ecaron.smcp" horiz-adv-x="1394" 
d="M545 1339l-355 324h279l215 -145l213 145h281l-355 -324h-278zM127 0v1229h1161v-283h-782v-205h700v-233h-700v-225h782v-283h-1161z" />
    <glyph glyph-name="ecircumflex.smcp" horiz-adv-x="1394" 
d="M190 1329l355 324h278l355 -324h-281l-213 146l-215 -146h-279zM127 0v1229h1161v-283h-782v-205h700v-233h-700v-225h782v-283h-1161z" />
    <glyph glyph-name="ebreve.smcp" horiz-adv-x="1394" 
d="M231 1589h166q2 -4 7.5 -11t28 -24.5t51.5 -31t82.5 -24.5t117.5 -11t116.5 10.5t83 25.5t51.5 30t29 25l7 11h164q-1 -6 -3.5 -15.5t-15.5 -38t-31.5 -54t-54 -57t-80.5 -54t-114.5 -38t-151.5 -15.5t-151.5 15t-115 39t-81 53t-54.5 58t-31.5 53t-16.5 39zM127 0v1229
h1161v-283h-782v-205h700v-233h-700v-225h782v-283h-1161z" />
    <glyph glyph-name="edieresis.smcp" horiz-adv-x="1394" 
d="M418 1317q-83 0 -136 52.5t-53 135.5t53 135t136 52t134.5 -52t51.5 -135t-51.5 -135.5t-134.5 -52.5zM958 1317q-83 0 -134.5 52.5t-51.5 135.5t51.5 135t134.5 52t135 -52t52 -135t-52 -135.5t-135 -52.5zM127 0v1229h1161v-283h-782v-205h700v-233h-700v-225h782v-283
h-1161z" />
    <glyph glyph-name="emacron.smcp" horiz-adv-x="1394" 
d="M242 1362v182h884v-182h-884zM127 0v1229h1161v-283h-782v-205h700v-233h-700v-225h782v-283h-1161z" />
    <glyph glyph-name="eogonek.smcp" horiz-adv-x="1394" 
d="M127 0v1229h1163v-283h-784v-205h700v-233h-700v-225h784v-283h-2q-13 -1 -41 -9t-68 -24t-68 -45.5t-28 -66.5q0 -32 17.5 -52.5t49 -29t57 -11t59.5 -2.5v-178q-51 -2 -99.5 1t-103.5 15.5t-95 34t-67.5 60.5t-28.5 92q0 85 71 142t175 73h-991z" />
    <glyph glyph-name="edotaccent.smcp" horiz-adv-x="1394" 
d="M684 1317q-83 0 -135.5 52.5t-52.5 135.5t52.5 135t135.5 52t134.5 -52t51.5 -135t-51.5 -135.5t-134.5 -52.5zM127 0v1229h1161v-283h-782v-205h700v-233h-700v-225h782v-283h-1161z" />
    <glyph glyph-name="f.smcp" horiz-adv-x="1353" 
d="M127 0v1229h1135v-283h-756v-250h676v-282h-676v-414h-379z" />
    <glyph glyph-name="ff.smcp" horiz-adv-x="2676" 
d="M1450 0v1229h1135v-283h-756v-250h676v-282h-676v-414h-379zM127 0v1229h1135v-283h-756v-250h676v-282h-676v-414h-379z" />
    <glyph glyph-name="fi.smcp" horiz-adv-x="1970" 
d="M1450 0v1229h379v-1229h-379zM127 0v1229h1137v-283h-758v-250h676v-282h-676v-414h-379z" />
    <glyph glyph-name="fl.smcp" horiz-adv-x="2557" 
d="M1452 0v1229h379v-946h709v-283h-1088zM127 0v1229h1135v-283h-756v-250h676v-282h-676v-414h-379z" />
    <glyph glyph-name="ffi.smcp" horiz-adv-x="3284" 
d="M2765 0v1229h379v-1229h-379zM1450 0v1229h1135v-283h-756v-250h676v-282h-676v-414h-379zM127 0v1229h1135v-283h-756v-250h676v-282h-676v-414h-379z" />
    <glyph glyph-name="ffl.smcp" horiz-adv-x="3880" 
d="M2775 0v1229h379v-946h709v-283h-1088zM1450 0v1229h1135v-283h-756v-250h676v-282h-676v-414h-379zM127 0v1229h1135v-283h-756v-250h676v-282h-676v-414h-379z" />
    </font>
</defs>
</svg>
