<svg width="56" height="44" viewBox="0 0 56 44" fill="none" xmlns="http://www.w3.org/2000/svg">
<g filter="url(#filter0_d)">
<path d="M36.2642 12.5964L36.2612 12.6035L36.2583 12.6103L36.2583 12.6105L36.2582 12.6106L36.2577 12.6118L36.2547 12.6192L36.241 12.652C36.2285 12.6816 36.2094 12.7267 36.1839 12.7858C36.1329 12.9039 36.0564 13.0778 35.9565 13.2962C35.7565 13.7332 35.4635 14.3461 35.094 15.0445C34.3525 16.4461 33.3281 18.1429 32.154 19.4608C31.9723 19.6421 31.8254 19.7823 31.7044 19.8911V13.2868C31.7044 12.7944 31.6436 12.1926 31.2834 11.7108C30.8671 11.154 30.2511 11 29.7041 11H24.2028C23.1002 11 22.3121 11.855 22.3121 12.8047C22.3121 13.2981 22.5081 13.6675 22.6885 13.9285C22.7728 14.0505 22.8662 14.1662 22.9389 14.2563L22.9399 14.2575L22.9484 14.2681C23.0241 14.3618 23.0886 14.4417 23.1531 14.5295C23.3785 14.8361 23.6462 15.2886 23.703 16.2452V21.3497C23.6741 21.321 23.6443 21.2905 23.6134 21.2582C23.2112 20.8366 22.7254 20.1953 22.203 19.3698C21.162 17.7248 20.0456 15.4589 19.2138 13.0363L19.213 13.034C19.0375 12.5272 18.8045 11.9799 18.3716 11.5813C17.8878 11.1358 17.3014 11 16.7011 11H13.2003C12.5656 11 11.9446 11.1477 11.5031 11.6084C11.0652 12.0653 11 12.6281 11 12.9902C11 13.3619 11.105 13.9302 11.2885 14.6031C11.4799 15.3047 11.7782 16.1965 12.212 17.2441C13.0799 19.3392 14.4974 22.0744 16.709 25.1752C19.7445 29.5302 24.0984 32.0044 28.2038 32.0044C29.3169 32.0044 30.2234 31.8946 30.8457 31.4772C31.6253 30.9543 31.7044 30.1607 31.7044 29.6429V26.5034C31.7044 26.4305 31.7057 26.3668 31.7081 26.3111C31.9501 26.3515 32.6743 26.6113 34.4058 28.2795C34.9789 28.8528 35.4335 29.3481 35.8182 29.7744C35.8884 29.8522 35.9573 29.9289 36.025 30.0042C36.3199 30.3323 36.5905 30.6334 36.8376 30.8813C37.1454 31.1899 37.4779 31.4803 37.8723 31.6868C38.2883 31.9047 38.7243 32.0044 39.2064 32.0044H42.7072C43.3328 32.0044 44.0636 31.8529 44.554 31.2837C45.0755 30.6783 45.0739 29.9039 44.8788 29.2367L44.8751 29.2242L44.8712 29.2119C44.6613 28.5578 44.2168 27.847 43.6925 27.1374C43.1567 26.4123 42.4767 25.6093 41.7216 24.7595C41.2795 24.2382 40.7385 23.7082 40.2938 23.2725C39.8018 22.7905 39.4897 22.48 39.3696 22.3118L39.3576 22.295L39.345 22.2788C39.2962 22.2161 39.2643 22.169 39.2437 22.1355C39.2728 22.0791 39.3168 22.0048 39.3887 21.8895L39.4213 21.8433C39.4534 21.7977 39.5002 21.7311 39.5598 21.6457C39.6789 21.4751 39.8491 21.2297 40.0546 20.929C40.4653 20.3282 41.0185 19.5043 41.5867 18.6144C42.1536 17.7265 42.7423 16.7623 43.2205 15.8831C43.6728 15.0516 44.0826 14.1967 44.2347 13.5365C44.3701 13.0647 44.4498 12.3832 44.0364 11.7921C43.5981 11.1655 42.8628 11 42.2071 11H38.7062C38.0733 11 37.529 11.1718 37.0914 11.5026C36.6665 11.8238 36.418 12.2376 36.2642 12.5964ZM24.1673 21.7226C24.1691 21.7232 24.17 21.7236 24.17 21.7236C24.17 21.7236 24.1691 21.7233 24.1673 21.7226Z" stroke="#FFC120" stroke-width="2" shape-rendering="crispEdges"/>
</g>
<defs>
<filter id="filter0_d" x="0" y="0" width="55.9986" height="43.0044" filterUnits="userSpaceOnUse" color-interpolation-filters="sRGB">
<feFlood flood-opacity="0" result="BackgroundImageFix"/>
<feColorMatrix in="SourceAlpha" type="matrix" values="0 0 0 0 0 0 0 0 0 0 0 0 0 0 0 0 0 0 127 0" result="hardAlpha"/>
<feOffset/>
<feGaussianBlur stdDeviation="5"/>
<feComposite in2="hardAlpha" operator="out"/>
<feColorMatrix type="matrix" values="0 0 0 0 1 0 0 0 0 0.85098 0 0 0 0 0.0941176 0 0 0 0.8 0"/>
<feBlend mode="normal" in2="BackgroundImageFix" result="effect1_dropShadow"/>
<feBlend mode="normal" in="SourceGraphic" in2="effect1_dropShadow" result="shape"/>
</filter>
</defs>
</svg>
