<svg width="34" height="29" viewBox="0 0 34 29" fill="none" xmlns="http://www.w3.org/2000/svg">
<mask id="path-1-outside-1" maskUnits="userSpaceOnUse" x="0" y="0" width="34" height="29" fill="black">
<rect fill="white" width="34" height="29"/>
<path fill-rule="evenodd" clip-rule="evenodd" d="M24.255 25.9671C25.9325 26.701 26.5616 25.1633 26.5616 25.1633L31 2.86636C30.9651 1.36359 28.9381 2.27224 28.9381 2.27224L4.08994 12.0228C4.08994 12.0228 2.90171 12.4421 3.00655 13.1761C3.1114 13.91 4.055 14.2595 4.055 14.2595L10.3107 16.3563C10.3107 16.3563 12.1979 22.5422 12.5823 23.7304C12.9318 24.8837 13.2464 24.9186 13.2464 24.9186C13.5958 25.0584 13.9104 24.8138 13.9104 24.8138L17.9643 21.1442L24.255 25.9671ZM25.3384 6.81546C25.3384 6.81546 26.2121 6.29124 26.1772 6.81546C26.1772 6.81546 26.317 6.88535 25.8626 7.37463C25.4433 7.79401 15.5529 16.6708 14.2249 17.8591C14.1201 17.929 14.0502 18.0338 14.0502 18.1736L13.6657 21.4587C13.5958 21.8082 13.1415 21.8432 13.0367 21.5286L11.3941 16.1466C11.3242 15.9369 11.3941 15.6923 11.6038 15.5525L25.3384 6.81546Z"/>
</mask>
<path d="M26.5616 25.1633L28.4127 25.9205L28.4855 25.7424L28.5231 25.5537L26.5616 25.1633ZM24.255 25.9671L23.0381 27.5543L23.2309 27.702L23.4534 27.7994L24.255 25.9671ZM31 2.86636L32.9615 3.25682L33.0046 3.04043L32.9995 2.81986L31 2.86636ZM28.9381 2.27224L29.6686 4.13403L29.7128 4.11669L29.7562 4.09726L28.9381 2.27224ZM4.08994 12.0228L4.75558 13.9088L4.78826 13.8972L4.82052 13.8846L4.08994 12.0228ZM3.00655 13.1761L1.02665 13.4589L3.00655 13.1761ZM4.055 14.2595L3.36037 16.1349L3.3897 16.1458L3.41936 16.1558L4.055 14.2595ZM10.3107 16.3563L12.2237 15.7727L11.9231 14.7874L10.9463 14.46L10.3107 16.3563ZM12.5823 23.7304L14.4964 23.1504L14.491 23.1325L14.4852 23.1148L12.5823 23.7304ZM13.2464 24.9186L13.9891 23.0617L13.7371 22.9608L13.4672 22.9309L13.2464 24.9186ZM13.9104 24.8138L15.1382 26.3925L15.1972 26.3467L15.2525 26.2966L13.9104 24.8138ZM17.9643 21.1442L19.1812 19.557L17.8582 18.5427L16.6222 19.6615L17.9643 21.1442ZM26.1772 6.81546L24.1816 6.68242L24.0931 8.00951L25.2827 8.60431L26.1772 6.81546ZM25.3384 6.81546L24.3094 5.10047L24.287 5.11392L24.2649 5.12796L25.3384 6.81546ZM25.8626 7.37463L27.2768 8.78884L27.303 8.76266L27.3282 8.73553L25.8626 7.37463ZM14.2249 17.8591L15.3343 19.5232L15.4526 19.4443L15.5585 19.3496L14.2249 17.8591ZM14.0502 18.1736L16.0366 18.4061L16.0502 18.2902V18.1736H14.0502ZM13.6657 21.4587L15.6269 21.851L15.6428 21.7716L15.6522 21.6912L13.6657 21.4587ZM13.0367 21.5286L11.1238 22.1124L11.1312 22.1368L11.1393 22.1611L13.0367 21.5286ZM11.3941 16.1466L13.307 15.5628L13.2996 15.5384L13.2915 15.5142L11.3941 16.1466ZM11.6038 15.5525L10.5303 13.865L10.5122 13.8765L10.4944 13.8884L11.6038 15.5525ZM26.5616 25.1633C24.7105 24.406 24.7109 24.405 24.7113 24.404C24.7114 24.4037 24.7118 24.4027 24.7121 24.4021C24.7126 24.4008 24.7132 24.3995 24.7137 24.3983C24.7147 24.3957 24.7157 24.3933 24.7167 24.391C24.7187 24.3862 24.7206 24.3818 24.7224 24.3776C24.726 24.3693 24.7292 24.362 24.7321 24.3556C24.7378 24.343 24.7423 24.3338 24.7454 24.3275C24.7486 24.3212 24.7508 24.3172 24.752 24.315C24.7533 24.3128 24.7539 24.3118 24.7541 24.3116C24.7542 24.3114 24.7543 24.3113 24.7545 24.311C24.7547 24.3107 24.7555 24.3096 24.7573 24.3075C24.7601 24.3042 24.7704 24.2927 24.7902 24.2768C24.8358 24.2405 24.9271 24.1869 25.048 24.1701C25.172 24.1529 25.1905 24.1933 25.0567 24.1348L23.4534 27.7994C24.1583 28.1078 24.8844 28.2312 25.5982 28.1321C26.3089 28.0334 26.872 27.733 27.2845 27.4039C27.686 27.0837 27.9549 26.73 28.1201 26.4725C28.2052 26.34 28.2701 26.2215 28.3171 26.1283C28.3408 26.0814 28.3604 26.0399 28.3761 26.0051C28.384 25.9877 28.391 25.9718 28.3971 25.9577C28.4001 25.9506 28.4029 25.944 28.4055 25.9378C28.4068 25.9347 28.4081 25.9317 28.4093 25.9288C28.4099 25.9274 28.4104 25.926 28.411 25.9246C28.4113 25.9239 28.4117 25.9229 28.4119 25.9225C28.4123 25.9215 28.4127 25.9205 26.5616 25.1633ZM29.0385 2.4759L24.6001 24.7728L28.5231 25.5537L32.9615 3.25682L29.0385 2.4759ZM28.9381 2.27224C29.7562 4.09726 29.7556 4.09751 29.7551 4.09775C29.7549 4.09783 29.7544 4.09807 29.754 4.09822C29.7533 4.09853 29.7527 4.09882 29.7521 4.0991C29.7508 4.09967 29.7496 4.10018 29.7486 4.10065C29.7465 4.10158 29.7448 4.10231 29.7435 4.10287C29.7409 4.10399 29.74 4.10439 29.7405 4.10418C29.7416 4.10373 29.7483 4.10091 29.7597 4.09638C29.7833 4.08707 29.8227 4.07227 29.8714 4.0565C29.9858 4.01945 30.0732 4.00265 30.1093 3.99987C30.1227 3.99884 30.0822 4.00393 30.0025 3.99062C29.9216 3.9771 29.7604 3.93766 29.5766 3.81869C29.3779 3.69012 29.2126 3.50647 29.1082 3.29515C29.0108 3.09801 29.0014 2.94855 29.0005 2.91286L32.9995 2.81986C32.9791 1.94375 32.6233 1.02575 31.7496 0.460409C31.0149 -0.0149829 30.2329 -0.0214512 29.8025 0.0116545C29.3275 0.0481927 28.906 0.164637 28.6392 0.250999C28.4974 0.296932 28.3781 0.34138 28.2907 0.375885C28.2467 0.393274 28.2098 0.408507 28.1812 0.420631C28.1668 0.426704 28.1545 0.432029 28.1442 0.436491C28.1391 0.438723 28.1345 0.440743 28.1305 0.442535C28.1285 0.443432 28.1266 0.444272 28.1248 0.445054C28.1239 0.445445 28.1231 0.445821 28.1223 0.446183C28.1219 0.446364 28.1213 0.446624 28.1211 0.446715C28.1205 0.446971 28.1199 0.447224 28.9381 2.27224ZM4.82052 13.8846L29.6686 4.13403L28.2075 0.410454L3.35937 10.161L4.82052 13.8846ZM4.98645 12.8932C5.04637 13.3127 4.89981 13.6422 4.78687 13.8088C4.69347 13.9465 4.61614 13.9902 4.64735 13.9686C4.66583 13.9558 4.70233 13.935 4.74575 13.9149C4.7641 13.9064 4.7771 13.9011 4.7812 13.8994C4.78306 13.8987 4.78225 13.8991 4.77827 13.9005C4.77626 13.9013 4.77341 13.9024 4.76967 13.9037C4.76779 13.9044 4.76569 13.9052 4.76334 13.906C4.76217 13.9064 4.76094 13.9069 4.75965 13.9073C4.759 13.9075 4.75834 13.9078 4.75766 13.908C4.75732 13.9081 4.7568 13.9083 4.75663 13.9084C4.75611 13.9086 4.75558 13.9088 4.08994 12.0228C3.4243 10.1368 3.42377 10.137 3.42323 10.1372C3.42304 10.1372 3.42249 10.1374 3.42212 10.1376C3.42137 10.1378 3.4206 10.1381 3.41981 10.1384C3.41823 10.1389 3.41656 10.1395 3.41482 10.1402C3.41134 10.1414 3.40753 10.1428 3.40341 10.1443C3.39517 10.1473 3.38567 10.1508 3.37498 10.1548C3.35364 10.1628 3.32741 10.1728 3.29699 10.185C3.23651 10.2092 3.1575 10.2423 3.06609 10.2846C2.88999 10.3661 2.63598 10.496 2.37051 10.6798C2.00648 10.9318 0.798019 11.8585 1.02665 13.4589L4.98645 12.8932ZM4.055 14.2595C4.74962 12.384 4.75022 12.3842 4.7508 12.3844C4.75099 12.3845 4.75158 12.3847 4.75196 12.3848C4.75273 12.3851 4.75348 12.3854 4.75423 12.3857C4.75571 12.3862 4.75715 12.3868 4.75855 12.3873C4.76133 12.3883 4.76394 12.3893 4.76636 12.3902C4.77121 12.3921 4.77536 12.3937 4.77886 12.3951C4.78584 12.3979 4.79035 12.3997 4.79274 12.4007C4.79724 12.4026 4.79461 12.4016 4.78727 12.398C4.76856 12.3889 4.74918 12.3774 4.73795 12.3694C4.65464 12.3094 4.92433 12.4584 4.98645 12.8932L1.02665 13.4589C1.19361 14.6276 1.98753 15.3183 2.40223 15.6166C2.64001 15.7876 2.86308 15.9094 3.02457 15.9887C3.10733 16.0293 3.17924 16.0614 3.23575 16.0853C3.26414 16.0973 3.28903 16.1074 3.30988 16.1156C3.32032 16.1197 3.32978 16.1234 3.33821 16.1266C3.34242 16.1282 3.34638 16.1297 3.35008 16.1311C3.35192 16.1318 3.3537 16.1325 3.35542 16.1331C3.35628 16.1334 3.35712 16.1337 3.35794 16.134C3.35835 16.1342 3.35896 16.1344 3.35917 16.1345C3.35977 16.1347 3.36037 16.1349 4.055 14.2595ZM10.9463 14.46L4.69063 12.3631L3.41936 16.1558L9.67508 18.2526L10.9463 14.46ZM14.4852 23.1148C14.299 22.5392 13.737 20.715 13.2145 19.0113C12.9548 18.1646 12.7071 17.3549 12.5242 16.7568C12.4328 16.4578 12.3577 16.2117 12.3054 16.0404C12.2792 15.9548 12.2588 15.8878 12.2449 15.8423C12.2379 15.8195 12.2326 15.8021 12.2291 15.7904C12.2273 15.7846 12.2259 15.7801 12.225 15.7772C12.2246 15.7757 12.2242 15.7746 12.224 15.7738C12.2239 15.7735 12.2238 15.7732 12.2237 15.773C12.2237 15.7729 12.2237 15.7728 12.2237 15.7728C12.2237 15.7727 12.2237 15.7727 10.3107 16.3563C8.39775 16.9399 8.39776 16.94 8.39778 16.94C8.39779 16.9401 8.39782 16.9401 8.39784 16.9402C8.3979 16.9404 8.39799 16.9407 8.39811 16.9411C8.39834 16.9419 8.39868 16.943 8.39914 16.9445C8.40005 16.9475 8.40141 16.9519 8.40321 16.9578C8.4068 16.9696 8.41214 16.9871 8.41911 17.0099C8.43304 17.0556 8.45353 17.1227 8.47973 17.2085C8.53213 17.3801 8.60741 17.6266 8.69894 17.9261C8.88199 18.5249 9.1301 19.3359 9.39027 20.1842C9.90746 21.8705 10.4812 23.7334 10.6794 24.346L14.4852 23.1148ZM13.2464 24.9186C13.4672 22.9309 13.4706 22.9312 13.474 22.9316C13.4751 22.9318 13.4785 22.9322 13.4808 22.9324C13.4853 22.933 13.4898 22.9335 13.4944 22.9341C13.5034 22.9352 13.5124 22.9364 13.5215 22.9376C13.5395 22.9401 13.5575 22.9429 13.5754 22.9459C13.6112 22.9519 13.6467 22.9588 13.6818 22.9667C13.7521 22.9826 13.82 23.002 13.8854 23.0246C14.017 23.07 14.1328 23.1265 14.2325 23.1873C14.4313 23.3084 14.5505 23.4368 14.6071 23.5076C14.7057 23.6308 14.6329 23.6009 14.4964 23.1504L10.6683 24.3104C10.8813 25.0132 11.1405 25.5774 11.4837 26.0064C11.6626 26.2301 11.8823 26.4393 12.151 26.603C12.2856 26.6851 12.4288 26.7533 12.5789 26.8052C12.6536 26.831 12.7286 26.8523 12.8037 26.8692C12.8412 26.8776 12.8785 26.8849 12.9155 26.8911C12.934 26.8942 12.9525 26.897 12.9708 26.8996C12.98 26.9008 12.9891 26.902 12.9982 26.9032C13.0028 26.9037 13.0073 26.9043 13.0119 26.9048C13.0141 26.9051 13.0176 26.9055 13.0187 26.9056C13.0221 26.906 13.0255 26.9064 13.2464 24.9186ZM13.9104 24.8138C12.6825 23.2351 12.6831 23.2346 12.6837 23.2341C12.6839 23.2339 12.6846 23.2335 12.685 23.2331C12.6858 23.2325 12.6867 23.2318 12.6875 23.2312C12.6892 23.2299 12.6908 23.2286 12.6925 23.2274C12.6958 23.2248 12.699 23.2223 12.7023 23.2199C12.7088 23.215 12.7152 23.2102 12.7215 23.2055C12.7342 23.1962 12.7467 23.1873 12.759 23.1788C12.7835 23.1619 12.8086 23.1456 12.8347 23.1301C12.884 23.1008 12.951 23.0658 13.0367 23.0351C13.1987 22.9773 13.5641 22.8916 13.9891 23.0617L12.5036 26.7756C13.2781 27.0854 13.9755 26.9473 14.3821 26.8021C14.5901 26.7278 14.7576 26.6403 14.8768 26.5695C14.9379 26.5333 14.9903 26.499 15.0333 26.4693C15.055 26.4543 15.0745 26.4403 15.092 26.4275C15.1007 26.4211 15.1089 26.4149 15.1166 26.4091C15.1205 26.4062 15.1242 26.4033 15.1278 26.4005C15.1296 26.3992 15.1314 26.3978 15.1331 26.3965C15.134 26.3958 15.1349 26.3951 15.1357 26.3945C15.1361 26.3941 15.1368 26.3936 15.137 26.3935C15.1376 26.393 15.1382 26.3925 13.9104 24.8138ZM16.6222 19.6615L12.5682 23.331L15.2525 26.2966L19.3065 22.627L16.6222 19.6615ZM25.4719 24.3799L19.1812 19.557L16.7475 22.7314L23.0381 27.5543L25.4719 24.3799ZM28.1727 6.9485C28.1934 6.63809 28.1657 6.15767 27.8862 5.67018C27.5817 5.13911 27.1115 4.83023 26.6689 4.68898C25.9651 4.46434 25.3404 4.65905 25.1855 4.70648C24.9248 4.78626 24.7032 4.89086 24.5752 4.95529C24.5043 4.99095 24.4446 5.0233 24.4004 5.04801C24.378 5.0605 24.359 5.07139 24.3438 5.08022C24.3362 5.08464 24.3295 5.08858 24.3237 5.09196C24.3209 5.09366 24.3182 5.09522 24.3158 5.09664C24.3146 5.09735 24.3135 5.09802 24.3124 5.09866C24.3119 5.09898 24.3114 5.09929 24.3109 5.0996C24.3106 5.09975 24.3103 5.09997 24.3101 5.10004C24.3098 5.10026 24.3094 5.10047 25.3384 6.81546C26.3674 8.53044 26.3671 8.53065 26.3667 8.53086C26.3666 8.53093 26.3662 8.53114 26.366 8.53127C26.3656 8.53154 26.3651 8.53181 26.3647 8.53206C26.3638 8.53258 26.363 8.53306 26.3623 8.53352C26.3607 8.53444 26.3593 8.53526 26.3581 8.53598C26.3557 8.53741 26.3539 8.53847 26.3527 8.53918C26.3502 8.54058 26.35 8.54073 26.3514 8.53991C26.3548 8.53799 26.3631 8.53348 26.3736 8.52819C26.4083 8.51071 26.4029 8.51701 26.3563 8.53127C26.3317 8.53881 26.2523 8.56213 26.1329 8.57447C26.0278 8.58535 25.7712 8.60126 25.4528 8.49962C25.0872 8.38295 24.6795 8.11912 24.4161 7.65971C24.1777 7.2439 24.1696 6.86177 24.1816 6.68242L28.1727 6.9485ZM27.3282 8.73553C27.5909 8.45264 27.9592 8.01604 28.1173 7.44685C28.2099 7.11346 28.2655 6.60231 28.0338 6.05473C27.9208 5.78762 27.7602 5.56489 27.5798 5.38866C27.4916 5.30254 27.4022 5.23084 27.3162 5.17142C27.2733 5.14172 27.2312 5.11503 27.1903 5.09105C27.1699 5.07905 27.1497 5.06771 27.1299 5.05699C27.12 5.05162 27.1102 5.04642 27.1005 5.04135C27.0956 5.03882 27.0908 5.03633 27.086 5.03387C27.0836 5.03264 27.08 5.03082 27.0788 5.03021C27.0752 5.0284 27.0716 5.0266 26.1772 6.81546C25.2827 8.60431 25.2792 8.60252 25.2756 8.60071C25.2744 8.6001 25.2708 8.59828 25.2684 8.59705C25.2636 8.5946 25.2587 8.59211 25.2539 8.58959C25.2442 8.58454 25.2344 8.57936 25.2246 8.57403C25.2049 8.56338 25.185 8.55215 25.1648 8.5403C25.1245 8.51661 25.083 8.49037 25.041 8.4613C24.9569 8.40315 24.8701 8.33343 24.7848 8.25018C24.6103 8.07968 24.457 7.86623 24.35 7.61332C24.1303 7.09413 24.1925 6.63104 24.2632 6.37629C24.3306 6.13389 24.4279 5.98835 24.4449 5.96314C24.4691 5.92731 24.4644 5.9412 24.397 6.01373L27.3282 8.73553ZM15.5585 19.3496C16.8413 18.2018 26.8054 9.26034 27.2768 8.78884L24.4484 5.96041C24.457 5.95187 24.4271 5.98087 24.3216 6.07815C24.2303 6.16235 24.1054 6.27657 23.95 6.41806C23.6398 6.70059 23.2161 7.08432 22.7133 7.53863C21.7081 8.44683 20.3923 9.63169 19.0471 10.8415C16.3566 13.2612 13.5535 15.7761 12.8913 16.3686L15.5585 19.3496ZM16.0502 18.1736C16.0502 18.4514 15.9768 18.7389 15.8258 18.9979C15.68 19.2478 15.4943 19.4165 15.3343 19.5232L13.1155 16.195C12.5497 16.5722 12.0502 17.258 12.0502 18.1736H16.0502ZM15.6522 21.6912L16.0366 18.4061L12.0637 17.9411L11.6793 21.2263L15.6522 21.6912ZM11.1393 22.1611C11.5187 23.2993 12.5985 23.8261 13.557 23.7334C14.5231 23.6399 15.4101 22.9351 15.6269 21.851L11.7046 21.0665C11.8515 20.3319 12.4763 19.8193 13.1717 19.752C13.8593 19.6854 14.6595 20.0724 14.934 20.8962L11.1393 22.1611ZM9.48122 16.7304L11.1238 22.1124L14.9496 20.9448L13.307 15.5628L9.48122 16.7304ZM10.4944 13.8884C9.50993 14.5447 9.15101 15.7418 9.49674 16.7791L13.2915 15.5142C13.4974 16.132 13.2783 16.8399 12.7132 17.2166L10.4944 13.8884ZM24.2649 5.12796L10.5303 13.865L12.6773 17.24L26.4119 8.50296L24.2649 5.12796Z" fill="#FFC120" mask="url(#path-1-outside-1)"/>
</svg>
