<svg width="54" height="49" viewBox="0 0 54 49" fill="none" xmlns="http://www.w3.org/2000/svg">
<g filter="url(#filter0_d)">
<mask id="path-1-outside-1" maskUnits="userSpaceOnUse" x="10" y="10" width="34" height="29" fill="black">
<rect fill="white" x="10" y="10" width="34" height="29"/>
<path fill-rule="evenodd" clip-rule="evenodd" d="M34.255 35.9671C35.9325 36.701 36.5616 35.1633 36.5616 35.1633L41 12.8664C40.9651 11.3636 38.9381 12.2722 38.9381 12.2722L14.0899 22.0228C14.0899 22.0228 12.9017 22.4421 13.0066 23.1761C13.1114 23.91 14.055 24.2595 14.055 24.2595L20.3107 26.3563C20.3107 26.3563 22.1979 32.5422 22.5823 33.7304C22.9318 34.8837 23.2464 34.9186 23.2464 34.9186C23.5958 35.0584 23.9104 34.8138 23.9104 34.8138L27.9643 31.1442L34.255 35.9671ZM35.3384 16.8155C35.3384 16.8155 36.2121 16.2912 36.1772 16.8155C36.1772 16.8155 36.317 16.8854 35.8626 17.3746C35.4433 17.794 25.5529 26.6708 24.2249 27.8591C24.1201 27.929 24.0502 28.0338 24.0502 28.1736L23.6657 31.4587C23.5958 31.8082 23.1415 31.8432 23.0367 31.5286L21.3941 26.1466C21.3242 25.9369 21.3941 25.6923 21.6038 25.5525L35.3384 16.8155Z"/>
</mask>
<path d="M36.5616 35.1633L38.4127 35.9205L38.4855 35.7424L38.5231 35.5537L36.5616 35.1633ZM34.255 35.9671L33.0381 37.5543L33.2309 37.702L33.4534 37.7994L34.255 35.9671ZM41 12.8664L42.9615 13.2568L43.0046 13.0404L42.9995 12.8199L41 12.8664ZM38.9381 12.2722L39.6686 14.134L39.7128 14.1167L39.7562 14.0973L38.9381 12.2722ZM14.0899 22.0228L14.7556 23.9088L14.7883 23.8972L14.8205 23.8846L14.0899 22.0228ZM13.0066 23.1761L11.0267 23.4589L13.0066 23.1761ZM14.055 24.2595L13.3604 26.1349L13.3897 26.1458L13.4194 26.1558L14.055 24.2595ZM20.3107 26.3563L22.2237 25.7727L21.9231 24.7874L20.9463 24.46L20.3107 26.3563ZM22.5823 33.7304L24.4964 33.1504L24.491 33.1325L24.4852 33.1148L22.5823 33.7304ZM23.2464 34.9186L23.9891 33.0617L23.7371 32.9608L23.4672 32.9309L23.2464 34.9186ZM23.9104 34.8138L25.1382 36.3925L25.1972 36.3467L25.2525 36.2966L23.9104 34.8138ZM27.9643 31.1442L29.1812 29.557L27.8582 28.5427L26.6222 29.6615L27.9643 31.1442ZM36.1772 16.8155L34.1816 16.6824L34.0931 18.0095L35.2827 18.6043L36.1772 16.8155ZM35.3384 16.8155L34.3094 15.1005L34.287 15.1139L34.2649 15.128L35.3384 16.8155ZM35.8626 17.3746L37.2768 18.7888L37.303 18.7627L37.3282 18.7355L35.8626 17.3746ZM24.2249 27.8591L25.3343 29.5232L25.4526 29.4443L25.5585 29.3496L24.2249 27.8591ZM24.0502 28.1736L26.0366 28.4061L26.0502 28.2902V28.1736H24.0502ZM23.6657 31.4587L25.6269 31.851L25.6428 31.7716L25.6522 31.6912L23.6657 31.4587ZM23.0367 31.5286L21.1238 32.1124L21.1312 32.1368L21.1393 32.1611L23.0367 31.5286ZM21.3941 26.1466L23.307 25.5628L23.2996 25.5384L23.2915 25.5142L21.3941 26.1466ZM21.6038 25.5525L20.5303 23.865L20.5122 23.8765L20.4944 23.8884L21.6038 25.5525ZM36.5616 35.1633C34.7105 34.406 34.7109 34.405 34.7113 34.404C34.7114 34.4037 34.7118 34.4027 34.7121 34.4021C34.7126 34.4008 34.7132 34.3995 34.7137 34.3983C34.7147 34.3957 34.7157 34.3933 34.7167 34.391C34.7187 34.3862 34.7206 34.3818 34.7224 34.3776C34.726 34.3693 34.7292 34.362 34.7321 34.3556C34.7378 34.343 34.7423 34.3338 34.7454 34.3275C34.7486 34.3212 34.7508 34.3172 34.752 34.315C34.7533 34.3128 34.7539 34.3118 34.7541 34.3116C34.7542 34.3114 34.7543 34.3113 34.7545 34.311C34.7547 34.3107 34.7555 34.3096 34.7573 34.3075C34.7601 34.3042 34.7704 34.2927 34.7902 34.2768C34.8358 34.2405 34.9271 34.1869 35.048 34.1701C35.172 34.1529 35.1905 34.1933 35.0567 34.1348L33.4534 37.7994C34.1583 38.1078 34.8844 38.2312 35.5982 38.1321C36.3089 38.0334 36.872 37.733 37.2845 37.4039C37.686 37.0837 37.9549 36.73 38.1201 36.4725C38.2052 36.34 38.2701 36.2215 38.3171 36.1283C38.3408 36.0814 38.3604 36.0399 38.3761 36.0051C38.384 35.9877 38.391 35.9718 38.3971 35.9577C38.4001 35.9506 38.4029 35.944 38.4055 35.9378C38.4068 35.9347 38.4081 35.9317 38.4093 35.9288C38.4099 35.9274 38.4104 35.926 38.411 35.9246C38.4113 35.9239 38.4117 35.9229 38.4119 35.9225C38.4123 35.9215 38.4127 35.9205 36.5616 35.1633ZM39.0385 12.4759L34.6001 34.7728L38.5231 35.5537L42.9615 13.2568L39.0385 12.4759ZM38.9381 12.2722C39.7562 14.0973 39.7556 14.0975 39.7551 14.0978C39.7549 14.0978 39.7544 14.0981 39.754 14.0982C39.7533 14.0985 39.7527 14.0988 39.7521 14.0991C39.7508 14.0997 39.7496 14.1002 39.7486 14.1006C39.7465 14.1016 39.7448 14.1023 39.7435 14.1029C39.7409 14.104 39.74 14.1044 39.7405 14.1042C39.7416 14.1037 39.7483 14.1009 39.7597 14.0964C39.7833 14.0871 39.8227 14.0723 39.8714 14.0565C39.9858 14.0194 40.0732 14.0027 40.1093 13.9999C40.1227 13.9988 40.0822 14.0039 40.0025 13.9906C39.9216 13.9771 39.7604 13.9377 39.5766 13.8187C39.3779 13.6901 39.2126 13.5065 39.1082 13.2951C39.0108 13.098 39.0014 12.9486 39.0005 12.9129L42.9995 12.8199C42.9791 11.9438 42.6233 11.0258 41.7496 10.4604C41.0149 9.98502 40.2329 9.97855 39.8025 10.0117C39.3275 10.0482 38.906 10.1646 38.6392 10.251C38.4974 10.2969 38.3781 10.3414 38.2907 10.3759C38.2467 10.3933 38.2098 10.4085 38.1812 10.4206C38.1668 10.4267 38.1545 10.432 38.1442 10.4365C38.1391 10.4387 38.1345 10.4407 38.1305 10.4425C38.1285 10.4434 38.1266 10.4443 38.1248 10.4451C38.1239 10.4454 38.1231 10.4458 38.1223 10.4462C38.1219 10.4464 38.1213 10.4466 38.1211 10.4467C38.1205 10.447 38.1199 10.4472 38.9381 12.2722ZM14.8205 23.8846L39.6686 14.134L38.2075 10.4105L13.3594 20.161L14.8205 23.8846ZM14.9865 22.8932C15.0464 23.3127 14.8998 23.6422 14.7869 23.8088C14.6935 23.9465 14.6161 23.9902 14.6474 23.9686C14.6658 23.9558 14.7023 23.935 14.7458 23.9149C14.7641 23.9064 14.7771 23.9011 14.7812 23.8994C14.7831 23.8987 14.7823 23.8991 14.7783 23.9005C14.7763 23.9013 14.7734 23.9024 14.7697 23.9037C14.7678 23.9044 14.7657 23.9052 14.7633 23.906C14.7622 23.9064 14.7609 23.9069 14.7596 23.9073C14.759 23.9075 14.7583 23.9078 14.7577 23.908C14.7573 23.9081 14.7568 23.9083 14.7566 23.9084C14.7561 23.9086 14.7556 23.9088 14.0899 22.0228C13.4243 20.1368 13.4238 20.137 13.4232 20.1372C13.423 20.1372 13.4225 20.1374 13.4221 20.1376C13.4214 20.1378 13.4206 20.1381 13.4198 20.1384C13.4182 20.1389 13.4166 20.1395 13.4148 20.1402C13.4113 20.1414 13.4075 20.1428 13.4034 20.1443C13.3952 20.1473 13.3857 20.1508 13.375 20.1548C13.3536 20.1628 13.3274 20.1728 13.297 20.185C13.2365 20.2092 13.1575 20.2423 13.0661 20.2846C12.89 20.3661 12.636 20.496 12.3705 20.6798C12.0065 20.9318 10.798 21.8585 11.0267 23.4589L14.9865 22.8932ZM14.055 24.2595C14.7496 22.384 14.7502 22.3842 14.7508 22.3844C14.751 22.3845 14.7516 22.3847 14.752 22.3848C14.7527 22.3851 14.7535 22.3854 14.7542 22.3857C14.7557 22.3862 14.7572 22.3868 14.7585 22.3873C14.7613 22.3883 14.7639 22.3893 14.7664 22.3902C14.7712 22.3921 14.7754 22.3937 14.7789 22.3951C14.7858 22.3979 14.7904 22.3997 14.7927 22.4007C14.7972 22.4026 14.7946 22.4016 14.7873 22.398C14.7686 22.3889 14.7492 22.3774 14.7379 22.3694C14.6546 22.3094 14.9243 22.4584 14.9865 22.8932L11.0267 23.4589C11.1936 24.6276 11.9875 25.3183 12.4022 25.6166C12.64 25.7876 12.8631 25.9094 13.0246 25.9887C13.1073 26.0293 13.1792 26.0614 13.2358 26.0853C13.2641 26.0973 13.289 26.1074 13.3099 26.1156C13.3203 26.1197 13.3298 26.1234 13.3382 26.1266C13.3424 26.1282 13.3464 26.1297 13.3501 26.1311C13.3519 26.1318 13.3537 26.1325 13.3554 26.1331C13.3563 26.1334 13.3571 26.1337 13.3579 26.134C13.3584 26.1342 13.359 26.1344 13.3592 26.1345C13.3598 26.1347 13.3604 26.1349 14.055 24.2595ZM20.9463 24.46L14.6906 22.3631L13.4194 26.1558L19.6751 28.2526L20.9463 24.46ZM24.4852 33.1148C24.299 32.5392 23.737 30.715 23.2145 29.0113C22.9548 28.1646 22.7071 27.3549 22.5242 26.7568C22.4328 26.4578 22.3577 26.2117 22.3054 26.0404C22.2792 25.9548 22.2588 25.8878 22.2449 25.8423C22.2379 25.8195 22.2326 25.8021 22.2291 25.7904C22.2273 25.7846 22.2259 25.7801 22.225 25.7772C22.2246 25.7757 22.2242 25.7746 22.224 25.7738C22.2239 25.7735 22.2238 25.7732 22.2237 25.773C22.2237 25.7729 22.2237 25.7728 22.2237 25.7728C22.2237 25.7727 22.2237 25.7727 20.3107 26.3563C18.3978 26.9399 18.3978 26.94 18.3978 26.94C18.3978 26.9401 18.3978 26.9401 18.3978 26.9402C18.3979 26.9404 18.398 26.9407 18.3981 26.9411C18.3983 26.9419 18.3987 26.943 18.3991 26.9445C18.4001 26.9475 18.4014 26.9519 18.4032 26.9578C18.4068 26.9696 18.4121 26.9871 18.4191 27.0099C18.433 27.0556 18.4535 27.1227 18.4797 27.2085C18.5321 27.3801 18.6074 27.6266 18.6989 27.9261C18.882 28.5249 19.1301 29.3359 19.3903 30.1842C19.9075 31.8705 20.4812 33.7334 20.6794 34.346L24.4852 33.1148ZM23.2464 34.9186C23.4672 32.9309 23.4706 32.9312 23.474 32.9316C23.4751 32.9318 23.4785 32.9322 23.4808 32.9324C23.4853 32.933 23.4898 32.9335 23.4944 32.9341C23.5034 32.9352 23.5124 32.9364 23.5215 32.9376C23.5395 32.9401 23.5575 32.9429 23.5754 32.9459C23.6112 32.9519 23.6467 32.9588 23.6818 32.9667C23.7521 32.9826 23.82 33.002 23.8854 33.0246C24.017 33.07 24.1328 33.1265 24.2325 33.1873C24.4313 33.3084 24.5505 33.4368 24.6071 33.5076C24.7057 33.6308 24.6329 33.6009 24.4964 33.1504L20.6683 34.3104C20.8813 35.0132 21.1405 35.5774 21.4837 36.0064C21.6626 36.2301 21.8823 36.4393 22.151 36.603C22.2856 36.6851 22.4288 36.7533 22.5789 36.8052C22.6536 36.831 22.7286 36.8523 22.8037 36.8692C22.8412 36.8776 22.8785 36.8849 22.9155 36.8911C22.934 36.8942 22.9525 36.897 22.9708 36.8996C22.98 36.9008 22.9891 36.902 22.9982 36.9032C23.0028 36.9037 23.0073 36.9043 23.0119 36.9048C23.0141 36.9051 23.0176 36.9055 23.0187 36.9056C23.0221 36.906 23.0255 36.9064 23.2464 34.9186ZM23.9104 34.8138C22.6825 33.2351 22.6831 33.2346 22.6837 33.2341C22.6839 33.2339 22.6846 33.2335 22.685 33.2331C22.6858 33.2325 22.6867 33.2318 22.6875 33.2312C22.6892 33.2299 22.6908 33.2286 22.6925 33.2274C22.6958 33.2248 22.699 33.2223 22.7023 33.2199C22.7088 33.215 22.7152 33.2102 22.7215 33.2055C22.7342 33.1962 22.7467 33.1873 22.759 33.1788C22.7835 33.1619 22.8086 33.1456 22.8347 33.1301C22.884 33.1008 22.951 33.0658 23.0367 33.0351C23.1987 32.9773 23.5641 32.8916 23.9891 33.0617L22.5036 36.7756C23.2781 37.0854 23.9755 36.9473 24.3821 36.8021C24.5901 36.7278 24.7576 36.6403 24.8768 36.5695C24.9379 36.5333 24.9903 36.499 25.0333 36.4693C25.055 36.4543 25.0745 36.4403 25.092 36.4275C25.1007 36.4211 25.1089 36.4149 25.1166 36.4091C25.1205 36.4062 25.1242 36.4033 25.1278 36.4005C25.1296 36.3992 25.1314 36.3978 25.1331 36.3965C25.134 36.3958 25.1349 36.3951 25.1357 36.3945C25.1361 36.3941 25.1368 36.3936 25.137 36.3935C25.1376 36.393 25.1382 36.3925 23.9104 34.8138ZM26.6222 29.6615L22.5682 33.331L25.2525 36.2966L29.3065 32.627L26.6222 29.6615ZM35.4719 34.3799L29.1812 29.557L26.7475 32.7314L33.0381 37.5543L35.4719 34.3799ZM38.1727 16.9485C38.1934 16.6381 38.1657 16.1577 37.8862 15.6702C37.5817 15.1391 37.1115 14.8302 36.6689 14.689C35.9651 14.4643 35.3404 14.6591 35.1855 14.7065C34.9248 14.7863 34.7032 14.8909 34.5752 14.9553C34.5043 14.9909 34.4446 15.0233 34.4004 15.048C34.378 15.0605 34.359 15.0714 34.3438 15.0802C34.3362 15.0846 34.3295 15.0886 34.3237 15.092C34.3209 15.0937 34.3182 15.0952 34.3158 15.0966C34.3146 15.0973 34.3135 15.098 34.3124 15.0987C34.3119 15.099 34.3114 15.0993 34.3109 15.0996C34.3106 15.0997 34.3103 15.1 34.3101 15.1C34.3098 15.1003 34.3094 15.1005 35.3384 16.8155C36.3674 18.5304 36.3671 18.5307 36.3667 18.5309C36.3666 18.5309 36.3662 18.5311 36.366 18.5313C36.3656 18.5315 36.3651 18.5318 36.3647 18.5321C36.3638 18.5326 36.363 18.5331 36.3623 18.5335C36.3607 18.5344 36.3593 18.5353 36.3581 18.536C36.3557 18.5374 36.3539 18.5385 36.3527 18.5392C36.3502 18.5406 36.35 18.5407 36.3514 18.5399C36.3548 18.538 36.3631 18.5335 36.3736 18.5282C36.4083 18.5107 36.4029 18.517 36.3563 18.5313C36.3317 18.5388 36.2523 18.5621 36.1329 18.5745C36.0278 18.5854 35.7712 18.6013 35.4528 18.4996C35.0872 18.3829 34.6795 18.1191 34.4161 17.6597C34.1777 17.2439 34.1696 16.8618 34.1816 16.6824L38.1727 16.9485ZM37.3282 18.7355C37.5909 18.4526 37.9592 18.016 38.1173 17.4468C38.2099 17.1135 38.2655 16.6023 38.0338 16.0547C37.9208 15.7876 37.7602 15.5649 37.5798 15.3887C37.4916 15.3025 37.4022 15.2308 37.3162 15.1714C37.2733 15.1417 37.2312 15.115 37.1903 15.091C37.1699 15.079 37.1497 15.0677 37.1299 15.057C37.12 15.0516 37.1102 15.0464 37.1005 15.0414C37.0956 15.0388 37.0908 15.0363 37.086 15.0339C37.0836 15.0326 37.08 15.0308 37.0788 15.0302C37.0752 15.0284 37.0716 15.0266 36.1772 16.8155C35.2827 18.6043 35.2792 18.6025 35.2756 18.6007C35.2744 18.6001 35.2708 18.5983 35.2684 18.5971C35.2636 18.5946 35.2587 18.5921 35.2539 18.5896C35.2442 18.5845 35.2344 18.5794 35.2246 18.574C35.2049 18.5634 35.185 18.5522 35.1648 18.5403C35.1245 18.5166 35.083 18.4904 35.041 18.4613C34.9569 18.4031 34.8701 18.3334 34.7848 18.2502C34.6103 18.0797 34.457 17.8662 34.35 17.6133C34.1303 17.0941 34.1925 16.631 34.2632 16.3763C34.3306 16.1339 34.4279 15.9884 34.4449 15.9631C34.4691 15.9273 34.4644 15.9412 34.397 16.0137L37.3282 18.7355ZM25.5585 29.3496C26.8413 28.2018 36.8054 19.2603 37.2768 18.7888L34.4484 15.9604C34.457 15.9519 34.4271 15.9809 34.3216 16.0782C34.2303 16.1624 34.1054 16.2766 33.95 16.4181C33.6398 16.7006 33.2161 17.0843 32.7133 17.5386C31.7081 18.4468 30.3923 19.6317 29.0471 20.8415C26.3566 23.2612 23.5535 25.7761 22.8913 26.3686L25.5585 29.3496ZM26.0502 28.1736C26.0502 28.4514 25.9768 28.7389 25.8258 28.9979C25.68 29.2478 25.4943 29.4165 25.3343 29.5232L23.1155 26.195C22.5497 26.5722 22.0502 27.258 22.0502 28.1736H26.0502ZM25.6522 31.6912L26.0366 28.4061L22.0637 27.9411L21.6793 31.2263L25.6522 31.6912ZM21.1393 32.1611C21.5187 33.2993 22.5985 33.8261 23.557 33.7334C24.5231 33.6399 25.4101 32.9351 25.6269 31.851L21.7046 31.0665C21.8515 30.3319 22.4763 29.8193 23.1717 29.752C23.8593 29.6854 24.6595 30.0724 24.934 30.8962L21.1393 32.1611ZM19.4812 26.7304L21.1238 32.1124L24.9496 30.9448L23.307 25.5628L19.4812 26.7304ZM20.4944 23.8884C19.5099 24.5447 19.151 25.7418 19.4967 26.7791L23.2915 25.5142C23.4974 26.132 23.2783 26.8399 22.7132 27.2166L20.4944 23.8884ZM34.2649 15.128L20.5303 23.865L22.6773 27.24L36.4119 18.503L34.2649 15.128Z" fill="#FFC120" mask="url(#path-1-outside-1)"/>
</g>
<defs>
<filter id="filter0_d" x="0.998047" y="-2.28882e-05" width="52.0065" height="48.1657" filterUnits="userSpaceOnUse" color-interpolation-filters="sRGB">
<feFlood flood-opacity="0" result="BackgroundImageFix"/>
<feColorMatrix in="SourceAlpha" type="matrix" values="0 0 0 0 0 0 0 0 0 0 0 0 0 0 0 0 0 0 127 0" result="hardAlpha"/>
<feOffset/>
<feGaussianBlur stdDeviation="5"/>
<feComposite in2="hardAlpha" operator="out"/>
<feColorMatrix type="matrix" values="0 0 0 0 1 0 0 0 0 0.85098 0 0 0 0 0.0941176 0 0 0 0.8 0"/>
<feBlend mode="normal" in2="BackgroundImageFix" result="effect1_dropShadow"/>
<feBlend mode="normal" in="SourceGraphic" in2="effect1_dropShadow" result="shape"/>
</filter>
</defs>
</svg>
