<svg width="36" height="24" viewBox="0 0 36 24" fill="none" xmlns="http://www.w3.org/2000/svg">
<path d="M26.2642 2.59637L26.2612 2.60348L26.2583 2.61035L26.2583 2.61045L26.2582 2.61064L26.2577 2.61183L26.2547 2.6192L26.241 2.65197C26.2285 2.68164 26.2094 2.72672 26.1839 2.78578C26.1329 2.90392 26.0564 3.07783 25.9565 3.29616C25.7565 3.73321 25.4635 4.34608 25.094 5.04454C24.3525 6.44609 23.3281 8.14295 22.154 9.46082C21.9723 9.64205 21.8254 9.78228 21.7044 9.89109V3.2868C21.7044 2.7944 21.6436 2.19257 21.2834 1.71079C20.8671 1.15395 20.2511 1 19.7041 1H14.2028C13.1002 1 12.3121 1.85503 12.3121 2.80469C12.3121 3.29812 12.5081 3.66747 12.6885 3.92854C12.7728 4.05053 12.8662 4.16621 12.9389 4.2563L12.9399 4.25751L12.9484 4.26813C13.0241 4.36179 13.0886 4.44166 13.1531 4.52946C13.3785 4.83607 13.6462 5.28862 13.703 6.24519V11.3497C13.6741 11.321 13.6443 11.2905 13.6134 11.2582C13.2112 10.8366 12.7254 10.1953 12.203 9.36985C11.162 7.72475 10.0456 5.45893 9.21377 3.03633L9.21295 3.03397C9.03754 2.52721 8.80447 1.97994 8.37157 1.58134C7.88775 1.13585 7.3014 1 6.7011 1H3.20028C2.56558 1 1.94464 1.14771 1.50309 1.60842C1.06521 2.0653 1 2.62807 1 2.99023C1 3.36194 1.105 3.93021 1.28852 4.60306C1.47988 5.30468 1.77815 6.19654 2.21204 7.24406C3.07985 9.3392 4.49735 12.0744 6.709 15.1752C9.74446 19.5302 14.0984 22.0044 18.2038 22.0044C19.3169 22.0044 20.2234 21.8946 20.8457 21.4772C21.6253 20.9543 21.7044 20.1607 21.7044 19.6429V16.5034C21.7044 16.4305 21.7057 16.3668 21.7081 16.3111C21.9501 16.3515 22.6743 16.6113 24.4058 18.2795C24.9789 18.8528 25.4335 19.3481 25.8182 19.7744C25.8884 19.8522 25.9573 19.9289 26.025 20.0042C26.3199 20.3323 26.5905 20.6334 26.8376 20.8813C27.1454 21.1899 27.4779 21.4803 27.8723 21.6868C28.2883 21.9047 28.7243 22.0044 29.2064 22.0044H32.7072C33.3328 22.0044 34.0636 21.8529 34.554 21.2837C35.0755 20.6783 35.0739 19.9039 34.8788 19.2367L34.8751 19.2242L34.8712 19.2119C34.6613 18.5578 34.2168 17.847 33.6925 17.1374C33.1567 16.4123 32.4767 15.6093 31.7216 14.7595C31.2795 14.2382 30.7385 13.7082 30.2938 13.2725C29.8018 12.7905 29.4897 12.48 29.3696 12.3118L29.3576 12.295L29.345 12.2788C29.2962 12.2161 29.2643 12.169 29.2437 12.1355C29.2728 12.0791 29.3168 12.0048 29.3887 11.8895L29.4213 11.8433C29.4534 11.7977 29.5002 11.7311 29.5598 11.6457C29.6789 11.4751 29.8491 11.2297 30.0546 10.929C30.4653 10.3282 31.0185 9.50434 31.5867 8.61438C32.1536 7.72651 32.7423 6.76226 33.2205 5.88305C33.6728 5.05163 34.0826 4.19674 34.2347 3.53648C34.3701 3.06473 34.4498 2.38317 34.0364 1.79213C33.5981 1.16548 32.8628 1 32.2071 1H28.7062C28.0733 1 27.529 1.17184 27.0914 1.50261C26.6665 1.82379 26.418 2.23756 26.2642 2.59637ZM14.1673 11.7226C14.1691 11.7232 14.17 11.7236 14.17 11.7236C14.17 11.7236 14.1691 11.7233 14.1673 11.7226Z" stroke="#FFC120" stroke-width="2"/>
</svg>
